<?xml version="1.0" encoding="utf-8"?>
<!-- Generator: Adobe Illustrator 23.1.0, SVG Export Plug-In . SVG Version: 6.00 Build 0)  -->
<svg version="1.1" id="Layer_1" xmlns="http://www.w3.org/2000/svg" xmlns:xlink="http://www.w3.org/1999/xlink" x="0px" y="0px"
	 viewBox="0 0 612 792" style="enable-background:new 0 0 612 792;" xml:space="preserve">
<style type="text/css">
	.st0{clip-path:url(#SVGID_2_);fill:#46B863;}
	.st1{fill:#46B863;}
</style>
<g>
	<g>
		<defs>
			<rect id="SVGID_1_" x="108" y="199" width="395.76" height="396"/>
		</defs>
		<clipPath id="SVGID_2_">
			<use xlink:href="#SVGID_1_"  style="overflow:visible;"/>
		</clipPath>
		<path class="st0" d="M432.58,479.2l-11.32-22.91c-19.58,37.79-57.06,64.82-101.2,69.74l10.84-25.91c0.37-0.91,0.16-1.96-0.56-2.63
			c-0.73-0.68-1.79-0.84-2.68-0.4c-23.81,11.77-78.26,38.69-93,45.98c-0.93,0.46-1.52,1.41-1.52,2.45c0,1.03,0.59,1.99,1.52,2.45
			c74.31,36.73,54.72,27.04,93,45.96c0.88,0.44,1.94,0.28,2.68-0.39c0.72-0.68,0.93-1.73,0.55-2.64l-10.64-25.46
			c52.41-4.52,98.12-32.87,126.03-74.25C440.37,489.06,435.32,484.87,432.58,479.2L432.58,479.2z M432.58,479.2"/>
		<path class="st0" d="M178.59,313.98l11.34,22.91c19.58-37.77,57.06-64.81,101.18-69.72l-10.83,25.9
			c-0.37,0.91-0.15,1.96,0.57,2.64c0.73,0.67,1.79,0.83,2.67,0.39c77.93-38.54,13.52-6.68,93.01-45.98
			c0.93-0.46,1.52-1.41,1.52-2.44v-0.01c0-1.04-0.59-1.99-1.52-2.45c-73.64-36.41-54.31-26.84-93.01-45.97
			c-0.88-0.43-1.95-0.27-2.67,0.4c-0.72,0.68-0.94,1.73-0.57,2.63l10.65,25.47c-52.4,4.53-98.1,32.88-126.02,74.25
			C170.79,304.13,175.85,308.31,178.59,313.98L178.59,313.98z M178.59,313.98"/>
		<path class="st0" d="M175.92,408.91l26.15,10.93c0.91,0.38,1.97,0.15,2.63-0.56c0.68-0.72,0.83-1.78,0.4-2.66
			c-29.51-59.68-17.11-34.59-45.99-93.01v-0.02c-0.46-0.92-1.41-1.51-2.45-1.51c-1.04,0-1.98,0.59-2.44,1.51
			c-38.61,78.12-27.33,55.31-45.98,93.02c-0.44,0.88-0.29,1.95,0.39,2.66c0.66,0.72,1.73,0.95,2.64,0.56l25.35-10.6
			c4,53.91,33.21,100.86,75.96,129.02c1.99-6.32,6.43-11.74,12.44-14.66l21.89-10.83C207.98,493.01,180.21,454.37,175.92,408.91
			L175.92,408.91z M175.92,408.91"/>
	</g>
	<path class="st1" d="M224.43,396.6c0,44.81,36.34,81.14,81.15,81.14c44.82,0,81.14-36.34,81.14-81.14
		c0-44.82-36.33-81.16-81.14-81.16C260.78,315.45,224.43,351.78,224.43,396.6L224.43,396.6z M224.43,396.6"/>
	<path class="st1" d="M502.53,373.91c-0.67-0.72-1.71-0.94-2.64-0.56l-25.35,10.6c-4.01-53.91-33.2-100.86-75.96-129.02
		c-1.98,6.32-6.43,11.74-12.43,14.66l-21.91,10.83c38.94,19.75,66.71,58.38,71,103.84l-26.13-10.92c-0.92-0.38-1.97-0.16-2.63,0.56
		c-0.68,0.72-0.84,1.78-0.4,2.66c38.18,77.25,1.92,3.85,45.99,93.01c0.23,0.46,0.57,0.85,1,1.11c0.44,0.27,0.93,0.42,1.45,0.42
		c1.04,0,1.99-0.59,2.44-1.52c37.03-74.95,26.89-54.41,45.97-93.01C503.36,375.68,503.2,374.63,502.53,373.91L502.53,373.91z
		 M502.53,373.91"/>
</g>
</svg>
