<?xml version="1.0" encoding="utf-8"?>
<!-- Generator: Adobe Illustrator 23.1.0, SVG Export Plug-In . SVG Version: 6.00 Build 0)  -->
<svg version="1.1" id="Layer_1" xmlns="http://www.w3.org/2000/svg" xmlns:xlink="http://www.w3.org/1999/xlink" x="0px" y="0px"
	 viewBox="0 0 612 792" style="enable-background:new 0 0 612 792;" xml:space="preserve">
<style type="text/css">
	.st0{fill:#41BB93;}
</style>
<g>
	<path class="st0" d="M482.67,214H240.7c-8.45,0-15.33,6.19-15.33,13.8v97.27H371.3c15.75,0,28.57,12.12,28.57,27.03v0.06h59.86
		c3.66,0,6.62,2.96,6.62,6.61c0,3.65-2.96,6.61-6.62,6.61h-59.86v37.6h82.81c8.45,0,15.33-6.19,15.33-13.8V227.8
		C498,220.19,491.13,214,482.67,214L482.67,214z M263.66,318.46c-5.48,0-9.93-4.44-9.93-9.92c0-5.48,4.45-9.92,9.93-9.92
		c5.49,0,9.93,4.44,9.93,9.92C273.59,314.02,269.14,318.46,263.66,318.46L263.66,318.46z M263.66,268.14
		c-5.48,0-9.93-4.44-9.93-9.92c0-5.48,4.45-9.92,9.93-9.92c5.49,0,9.93,4.44,9.93,9.92C273.59,263.7,269.14,268.14,263.66,268.14
		L263.66,268.14z M459.73,315.11H293.39c-3.66,0-6.62-2.96-6.62-6.61c0-3.65,2.96-6.61,6.62-6.61h166.33c3.66,0,6.62,2.96,6.62,6.61
		C466.35,312.15,463.38,315.11,459.73,315.11L459.73,315.11z M459.73,264.83H293.39c-3.66,0-6.62-2.96-6.62-6.61
		c0-3.65,2.96-6.61,6.62-6.61h166.33c3.66,0,6.62,2.96,6.62,6.61C466.35,261.87,463.38,264.83,459.73,264.83L459.73,264.83z
		 M459.73,264.83"/>
	<path class="st0" d="M371.3,338.29H129.32c-8.45,0-15.32,6.19-15.32,13.8v161.38c0,7.61,6.88,13.8,15.32,13.8
		c1.96,0,3.81,0.86,5.07,2.35l42.01,49.79v-45.53c0-3.65,2.97-6.61,6.62-6.61H371.3c8.45,0,15.33-6.19,15.33-13.8V352.09
		C386.63,344.48,379.75,338.29,371.3,338.29L371.3,338.29z M152.27,492.99c-5.48,0-9.93-4.44-9.93-9.92c0-5.48,4.45-9.92,9.93-9.92
		c5.48,0,9.93,4.44,9.93,9.92C162.2,488.55,157.75,492.99,152.27,492.99L152.27,492.99z M152.27,442.74c-5.48,0-9.93-4.44-9.93-9.92
		c0-5.48,4.45-9.92,9.93-9.92c5.48,0,9.93,4.44,9.93,9.92C162.2,438.3,157.75,442.74,152.27,442.74L152.27,442.74z M152.27,392.48
		c-5.48,0-9.93-4.44-9.93-9.92c0-5.48,4.45-9.92,9.93-9.92c5.48,0,9.93,4.44,9.93,9.92C162.2,388.04,157.75,392.48,152.27,392.48
		L152.27,392.48z M348.35,489.68H182.02c-3.66,0-6.62-2.96-6.62-6.61c0-3.65,2.96-6.61,6.62-6.61h166.33c3.66,0,6.62,2.96,6.62,6.61
		C354.97,486.71,352,489.68,348.35,489.68L348.35,489.68z M348.35,439.4H182.02c-3.66,0-6.62-2.96-6.62-6.61
		c0-3.65,2.96-6.61,6.62-6.61h166.33c3.66,0,6.62,2.96,6.62,6.61C354.97,436.44,352,439.4,348.35,439.4L348.35,439.4z
		 M348.35,389.13H182.02c-3.66,0-6.62-2.96-6.62-6.61c0-3.65,2.96-6.61,6.62-6.61h166.33c3.66,0,6.62,2.96,6.62,6.61
		C354.97,386.16,352,389.13,348.35,389.13L348.35,389.13z M348.35,389.13"/>
</g>
</svg>
