<?xml version="1.0" encoding="utf-8"?>
<!-- Generator: Adobe Illustrator 23.1.0, SVG Export Plug-In . SVG Version: 6.00 Build 0)  -->
<svg version="1.1" id="Layer_1" xmlns="http://www.w3.org/2000/svg" xmlns:xlink="http://www.w3.org/1999/xlink" x="0px" y="0px"
	 viewBox="0 0 612 792" style="enable-background:new 0 0 612 792;" xml:space="preserve">
<style type="text/css">
	.st0{fill:#488FCD;}
</style>
<g>
	<path class="st0" d="M293.56,392.9c-2.86-7.13-2.29-15.36,1.84-22.1c5.18-3.86,14.37-3.97,19.96-0.82
		C304.25,371.69,293.56,392.9,293.56,392.9L293.56,392.9z M302.27,384.07c0,0,23.71-1.35,30.75,7.41
		c-0.07-6.42-4.76-14.31-10.69-16.88C314.43,374.4,307.01,378.02,302.27,384.07L302.27,384.07z M314.27,387.2
		c0,0,13.03,19.86,8.95,30.34c5.53-3.27,10.02-11.28,9.27-17.7C328.72,392.89,321.88,388.28,314.27,387.2L314.27,387.2z
		 M295.77,422.08c5.59,3.15,14.78,3.03,19.96-0.82c4.13-6.74,4.71-14.97,1.84-22.1C317.57,399.15,306.88,420.36,295.77,422.08
		L295.77,422.08z M308.85,407.98c0,0-23.71,1.35-30.75-7.42c0.07,6.42,4.76,14.32,10.69,16.88
		C296.7,417.65,304.12,414.03,308.85,407.98L308.85,407.98z M296.85,404.86c0,0-13.03-19.86-8.95-30.34
		c-5.53,3.27-10.01,11.28-9.27,17.69C282.41,399.16,289.25,403.77,296.85,404.86L296.85,404.86z M338.68,396.34
		c0,18.39-14.95,33.34-33.34,33.34c-18.38,0-33.34-14.95-33.34-33.34c0-18.38,14.96-33.34,33.34-33.34
		C323.73,363,338.68,377.96,338.68,396.34L338.68,396.34z M335.6,396.34c0-16.69-13.58-30.26-30.26-30.26
		c-16.69,0-30.27,13.57-30.27,30.26c0,16.69,13.58,30.27,30.27,30.27C322.03,426.61,335.6,413.03,335.6,396.34L335.6,396.34z
		 M335.6,396.34"/>
</g>
</svg>
