<?xml version="1.0" encoding="utf-8"?>
<!-- Generator: Adobe Illustrator 23.1.0, SVG Export Plug-In . SVG Version: 6.00 Build 0)  -->
<svg version="1.1" id="Layer_1" xmlns="http://www.w3.org/2000/svg" xmlns:xlink="http://www.w3.org/1999/xlink" x="0px" y="0px"
	 viewBox="0 0 612 792" style="enable-background:new 0 0 612 792;" xml:space="preserve">
<style type="text/css">
	.st0{clip-path:url(#SVGID_2_);fill:#2AA449;}
	.st1{fill:#2AA449;}
</style>
<g>
	<g>
		<defs>
			<rect id="SVGID_1_" x="114" y="213" width="384" height="366"/>
		</defs>
		<clipPath id="SVGID_2_">
			<use xlink:href="#SVGID_1_"  style="overflow:visible;"/>
		</clipPath>
		<path class="st0" d="M326.41,521.92L114,522.61c0.49,9.57,3.05,28.18,14.98,41.2c8.73,9.52,21.18,14.53,37,14.9
			c40-0.07,126.55-0.25,174.41-0.45C330.28,567.2,325.79,549.19,326.41,521.92L326.41,521.92z M326.41,521.92"/>
		<path class="st0" d="M497.41,264.3c0.54-1.73,0.95-4.16,0.13-6.42c-0.72-1.98-2.11-3.52-4.01-4.44l-8.83-4.32
			c-1.91-0.9-4.1-1.05-6.09-0.38c-1.88,0.63-3.37,1.95-4.19,3.7c-0.01,0.02-0.01,0.03-0.02,0.04l-5.82,12.23l23.43,10.97
			L497.41,264.3z M497.41,264.3"/>
	</g>
	<path class="st1" d="M399.8,466.71c-2.93,2.82-7.24,3.93-11.12,2.73H179.57c-3.66,0-6.62-2.97-6.62-6.64s2.96-6.64,6.62-6.64
		h200.92l4.71-37.69H179.57c-3.66,0-6.62-2.98-6.62-6.64s2.96-6.64,6.62-6.64h208.88l35.48-76.13V224.71
		c0-6.3-5.23-11.43-11.66-11.43h-246.8c-8.24,0-14.95,6.59-14.95,14.68L149.8,509.3l183.47-0.7c3.92,0,6.82,3.37,6.63,7.21
		c-1.32,27.24,2.15,44.83,10.61,53.74c5.53,5.83,13.75,8.42,26.66,8.42h3.65c23.37,0,42.38-18.74,42.38-41.78l0.73-16.3l0-77.58
		L399.8,466.71z M310.84,297.32l30.4-15.18l-30.4-15.17v-12.4l45.5,23.41v8.32l-45.5,23.41V297.32z M294.05,243.23h11.96
		l-26.22,68.1h-11.87L294.05,243.23z M217.41,278.07l45.5-23.51v12.41l-30.18,15.18l30.18,15.18v12.41l-45.5-23.51V278.07z
		 M179.57,354.2h214.58c3.66,0,6.62,2.98,6.62,6.64c0,3.66-2.96,6.64-6.62,6.64H179.57c-3.66,0-6.62-2.98-6.62-6.64
		C172.94,357.17,175.91,354.2,179.57,354.2L179.57,354.2z M179.57,354.2"/>
	<path class="st1" d="M401.53,408.49l23.64,11.08l61.2-131.83l-23.45-10.98L401.53,408.49z M401.53,408.49"/>
	<path class="st1" d="M398.16,421.58l-4,31.98l22.89-23.14L398.16,421.58z M398.16,421.58"/>
</g>
</svg>
