<?xml version="1.0" encoding="utf-8"?>
<!-- Generator: Adobe Illustrator 23.1.0, SVG Export Plug-In . SVG Version: 6.00 Build 0)  -->
<svg version="1.1" id="Layer_1" xmlns="http://www.w3.org/2000/svg" xmlns:xlink="http://www.w3.org/1999/xlink" x="0px" y="0px"
	 viewBox="0 0 612 792" style="enable-background:new 0 0 612 792;" xml:space="preserve">
<style type="text/css">
	.st0{fill:#2AA449;}
</style>
<g>
	<path class="st0" d="M334.67,420.73v3.2H276V369h3.2v51.73H334.67z M289.6,372.87h-5.47v23.6h5.47V372.87z M289.6,418.13h-5.47
		v-20.27h5.47V418.13z M288.8,398.67h-3.87v18.66h3.87V398.67z M299.6,372.87h-5.47v29.19h5.47V372.87z M299.6,418.13h-5.47v-15.14
		h5.47V418.13z M298.8,403.79h-3.87v13.55h3.87V403.79z M309.46,372.87H304v23.6h5.47V372.87z M309.46,418.13H304v-20.27h5.47
		V418.13z M308.67,398.67h-3.87v18.66h3.87V398.67z M319.87,372.67h-5.47v14.8h5.47V372.67z M319.87,417.93h-5.47v-29.07h5.47
		V417.93z M319.07,389.67h-3.87v27.46h3.87V389.67z M330.27,372.67h-5.46v8.6h5.46V372.67z M330.27,417.93h-5.46v-35.27h5.46V417.93
		z M329.46,383.46h-3.86v33.67h3.86V383.46z M329.46,383.46"/>
</g>
</svg>
