<?xml version="1.0" encoding="utf-8"?>
<!-- Generator: Adobe Illustrator 23.1.0, SVG Export Plug-In . SVG Version: 6.00 Build 0)  -->
<svg version="1.1" id="Layer_1" xmlns="http://www.w3.org/2000/svg" xmlns:xlink="http://www.w3.org/1999/xlink" x="0px" y="0px"
	 viewBox="0 0 612 792" style="enable-background:new 0 0 612 792;" xml:space="preserve">
<style type="text/css">
	.st0{fill:#2AA449;}
</style>
<g>
	<path class="st0" d="M207.27,426.79h65.2v-61.58h-65.2V426.79z M220.24,396.6c1.93-2.82,5.77-3.55,8.61-1.64l7.82,5.32l20.57-21.17
		c2.39-2.45,6.3-2.51,8.76-0.13c2.45,2.39,2.51,6.3,0.13,8.76l-24.19,24.9c-2.06,2.13-5.49,2.47-7.93,0.81l-12.13-8.25
		C219.05,403.29,218.32,399.44,220.24,396.6C222.17,393.79,218.32,399.44,220.24,396.6L220.24,396.6z M220.24,396.6"/>
	<path class="st0" d="M207.27,307.88h65.2V246.3h-65.2V307.88z M220.24,277.7c1.93-2.82,5.77-3.55,8.61-1.64l7.82,5.32l20.57-21.17
		c2.39-2.45,6.3-2.51,8.76-0.13c2.45,2.39,2.51,6.3,0.13,8.76l-24.19,24.9c-2.06,2.13-5.49,2.46-7.93,0.81l-12.13-8.24
		C219.05,284.39,218.32,280.54,220.24,277.7C222.17,274.88,218.32,280.54,220.24,277.7L220.24,277.7z M220.24,277.7"/>
	<path class="st0" d="M448.29,204H163.39c-6.83,0-12.39,5.55-12.39,12.39v359.23c0,6.83,5.56,12.39,12.39,12.39h284.91
		c6.83,0,12.39-5.55,12.39-12.39V216.39C460.68,209.55,455.12,204,448.29,204L448.29,204z M284.87,551.89c0,3.42-2.78,6.2-6.19,6.2
		h-77.59c-3.42,0-6.19-2.77-6.19-6.2v-73.96c0-3.42,2.77-6.19,6.19-6.19h77.59c3.42,0,6.19,2.77,6.19,6.19V551.89z M284.87,432.98
		c0,3.42-2.78,6.2-6.19,6.2h-77.59c-3.42,0-6.19-2.77-6.19-6.2v-73.96c0-3.42,2.77-6.2,6.19-6.2h77.59c3.42,0,6.19,2.77,6.19,6.2
		V432.98z M284.87,314.08c0,3.42-2.78,6.19-6.19,6.19h-77.59c-3.42,0-6.19-2.77-6.19-6.19v-73.96c0-3.42,2.77-6.2,6.19-6.2h77.59
		c3.42,0,6.19,2.77,6.19,6.2V314.08z M410.6,538.6h-93.24c-3.42,0-6.19-2.77-6.19-6.19c0-3.42,2.77-6.2,6.19-6.2h93.24
		c3.42,0,6.19,2.78,6.19,6.2C416.79,535.83,414.02,538.6,410.6,538.6L410.6,538.6z M410.6,507.16h-93.24c-3.42,0-6.19-2.77-6.19-6.2
		c0-3.42,2.77-6.19,6.19-6.19h93.24c3.42,0,6.19,2.77,6.19,6.19C416.79,504.38,414.02,507.16,410.6,507.16L410.6,507.16z
		 M410.6,419.7h-93.24c-3.42,0-6.19-2.77-6.19-6.19s2.77-6.19,6.19-6.19h93.24c3.42,0,6.19,2.78,6.19,6.19S414.02,419.7,410.6,419.7
		L410.6,419.7z M410.6,388.25h-93.24c-3.42,0-6.19-2.78-6.19-6.2c0-3.42,2.77-6.19,6.19-6.19h93.24c3.42,0,6.19,2.77,6.19,6.19
		C416.79,385.47,414.02,388.25,410.6,388.25L410.6,388.25z M410.6,300.79h-93.24c-3.42,0-6.19-2.77-6.19-6.2
		c0-3.42,2.77-6.19,6.19-6.19h93.24c3.42,0,6.19,2.77,6.19,6.19C416.79,298.02,414.02,300.79,410.6,300.79L410.6,300.79z
		 M410.6,269.34h-93.24c-3.42,0-6.19-2.77-6.19-6.19c0-3.42,2.77-6.2,6.19-6.2h93.24c3.42,0,6.19,2.78,6.19,6.2
		C416.79,266.57,414.02,269.34,410.6,269.34L410.6,269.34z M410.6,269.34"/>
	<path class="st0" d="M207.27,545.7h65.2v-61.58h-65.2V545.7z M220.24,515.52c1.93-2.82,5.77-3.55,8.61-1.64l7.82,5.32l20.57-21.17
		c2.39-2.45,6.3-2.51,8.76-0.13c2.45,2.39,2.51,6.3,0.13,8.76l-24.19,24.9c-2.06,2.13-5.49,2.46-7.93,0.81l-12.13-8.25
		C219.05,522.2,218.32,518.34,220.24,515.52C222.17,512.69,218.32,518.34,220.24,515.52L220.24,515.52z M220.24,515.52"/>
</g>
</svg>
