<?xml version="1.0" encoding="utf-8"?>
<!-- Generator: Adobe Illustrator 23.1.0, SVG Export Plug-In . SVG Version: 6.00 Build 0)  -->
<svg version="1.1" id="Layer_1" xmlns="http://www.w3.org/2000/svg" xmlns:xlink="http://www.w3.org/1999/xlink" x="0px" y="0px"
	 viewBox="0 0 612 792" style="enable-background:new 0 0 612 792;" xml:space="preserve">
<style type="text/css">
	.st0{fill:#2AA449;}
	.st1{clip-path:url(#SVGID_2_);fill:#2AA449;}
</style>
<g>
	<path class="st0" d="M205.58,494.63h35.06v-112.7l-35.06,12.05V494.63z M205.58,494.63"/>
	<path class="st0" d="M131.46,494.63h35.06v-81.5l-35.06,12.05V494.63z M131.46,494.63"/>
	<path class="st0" d="M279.7,494.63h35.06V348.28l-35.06,12.05V494.63z M279.7,494.63"/>
	<g>
		<defs>
			<rect id="SVGID_1_" x="114" y="234" width="384" height="324"/>
		</defs>
		<clipPath id="SVGID_2_">
			<use xlink:href="#SVGID_1_"  style="overflow:visible;"/>
		</clipPath>
		<path class="st1" d="M353.82,494.63h16.67c-2.12-5.6-3.21-11.55-3.21-17.61c0-16.61,8.01-31.73,21.59-41.15V314.63l-35.06,12.05
			L353.82,494.63L353.82,494.63z M353.82,494.63"/>
		<path class="st1" d="M391.78,244c-0.93-1.41-2.39-2.39-4.04-2.72l-30.54-6.17c-3.43-0.69-6.78,1.54-7.47,4.98
			c-0.69,3.44,1.53,6.8,4.97,7.5l16.55,3.34c-33.74,25.46-150.37,108.11-251.5,117.67c-3.49,0.33-6.05,3.43-5.72,6.93
			c0.31,3.3,3.07,5.77,6.31,5.77c0.2,0,0.41-0.01,0.61-0.03c63.9-6.04,133.41-40.5,180.47-68.35
			c26.74-15.82,49.05-31.13,63.07-41.18c5.07-3.63,9.14-6.6,12.45-9.05l-2.9,14.26c-1.63,8.03,10.8,10.61,12.44,2.54l6.25-30.72
			C393.05,247.13,392.71,245.41,391.78,244C390.85,242.59,392.71,245.41,391.78,244L391.78,244z M391.78,244"/>
		<path class="st1" d="M417.87,439.48c-20.89,0-37.89,16.84-37.89,37.54c0,20.7,17,37.54,37.89,37.54
			c20.89,0,37.89-16.84,37.89-37.54C455.75,456.32,438.76,439.48,417.87,439.48L417.87,439.48z M417.87,439.48"/>
		<path class="st1" d="M494.92,539.4l-37.08-36.83l-2.2,2.86c-2.75,3.59-5.99,6.77-9.65,9.46L443,517.1l37.13,36.88
			C489.59,563.36,504.48,548.88,494.92,539.4L494.92,539.4z M494.92,539.4"/>
	</g>
</g>
</svg>
