<?xml version="1.0" encoding="utf-8"?>
<!-- Generator: Adobe Illustrator 24.2.0, SVG Export Plug-In . SVG Version: 6.00 Build 0)  -->
<svg version="1.1" id="Layer_1" focusable="false" xmlns="http://www.w3.org/2000/svg" xmlns:xlink="http://www.w3.org/1999/xlink"
	 x="0px" y="0px" viewBox="0 0 512 512" style="enable-background:new 0 0 512 512;" xml:space="preserve">
<style type="text/css">
	.st0{fill:#4949B7;}
	.st1{fill:#7686E5;}
	.st2{fill:#95B4D8;}
</style>
<path class="st0" d="M499.5,404.1L266.6,509.7c-6.8,3.1-14.5,3.1-21.3,0L12.4,404.1c-16.5-7.5-16.5-32.5,0-40l57.9-26.2L232,411.3
	c7.6,3.5,15.6,5.2,23.9,5.2c8.3,0,16.3-1.8,23.9-5.2l161.9-73.4l57.9,26.2C516.1,371.6,516.1,396.6,499.5,404.1z"/>
<path class="st1" d="M499.5,276.3L266.6,381.9c-6.8,3.1-14.5,3.1-21.3,0L12.4,276.3c-16.5-7.5-16.5-32.5,0-40L70.5,210l161.6,73.3
	c7.6,3.5,15.6,5.2,23.9,5.2s16.3-1.8,23.9-5.2L441.5,210l58.1,26.3C516.1,243.8,516.1,268.8,499.5,276.3z"/>
<path class="st2" d="M499.6,148l-233,105.7c-6.8,3.1-14.5,3.1-21.3,0L12.4,148c-16.5-7.5-16.5-32.5,0-40L245.3,2.3
	c6.8-3.1,14.5-3.1,21.3,0l233,105.7C516.1,115.5,516.1,140.5,499.6,148z"/>
</svg>
