<?xml version="1.0" encoding="utf-8"?>
<!-- Generator: Adobe Illustrator 23.1.0, SVG Export Plug-In . SVG Version: 6.00 Build 0)  -->
<svg version="1.1" id="Layer_1" xmlns="http://www.w3.org/2000/svg" xmlns:xlink="http://www.w3.org/1999/xlink" x="0px" y="0px"
	 viewBox="0 0 612 792" style="enable-background:new 0 0 612 792;" xml:space="preserve">
<style type="text/css">
	.st0{fill:#45B864;}
</style>
<g>
	<path class="st0" d="M310.34,459.95c0.67-1.82,1.42-3.62,2.23-5.4c-4.03-5.83-6.2-12.73-6.2-19.96c0-9.42,3.68-18.27,10.31-24.88
		c6.66-6.68,15.51-10.35,24.94-10.35c7.23,0,14.11,2.16,19.94,6.18c1.79-0.79,3.58-1.54,5.41-2.23
		c3.03-16.37,17.41-28.81,34.64-28.81c3.97,0,7.78,0.73,11.35,1.95c6.44-4.84,10.66-12.47,10.66-21.13
		c0-14.65-11.88-26.52-26.52-26.52h-16.15c-2.94-12.61-7.91-24.39-14.56-35.07l11.45-11.44c10.36-10.35,10.36-27.15,0-37.5
		c-10.36-10.36-27.17-10.36-37.5,0l-11.45,11.44c-10.67-6.65-22.46-11.62-35.07-14.55v-16.16c0-14.65-11.89-26.52-26.52-26.52
		c-14.66,0-26.52,11.88-26.52,26.52v16.15c-12.61,2.93-24.41,7.91-35.07,14.55l-11.43-11.43c-10.35-10.36-27.16-10.36-37.5,0
		c-10.36,10.36-10.36,27.15,0,37.5l11.43,11.44c-6.64,10.67-11.62,22.46-14.54,35.06h-16.16c-14.65,0-26.52,11.88-26.52,26.52
		c0,14.65,11.87,26.52,26.52,26.52h16.16c2.93,12.61,7.9,24.4,14.56,35.07l-11.45,11.44c-10.36,10.35-10.36,27.15,0,37.5
		c5.18,5.18,11.96,7.77,18.75,7.77c6.78,0,13.57-2.59,18.75-7.77l11.44-11.44c10.67,6.64,22.45,11.61,35.07,14.55v16.15
		c0,14.65,11.86,26.52,26.52,26.52c6.11,0,11.68-2.16,16.16-5.64c-1.21-3.59-1.95-7.41-1.95-11.4
		C281.53,477.36,293.96,462.98,310.34,459.95L310.34,459.95z M267.32,408.39c-29.32,0-53.09-23.76-53.09-53.07
		c0-29.31,23.77-53.07,53.09-53.07c29.3,0,53.07,23.76,53.07,53.07C320.39,384.63,296.63,408.39,267.32,408.39L267.32,408.39z
		 M267.32,408.39"/>
	<path class="st0" d="M486.48,480.66h-9.84c-1.97-10.71-6.15-20.65-12.1-29.29l6.95-6.93c5.43-5.44,5.43-14.26,0-19.7
		c-2.72-2.72-6.3-4.09-9.86-4.09c-3.56,0-7.13,1.36-9.86,4.09l-6.94,6.94c-8.62-5.96-18.57-10.13-29.29-12.11v-9.84
		c0-7.69-6.23-13.92-13.92-13.92c-7.69,0-13.92,6.23-13.92,13.92v9.84c-10.72,1.98-20.65,6.16-29.29,12.11l-6.94-6.93
		c-2.72-2.72-6.29-4.09-9.84-4.09c-3.57,0-7.15,1.37-9.85,4.09c-5.45,5.43-5.45,14.26,0,19.7l6.93,6.93
		c-5.94,8.64-10.12,18.57-12.09,29.29h-9.84c-7.69,0-13.93,6.23-13.93,13.93c0,7.7,6.24,13.93,13.93,13.93h9.84
		c1.97,10.72,6.15,20.64,12.11,29.29l-6.94,6.94c-5.45,5.44-5.45,14.26,0,19.7c2.72,2.72,6.28,4.09,9.85,4.09
		c3.56,0,7.12-1.37,9.84-4.09l6.94-6.93c8.64,5.94,18.57,10.12,29.29,12.1v9.84c0,7.7,6.23,13.93,13.92,13.93
		c7.69,0,13.92-6.23,13.92-13.93v-9.83c10.72-1.98,20.65-6.16,29.29-12.11l6.94,6.95c2.72,2.72,6.29,4.08,9.86,4.08
		c3.56,0,7.14-1.36,9.86-4.08c5.43-5.44,5.43-14.26,0-19.7l-6.95-6.94c5.95-8.64,10.13-18.57,12.1-29.29h9.84
		c7.69,0,13.93-6.23,13.93-13.93C500.41,486.9,494.16,480.66,486.48,480.66L486.48,480.66z M401.62,523.35
		c-15.89,0-28.76-12.88-28.76-28.76c0-15.88,12.87-28.76,28.76-28.76c15.89,0,28.76,12.87,28.76,28.76
		C430.38,510.47,417.51,523.35,401.62,523.35L401.62,523.35z M401.62,523.35"/>
</g>
</svg>
