<?xml version="1.0" encoding="utf-8"?>
<!-- Generator: Adobe Illustrator 23.1.0, SVG Export Plug-In . SVG Version: 6.00 Build 0)  -->
<svg version="1.1" id="Layer_1" xmlns="http://www.w3.org/2000/svg" xmlns:xlink="http://www.w3.org/1999/xlink" x="0px" y="0px"
	 viewBox="0 0 612 792" style="enable-background:new 0 0 612 792;" xml:space="preserve">
<style type="text/css">
	.st0{fill:#2AA449;}
	.st1{clip-path:url(#SVGID_2_);fill:#2AA449;}
</style>
<g>
	<path class="st0" d="M304.87,261.82c-11.04,0-20.02-8.88-20.02-19.78V204h-134.2c-8.25,0-14.98,6.62-14.98,14.75v248.47
		c0,8.13,6.72,14.75,14.98,14.75H284.6c-0.66-3.88-0.99-7.79-0.99-11.68c0-8.42,1.57-16.51,4.34-24.06H173.22
		c-3.69,0-6.68-2.96-6.68-6.62c0-3.66,2.99-6.62,6.68-6.62h121.15c11.61-18.64,31.55-31.89,54.62-34.43V261.82H304.87z
		 M316.69,399.27H173.22c-3.69,0-6.68-2.96-6.68-6.62c0-3.66,2.99-6.62,6.68-6.62h143.47c3.69,0,6.68,2.96,6.68,6.62
		C323.37,396.31,320.38,399.27,316.69,399.27L316.69,399.27z M316.69,352.32H173.22c-3.69,0-6.68-2.96-6.68-6.62
		c0-3.66,2.99-6.62,6.68-6.62h143.47c3.69,0,6.68,2.96,6.68,6.62C323.37,349.35,320.38,352.32,316.69,352.32L316.69,352.32z
		 M316.69,305.36H173.22c-3.69,0-6.68-2.96-6.68-6.62c0-3.66,2.99-6.62,6.68-6.62h143.47c3.69,0,6.68,2.96,6.68,6.62
		C323.37,302.39,320.38,305.36,316.69,305.36L316.69,305.36z M316.69,305.36"/>
	<g>
		<defs>
			<rect id="SVGID_1_" x="135" y="204" width="342" height="384"/>
		</defs>
		<clipPath id="SVGID_2_">
			<use xlink:href="#SVGID_1_"  style="overflow:visible;"/>
		</clipPath>
		<path class="st1" d="M304.87,248.59h33.47l-40.14-36.22v29.68C298.21,245.65,301.2,248.59,304.87,248.59L304.87,248.59z
			 M304.87,248.59"/>
		<path class="st1" d="M397.97,530.35L452.58,584c5.42,5.33,14.25,5.33,19.69,0c2.61-2.57,4.05-5.97,4.05-9.58
			c0-3.61-1.44-7.01-4.05-9.57c0,0,0,0,0,0l-54.57-53.61C412.42,518.75,405.69,525.27,397.97,530.35L397.97,530.35z M397.97,530.35"
			/>
	</g>
	<path class="st0" d="M357.15,411.3c-33.18,0-60.17,26.47-60.17,59c0,32.54,26.99,59,60.17,59c33.18,0,60.18-26.47,60.18-59
		C417.33,437.77,390.33,411.3,357.15,411.3L357.15,411.3z M339.09,464.2l-18.55,9.22l18.55,9.22v9.82l-31.2-15.93v-6.23l31.2-15.93
		V464.2z M353.13,492.96h-9.49l17.6-45.32h9.55L353.13,492.96z M405.96,476.82l-30.75,15.63v-9.82l18.69-9.21l-18.69-9.21v-9.82
		l31.2,15.86v6.34L405.96,476.82z M405.96,476.82"/>
</g>
</svg>
