<?xml version="1.0" encoding="utf-8"?>
<!-- Generator: Adobe Illustrator 22.1.0, SVG Export Plug-In . SVG Version: 6.00 Build 0)  -->
<svg version="1.1" id="Layer_1" xmlns="http://www.w3.org/2000/svg" xmlns:xlink="http://www.w3.org/1999/xlink" x="0px" y="0px"
	 viewBox="0 0 1000 1000" style="enable-background:new 0 0 1000 1000;" xml:space="preserve">
<style type="text/css">
	.st0{fill:#F1A42B;}
	.st1{fill:#FDCB26;}
</style>
<g>
	<path class="st0" d="M904.9,277.1v103.1c0,30.7-24.8,55.9-55.2,55.9h-702c-30.3,0-55.2-25.1-55.2-55.9V197.7
		c0-30.7,24.8-55.9,55.2-55.9H431c17.7,0.5,35.2,8,50.2,39.6c0,0,14.1,39.9,51.6,39.8h317C880.1,221.2,904.9,246.3,904.9,277.1z"/>
	<path class="st1" d="M814.9,858.2H183c-49.8,0-81.5-31.1-90.5-77.8L3.7,430.8C-3,392.3,30.3,380,62.8,380h873.7
		c32.5,0,64.6,14.5,59.1,50.8l-90.2,349.6C889.1,827.2,864.7,858.2,814.9,858.2z"/>
</g>
</svg>
