<?xml version="1.0" encoding="utf-8"?>
<!-- Generator: Adobe Illustrator 22.1.0, SVG Export Plug-In . SVG Version: 6.00 Build 0)  -->
<svg version="1.1" id="Layer_1" xmlns="http://www.w3.org/2000/svg" xmlns:xlink="http://www.w3.org/1999/xlink" x="0px" y="0px"
	 viewBox="0 0 1000 1000" style="enable-background:new 0 0 1000 1000;" xml:space="preserve">
<style type="text/css">
	.st0{fill:#F1A42B;}
	.st1{fill:#FDCB26;}
</style>
<g>
	<path class="st0" d="M894.9,315.8V364c0,30.7-24.8,55.9-55.1,55.9H148.1c-30.3,0-55.1-25.1-55.1-55.9V236.4
		c0-30.7,24.8-55.9,55.1-55.9h283.3c17.7,0.5,35.2,8,50.2,39.6c0,0,14.1,39.9,51.6,39.8h306.7C870.1,259.9,894.9,285,894.9,315.8z"
		/>
	<path class="st1" d="M851.3,819.5h-704c-29.9,0-54.4-24.5-54.4-54.4V295.4c0-19.5,16-35.5,35.5-35.5h741.7
		c19.5,0,35.5,16,35.5,35.5v469.7C905.6,795,881.2,819.5,851.3,819.5z"/>
</g>
</svg>
