<?xml version="1.0" encoding="utf-8"?>
<!-- Generator: Adobe Illustrator 22.0.1, SVG Export Plug-In . SVG Version: 6.00 Build 0)  -->
<svg version="1.1" id="bottom" xmlns="http://www.w3.org/2000/svg" xmlns:xlink="http://www.w3.org/1999/xlink" x="0px" y="0px"
	 viewBox="0 0 1280 720" style="enable-background:new 0 0 1280 720;" xml:space="preserve">
<style type="text/css">
	.st0{fill:#06D6A0;}
	.st1{opacity:0.7;fill:url(#SVGID_1_);enable-background:new    ;}
	.st2{opacity:0.5;fill:#FDCB26;enable-background:new    ;}
	.st3{opacity:0.8;fill:#06D6A0;}
	.st4{opacity:0.8;fill:url(#SVGID_2_);enable-background:new    ;}
	.st5{display:none;opacity:0.5;fill:#FDCB26;enable-background:new    ;}
</style>
<polygon class="st0" points="1138.7,632.1 1163.1,670 1142.4,710.1 1097.3,712.3 1072.9,674.4 1093.6,634.2 "/>
<linearGradient id="SVGID_1_" gradientUnits="userSpaceOnUse" x1="616.7185" y1="105.1411" x2="923.1756" y2="-16.0796" gradientTransform="matrix(1 0 0 -1 0 720)">
	<stop  offset="0" style="stop-color:#4949B7"/>
	<stop  offset="1" style="stop-color:#95B4D8"/>
</linearGradient>
<polygon class="st1" points="938.9,720.1 942.8,679.2 778.1,561.5 593.8,645.2 586.5,720.1 "/>
<polygon class="st2" points="470.6,517.2 360,636 385.7,720 665.9,720 676.3,708.8 628.8,553.6 "/>
<polygon class="st2" points="12.3,427.6 0,456.2 0,720 424.2,720 466,623.3 295.6,394.5 "/>
<polygon class="st3" points="601,577.2 641,639.4 607.1,705.1 533.2,708.7 493.2,646.5 527.1,580.7 "/>
<linearGradient id="SVGID_2_" gradientUnits="userSpaceOnUse" x1="15.581" y1="169.5013" x2="392.6351" y2="20.3554" gradientTransform="matrix(1 0 0 -1 0 720)">
	<stop  offset="0" style="stop-color:#4949B7"/>
	<stop  offset="1" style="stop-color:#95B4D8"/>
</linearGradient>
<polygon class="st4" points="369.9,519.7 158.4,431.9 1.5,552.1 1.5,720 396.1,720 "/>
<polygon class="st5" points="1280,546.9 1260.8,517.7 1098.8,527.4 1026.1,672.5 1057.4,720 1280,720 "/>
<polygon class="st2" points="1048.6,556.2 835,541.3 715.3,718.9 715.9,720 1128.6,720 "/>
</svg>
