<?xml version="1.0" encoding="utf-8"?>
<!-- Generator: Adobe Illustrator 22.0.1, SVG Export Plug-In . SVG Version: 6.00 Build 0)  -->
<svg version="1.1" id="top" xmlns="http://www.w3.org/2000/svg" xmlns:xlink="http://www.w3.org/1999/xlink" x="0px" y="0px"
	 viewBox="0 0 1280 720" style="enable-background:new 0 0 1280 720;" xml:space="preserve">
<style type="text/css">
	.st0{opacity:0.8;fill:#95B4D8;}
	.st1{opacity:0.5;fill:#FDCB26;enable-background:new    ;}
	.st2{opacity:0.8;fill:#06D6A0;}
	.st3{opacity:0.75;fill:#4949B7;}
	.st4{opacity:0.5;fill:#95B4D8;}
	.st5{opacity:0.5;fill:#FDCB26;}
	.st6{opacity:0.5;fill:#06D6A0;}
</style>
<polygon class="st0" points="1010.6,441.9 1048.3,457.6 1053.6,498 1021.2,522.8 983.5,507.2 978.2,466.7 "/>
<polygon class="st1" points="1280,0 913.1,0 850.7,108.1 979.7,331.6 1237.8,331.6 1280,258.5 "/>
<polygon class="st2" points="1280,481.5 1207.5,441.8 1114.6,498.4 1117,607.1 1212.4,659.4 1280,618.3 "/>
<polygon class="st1" points="1280,246.7 1253.4,159.3 1107.9,125.6 1006,234.7 1049.5,377.5 1195,411.2 1280,320.2 "/>
<polygon class="st3" points="524.2,0 515,20.8 616,159.4 786.6,141.3 849.3,0 "/>
<polygon class="st4" points="1163.2,351 1219,374.2 1226.9,434.1 1178.9,470.8 1123,447.7 1115.2,387.7 "/>
<polygon class="st5" points="758.7,18.8 735.6,149.4 837.2,234.8 961.9,189.4 985,58.7 915,0 810.3,0 "/>
<polygon class="st6" points="1280,0 997.9,0 982.3,48.9 1098.6,176.6 1267.3,139.7 1280,99.8 "/>
</svg>
