<?xml version="1.0" encoding="utf-8"?>
<!-- Generator: Adobe Illustrator 23.1.0, SVG Export Plug-In . SVG Version: 6.00 Build 0)  -->
<svg version="1.1" id="Layer_1" xmlns="http://www.w3.org/2000/svg" xmlns:xlink="http://www.w3.org/1999/xlink" x="0px" y="0px"
	 viewBox="0 0 612 792" style="enable-background:new 0 0 612 792;" xml:space="preserve">
<style type="text/css">
	.st0{fill:#FFF;}
</style>
<g>
	<path class="st0" d="M293.07,391.2v8.27h38.4v-8.27H293.07z M329.07,397.07h-33.6v-3.46h33.6V397.07z M293.07,409.07h38.4v-8.27
		h-38.4V409.07z M295.47,403.2h33.6v3.47h-33.6V403.2z M293.07,418.6h38.4v-8.27h-38.4V418.6z M295.47,412.73h33.6v3.46h-33.6
		V412.73z M318.4,388.4h10.4V374H280v14.4H318.4z M318.4,376.4h8v9.6h-8V376.4z M282.4,386v-9.6H316v9.6H282.4z M319.93,380.04h5.25
		l-2.63,3.34L319.93,380.04z M319.93,380.04"/>
</g>
</svg>
