<?xml version="1.0" encoding="utf-8"?>
<!-- Generator: Adobe Illustrator 23.1.0, SVG Export Plug-In . SVG Version: 6.00 Build 0)  -->
<svg version="1.1" id="Layer_1" xmlns="http://www.w3.org/2000/svg" xmlns:xlink="http://www.w3.org/1999/xlink" x="0px" y="0px"
	 viewBox="0 0 612 792" style="enable-background:new 0 0 612 792;" xml:space="preserve">
<style type="text/css">
	.st0{fill:#488FCD;}
</style>
<g>
	<path class="st0" d="M341.29,401.12h-9.39v-3.93h-25.51v-5.27h9.39c0.71,0,1.28-0.57,1.28-1.28v-12.36c0-0.71-0.57-1.28-1.28-1.28
		H295.4c-0.7,0-1.28,0.57-1.28,1.28v12.36c0,0.7,0.57,1.28,1.28,1.28h9.39v5.27h-26v3.93h-8.51c-0.71,0-1.28,0.57-1.28,1.28v12.36
		c0,0.71,0.57,1.28,1.28,1.28h20.38c0.71,0,1.28-0.57,1.28-1.28V402.4c0-0.7-0.57-1.28-1.28-1.28h-10.27v-2.33h24.4v2.33h-9.39
		c-0.7,0-1.28,0.57-1.28,1.28v12.36c0,0.71,0.57,1.28,1.28,1.28h20.38c0.71,0,1.28-0.57,1.28-1.28V402.4c0-0.7-0.57-1.28-1.28-1.28
		h-9.39v-2.33h23.91v2.33h-9.39c-0.71,0-1.28,0.57-1.28,1.28v12.36c0,0.71,0.57,1.28,1.28,1.28h20.38c0.71,0,1.28-0.57,1.28-1.28
		V402.4C342.57,401.7,342,401.12,341.29,401.12L341.29,401.12z M295.45,390.6v-12.27h20.29v12.27H295.45z M290.62,402.45v12.27
		h-20.29v-12.27H290.62z M315.74,402.45v12.27h-20.29v-12.27H315.74z M341.25,402.45v12.27h-20.29v-12.27H341.25z M341.25,402.45"/>
</g>
</svg>
