<?xml version="1.0" encoding="utf-8"?>
<!-- Generator: Adobe Illustrator 23.1.0, SVG Export Plug-In . SVG Version: 6.00 Build 0)  -->
<svg version="1.1" id="Layer_1" xmlns="http://www.w3.org/2000/svg" xmlns:xlink="http://www.w3.org/1999/xlink" x="0px" y="0px"
	 viewBox="0 0 612 792" style="enable-background:new 0 0 612 792;" xml:space="preserve">
<style type="text/css">
	.st0{clip-path:url(#SVGID_2_);fill:#488FCD;stroke:#488FCD;stroke-miterlimit:10;}
</style>
<g>
	<g>
		<defs>
			<rect id="SVGID_1_" x="279" y="368" width="52.8" height="57"/>
		</defs>
		<clipPath id="SVGID_2_">
			<use xlink:href="#SVGID_1_"  style="overflow:visible;"/>
		</clipPath>
		<path class="st0" d="M331.98,369.38v53.27c0,0.76-0.62,1.38-1.38,1.38l-50.22,0.03c-0.76,0-1.38-0.62-1.38-1.38v-13.84
			c0-0.76,0.62-1.38,1.38-1.38h7.97c0.43,0,0.8,0.2,1.05,0.5v-7.71c0-0.76,0.62-1.38,1.38-1.38h7.96c0.77,0,1.38,0.62,1.38,1.38
			v-9.8c0-0.76,0.62-1.38,1.38-1.38h7.96c0.43,0,0.8,0.2,1.06,0.5v-7.7c0-0.76,0.62-1.38,1.38-1.38h7.96c0.76,0,1.38,0.61,1.38,1.38
			v-12.49c0-0.76,0.62-1.38,1.38-1.38h7.97C331.36,368,331.98,368.62,331.98,369.38L331.98,369.38z M331.98,369.38"/>
	</g>
</g>
</svg>
