<?xml version="1.0" encoding="utf-8"?>
<!-- Generator: Adobe Illustrator 22.1.0, SVG Export Plug-In . SVG Version: 6.00 Build 0)  -->
<svg version="1.1"
	 id="tv-logo" inkscape:export-filename="C:\subversion\projects\marketing\Logos\2017-01 taravault logo large with (R)_white background.png" inkscape:export-xdpi="90" inkscape:export-ydpi="90" inkscape:version="0.91 r13725" sodipodi:docname="taravault logo.svg" xmlns:cc="http://creativecommons.org/ns#" xmlns:dc="http://purl.org/dc/elements/1.1/" xmlns:inkscape="http://www.inkscape.org/namespaces/inkscape" xmlns:rdf="http://www.w3.org/1999/02/22-rdf-syntax-ns#" xmlns:sodipodi="http://sodipodi.sourceforge.net/DTD/sodipodi-0.dtd" xmlns:svg="http://www.w3.org/2000/svg"
	 xmlns="http://www.w3.org/2000/svg" xmlns:xlink="http://www.w3.org/1999/xlink" x="0px" y="0px" viewBox="0 0 934.8 378.4"
	 style="enable-background:new 0 0 934.8 378.4;" xml:space="preserve">
<style type="text/css">
	.st0{fill:#F1A42B;}
	.st1{fill:#FDCB26;}
	.st2{display:none;}
	.st3{display:inline;}
	.st4{font-family:'JosefinSans-LightItalic';}
	.st5{font-size:238.214px;}
	.st6{font-family:'JosefinSans';}
</style>
<g id="curves" transform="translate(-44.768921,-31.643301)" inkscape:groupmode="layer" inkscape:label="lines">
	<path id="path9046" inkscape:connector-curvature="0" class="st0" d="M430,123.9c-21-49.1-90.1-81.3-167.8-78.2
		c-71,2.9-133.2,34.8-156,79.8c34.8-30.7,92-50.4,153.6-52.9C329.7,69.8,394.9,89.5,430,123.9z"/>
	<path id="path9051" inkscape:connector-curvature="0" class="st1" d="M881.8,296.4c-24,49.3-105.5,82.2-197.8,79.9
		c-84.4-2.3-158.9-33.6-186.8-78.4c42,30.4,110.2,49.6,183.5,51.5C763.7,351.5,840.7,331.2,881.8,296.4z"/>
</g>
<g id="text" class="st2">
	<text transform="matrix(1 0 0 1 29.5167 244.2549)" class="st3 st4 st5">tara</text>
	<text transform="matrix(1 0 0 1 394.4564 244.2549)" class="st3 st6 st5">Vault</text>
</g>
<g id="outline">
	<path d="M61.2,111.6h8.3l-5.2,41.9h29.3l-1,7.4H63.3l-10,83.4H45l10.2-83.4H35l1-7.4h20.2L61.2,111.6z"/>
	<path d="M96.9,203.3c0-7.3,1.5-14.2,4.4-20.6c2.9-6.4,6.9-12.1,11.9-16.9c5-4.8,10.8-8.7,17.3-11.6c6.5-2.9,13.3-4.3,20.5-4.3
		c4.9,0,9.4,0.7,13.6,2c4.1,1.4,7.8,3.2,11,5.6c3.2,2.4,5.9,5.1,8.1,8.2c2.2,3.1,3.8,6.4,4.8,9.9c0.6-4,1.2-7.9,1.8-11.9
		c0.6-4,1.2-7.9,2-11.7h7.4l-11.4,92.2h-8.1l1.4-11.4c0.3-2.1,0.6-4.1,0.8-6.1c0.2-2,0.4-4,0.6-6.1c-3.7,7-9.3,12.9-17,17.9
		c-7.7,4.9-16.6,7.4-26.6,7.4c-6.2,0-11.9-1.1-17.2-3.3c-5.2-2.2-9.7-5.2-13.5-9.1c-3.7-3.8-6.6-8.3-8.7-13.5
		C98,214.9,96.9,209.3,96.9,203.3z M105.3,202.1c0,5.1,0.9,9.8,2.6,14.1c1.7,4.3,4.2,8.1,7.3,11.3c3.1,3.3,6.8,5.8,11.2,7.6
		c4.4,1.8,9.1,2.7,14.2,2.7c6,0,11.8-1.2,17.3-3.5c5.5-2.3,10.3-5.5,14.4-9.5c4.1-4,7.4-8.7,9.9-13.9c2.5-5.2,3.7-10.9,3.7-16.9
		c0-5.1-0.9-9.8-2.6-14.2c-1.7-4.4-4.2-8.2-7.4-11.4c-3.2-3.3-6.9-5.8-11.2-7.6c-4.3-1.8-9.1-2.7-14.3-2.7c-6,0-11.8,1.2-17.3,3.5
		c-5.5,2.3-10.3,5.5-14.4,9.5c-4.1,4-7.4,8.7-9.8,14.1C106.5,190.4,105.3,196.1,105.3,202.1z"/>
	<path d="M277.3,159.9c-5.1,0.2-10,1-14.8,2.6c-4.8,1.6-9.1,3.9-12.9,6.8c-3.8,2.9-7,6.4-9.5,10.5c-2.5,4-4,8.5-4.5,13.5l-6.4,51
		H221l11.4-92.2h6.7c0,0.6-0.1,2.1-0.4,4.5c-0.2,2.4-0.5,4.9-0.7,7.6c-0.2,2.7-0.5,5.2-0.7,7.5c-0.2,2.3-0.4,3.7-0.4,4.2
		c4.6-7.9,10.8-14.2,18.7-18.7c7.9-4.5,15.8-6.9,23.9-7L277.3,159.9z"/>
	<path d="M278.9,203.3c0-7.3,1.5-14.2,4.4-20.6c2.9-6.4,6.9-12.1,11.9-16.9c5-4.8,10.8-8.7,17.3-11.6c6.5-2.9,13.3-4.3,20.5-4.3
		c4.9,0,9.4,0.7,13.6,2c4.1,1.4,7.8,3.2,11,5.6c3.2,2.4,5.9,5.1,8.1,8.2c2.2,3.1,3.8,6.4,4.8,9.9c0.6-4,1.2-7.9,1.8-11.9
		c0.6-4,1.2-7.9,2-11.7h7.4l-11.4,92.2h-8.1l1.4-11.4c0.3-2.1,0.6-4.1,0.8-6.1c0.2-2,0.4-4,0.6-6.1c-3.7,7-9.3,12.9-17,17.9
		c-7.7,4.9-16.6,7.4-26.6,7.4c-6.2,0-11.9-1.1-17.2-3.3c-5.2-2.2-9.7-5.2-13.5-9.1c-3.7-3.8-6.6-8.3-8.7-13.5
		C280,214.9,278.9,209.3,278.9,203.3z M287.3,202.1c0,5.1,0.9,9.8,2.6,14.1c1.7,4.3,4.2,8.1,7.3,11.3c3.1,3.3,6.8,5.8,11.2,7.6
		c4.4,1.8,9.1,2.7,14.2,2.7c6,0,11.8-1.2,17.3-3.5c5.5-2.3,10.3-5.5,14.4-9.5c4.1-4,7.4-8.7,9.9-13.9c2.5-5.2,3.7-10.9,3.7-16.9
		c0-5.1-0.9-9.8-2.6-14.2c-1.7-4.4-4.2-8.2-7.4-11.4c-3.2-3.3-6.9-5.8-11.2-7.6c-4.3-1.8-9.1-2.7-14.3-2.7c-6,0-11.8,1.2-17.3,3.5
		c-5.5,2.3-10.3,5.5-14.4,9.5c-4.1,4-7.4,8.7-9.8,14.1C288.5,190.4,287.3,196.1,287.3,202.1z"/>
	<path d="M427.1,74.2c1.6,5.4,3.4,11.8,5.5,19.1c2.1,7.3,4.2,15.1,6.6,23.3c2.3,8.3,4.6,16.8,7,25.6c2.4,8.8,4.7,17.4,7,25.6
		c2.3,8.3,4.5,16,6.6,23.3c2.1,7.3,3.9,13.7,5.5,19.1l1.4,7.6l3.3-7.6c2.9-5.4,6.2-11.8,10.1-19.1c3.9-7.3,8-15.1,12.3-23.3
		c4.3-8.3,8.7-16.8,13.2-25.6c4.5-8.8,9-17.3,13.3-25.6c4.4-8.3,8.5-16,12.3-23.3c3.8-7.3,7.2-13.7,10.2-19.1h16.4
		c-3.2,5.9-7.3,13.5-12.4,22.9c-5.1,9.4-10.6,19.7-16.7,31c-6,11.3-12.3,23-18.7,35.1c-6.4,12.1-12.7,23.8-18.7,35
		c-6,11.2-11.6,21.5-16.7,31c-5.1,9.5-9.2,17.1-12.4,23c-1.7-5.9-4-13.5-6.7-23c-2.7-9.4-5.7-19.8-8.9-31
		c-3.3-11.2-6.6-22.9-10.1-35c-3.5-12.1-6.9-23.9-10.1-35.1c-3.3-11.3-6.2-21.6-8.9-31c-2.7-9.4-4.9-17-6.7-22.9H427.1z"/>
	<path d="M531,202.1c0-7.5,1.5-14.6,4.6-21.3c3.1-6.7,7.3-12.6,12.5-17.6c5.2-5,11.2-9,18-11.9c6.7-2.9,13.8-4.4,21.1-4.4
		c4.8,0,9.1,0.6,13.1,1.9c4,1.3,7.5,3,10.5,5.1c3,2.1,5.5,4.5,7.4,7.1c1.9,2.6,3.3,5.2,4,7.7l3.3-19.8h12.1L626,244.3h-13.1l1.2-9.8
		c0.3-1.7,0.6-3.4,0.7-5c0.2-1.6,0.4-3.1,0.7-4.5c-1.4,2.7-3.4,5.3-6,7.7c-2.5,2.5-5.6,4.7-9.1,6.8c-3.5,2.1-7.4,3.7-11.7,4.9
		c-4.3,1.2-8.9,1.8-13.8,1.8c-6.7,0-12.7-1.2-18.1-3.5c-5.4-2.3-10-5.4-13.8-9.4c-3.8-4-6.8-8.7-8.9-14.1
		C532,213.8,531,208.1,531,202.1z M544.1,200.2c0,4.8,0.8,9.1,2.4,13.1c1.6,4,3.8,7.5,6.8,10.5c2.9,3,6.4,5.4,10.5,7
		c4,1.7,8.5,2.5,13.5,2.5c5.7,0,11.1-1.1,16.2-3.2c5.1-2.1,9.5-5,13.3-8.7c3.8-3.7,6.8-8,9.1-13c2.2-5,3.3-10.3,3.3-15.8
		c0-4.6-0.8-8.9-2.4-13c-1.6-4-3.8-7.5-6.7-10.5c-2.9-2.9-6.3-5.2-10.4-6.9c-4-1.7-8.5-2.5-13.5-2.5c-5.7,0-11.1,1-16.2,3.1
		c-5.1,2.1-9.5,4.9-13.3,8.6c-3.8,3.7-6.9,7.9-9.2,12.9C545.2,189.1,544.1,194.5,544.1,200.2z"/>
	<path d="M740.1,245.4h-11l1.9-25.7c-4.3,7.9-10.2,14.4-17.6,19.3c-7.5,4.9-16,7.4-25.7,7.4c-9.4,0-16.5-2.6-21.3-7.9
		c-4.8-5.2-6.9-12.1-6.1-20.7l8.3-68.8h13.1l-7.9,64.3c-0.3,5.4,1,10,4,13.8c3,3.8,8,5.9,15,6.2c4.9,0,9.6-0.8,14.2-2.5
		c4.5-1.7,8.6-4,12.1-6.9c3.6-2.9,6.6-6.5,8.9-10.6c2.4-4.1,3.9-8.7,4.5-13.6l6.2-50.7H752L740.1,245.4z"/>
	<path d="M785.6,244.3h-13.1l22.4-182.5H808L785.6,244.3z"/>
	<path d="M842.1,107.3h13.1l-5.2,42.6h28.3l-1.4,11.9h-28.3l-10,82.4h-13.1l10-82.4h-19.1l1.4-11.9h19.1L842.1,107.3z"/>
</g>
</svg>
