<svg xmlns="http://www.w3.org/2000/svg" viewBox="0 0 360 415"><defs><style>.a{fill:#fdcb26;}.b{fill:#f1a42b;}.c{fill:#f08231;}</style></defs><title>Asset 1spirateam</title><polygon class="a" points="180 125 0 229 0 250 76 294 180 354 289 290 360 250 360 229 180 125"/><polyline class="b" points="180 415 360 312 360 229 289 269 180 333"/><polyline class="c" points="180 333 76 273 0 229 0 312 180 415"/><polygon class="a" points="180 0 0 104 0 125 76 169 180 229 289 165 360 125 360 104 180 0"/><polyline class="b" points="180 290 360 187 360 104 289 144 180 208"/><polyline class="c" points="180 208 76 148 0 104 0 187 180 290"/></svg>