<svg xmlns="http://www.w3.org/2000/svg" viewBox="0 0 609 703"><defs><style>.a{fill:#9ea9d8;}.b{fill:#f08321;}.c{fill:#fdcb26;}.d{fill:#f1a42b;}.e{fill:#ffdcac;}</style></defs><title>Asset 2spiratest</title><polygon class="a" points="304 0 0 176 0 527 304 703 609 527 609 176 304 0"/><polygon class="b" points="304 0 203 176 203 176 0 176 152 88 152 88 304 0"/><polygon class="c" points="304 352 203 176 0 176 0 176 101 352 304 352"/><polygon class="b" points="304 352 101 352 0 527 0 527 203 527 304 352"/><polygon class="d" points="304 352 203 527 304 703 305 703 406 527 304 352"/><polygon class="c" points="304 352 406 527 609 527 609 527 507 352 304 352"/><polygon class="b" points="457 615 609 527 406 527 457 615"/><polygon class="b" points="304 352 507 352 609 176 609 176 406 176 304 352"/><polygon class="d" points="304 352 406 176 304 0 304 0 203 176 304 352"/><polygon class="c" points="457 88 406 176 304 0 457 88"/><polygon class="c" points="609 176 406 176 457 88 609 176"/><polygon class="d" points="609 352 507 352 609 176 609 352"/><polygon class="d" points="609 352 609 527 507 352 609 352"/><polygon class="e" points="203 527 203 527 203 527 203 527"/><polygon class="c" points="304 703 152 615 152 615 0 527 203 527 203 527 304 703"/><polygon class="e" points="203 527 203 527 203 527 203 527"/><polygon class="b" points="457 615 305 703 406 528 457 615"/><polygon class="d" points="102 352 101 352 0 527 0 352 0 352 0 176 102 352"/></svg>