<?xml version="1.0" encoding="utf-8"?>
<!-- Generator: Adobe Illustrator 24.0.1, SVG Export Plug-In . SVG Version: 6.00 Build 0)  -->
<svg version="1.1" id="Layer_1" xmlns="http://www.w3.org/2000/svg" xmlns:xlink="http://www.w3.org/1999/xlink" x="0px" y="0px"
	 viewBox="0 0 512 512" style="enable-background:new 0 0 512 512;" xml:space="preserve">
<style type="text/css">
	.st0{fill:#939598;}
	.st1{fill:#7686E5;}
	.st2{fill:#95B4D8;}
	.st3{fill:#FDCB26;}
	.st4{fill:#00A14B;}
	.st5{fill:#4949B7;}
	.st6{fill:#6FB88E;}
</style>
<g>
	<polygon class="st0" points="103.7,373.6 115.7,388.7 186.8,332.5 174.9,317.4 	"/>
	<polygon class="st0" points="114.3,125.9 101.5,140.3 178.3,209.1 191.2,194.7 	"/>
	<polygon class="st0" points="328.3,395.2 344.5,384.7 315.9,340.5 299.8,351 	"/>
	<path class="st1" d="M313.8,429.5c0,26.6,21.6,48.2,48.2,48.2c26.6,0,48.2-21.6,48.2-48.2s-21.6-48.2-48.2-48.2
		c-6.2,0-12.1,1.3-17.5,3.4l-16.2,10.4C319.4,403.9,313.8,416.1,313.8,429.5z"/>
	<path class="st2" d="M72.8,362c-26.6,0-48.2,21.6-48.2,48.2s21.6,48.2,48.2,48.2c26.6,0,48.2-21.6,48.2-48.2c0-7.8-2-15-5.3-21.6
		l-12-15.1C95.4,366.5,84.7,362,72.8,362z"/>
	<path class="st3" d="M121,101.8c0-26.6-21.6-48.2-48.2-48.2c-26.6,0-48.2,21.6-48.2,48.2S46.3,150,72.8,150
		c10.8,0,20.6-3.7,28.6-9.6l12.8-14.4C118.5,118.8,121,110.6,121,101.8z"/>
	<polygon class="st0" points="351.9,261 350.9,280.3 391.7,282.4 392.7,263.2 	"/>
	<path class="st4" d="M439.2,227.1c-22.4,0-41.1,15.4-46.5,36.1l-1,19.2c3.5,23.2,23.3,41.1,47.5,41.1c26.6,0,48.2-21.6,48.2-48.2
		S465.7,227.1,439.2,227.1z"/>
	<path class="st5" d="M322.9,196.5l-15.2-11.9c-15-9.6-32.7-15.3-51.7-15.3c-25,0-47.6,9.8-64.8,25.5l-12.9,14.3
		c-11.6,15.9-18.7,35.4-18.7,56.6c0,19.1,5.7,36.7,15.3,51.7l11.9,15.2c17.5,18.1,42,29.5,69.2,29.5c15.8,0,30.6-4.2,43.8-11
		l16.2-10.5c18.4-14.8,31.2-35.9,35-60.2l1-19.2C350.7,235.8,340,213,322.9,196.5z"/>
	<polygon class="st0" points="379,125.4 363.9,113.4 307.7,184.6 322.9,196.5 	"/>
	<path class="st6" d="M400.6,130.7c26.6,0,48.2-21.6,48.2-48.2s-21.6-48.2-48.2-48.2c-26.6,0-48.2,21.6-48.2,48.2
		c0,11.8,4.4,22.5,11.5,30.9l15.1,12C385.5,128.7,392.8,130.7,400.6,130.7z"/>
</g>
</svg>
