<?xml version="1.0" encoding="utf-8"?>
<!-- Generator: Adobe Illustrator 24.0.1, SVG Export Plug-In . SVG Version: 6.00 Build 0)  -->
<svg version="1.1" id="Layer_1" xmlns="http://www.w3.org/2000/svg" xmlns:xlink="http://www.w3.org/1999/xlink" x="0px" y="0px"
	 viewBox="0 0 512 512" style="enable-background:new 0 0 512 512;" xml:space="preserve">
<style type="text/css">
	.st0{fill:url(#SVGID_1_);}
	.st1{fill:url(#SVGID_2_);}
	.st2{fill:url(#SVGID_3_);}
	.st3{fill:url(#SVGID_4_);}
	.st4{fill:url(#SVGID_5_);}
	.st5{fill:url(#SVGID_6_);}
	.st6{fill:url(#SVGID_7_);}
	.st7{fill:url(#SVGID_8_);}
	.st8{fill:url(#SVGID_9_);}
	.st9{fill:url(#SVGID_10_);}
	.st10{fill:url(#SVGID_11_);}
	.st11{fill:url(#SVGID_12_);}
	.st12{fill:url(#SVGID_13_);}
	.st13{fill:url(#SVGID_14_);}
	.st14{fill:url(#SVGID_15_);}
	.st15{fill:url(#SVGID_16_);}
	.st16{fill:url(#SVGID_17_);}
	.st17{fill:url(#SVGID_18_);}
	.st18{fill:url(#SVGID_19_);}
	.st19{fill:url(#SVGID_20_);}
	.st20{fill:url(#SVGID_21_);}
	.st21{fill:url(#SVGID_22_);}
	.st22{fill:url(#SVGID_23_);}
	.st23{fill:url(#SVGID_24_);}
	.st24{fill:url(#SVGID_25_);}
	.st25{fill:url(#SVGID_26_);}
	.st26{fill:url(#SVGID_27_);}
	.st27{fill:url(#SVGID_28_);}
	.st28{fill:url(#SVGID_29_);}
	.st29{fill:url(#SVGID_30_);}
	.st30{fill:url(#SVGID_31_);}
	.st31{fill:url(#SVGID_32_);}
	.st32{fill:url(#SVGID_33_);}
	.st33{fill:url(#SVGID_34_);}
	.st34{fill:url(#SVGID_35_);}
	.st35{fill:url(#SVGID_36_);}
	.st36{fill:url(#SVGID_37_);}
	.st37{fill:url(#SVGID_38_);}
	.st38{fill:url(#SVGID_39_);}
	.st39{fill:url(#SVGID_40_);}
	.st40{fill:url(#SVGID_41_);}
	.st41{fill:url(#SVGID_42_);}
	.st42{fill:url(#SVGID_43_);}
	.st43{fill:url(#SVGID_44_);}
	.st44{fill:url(#SVGID_45_);}
	.st45{fill:url(#SVGID_46_);}
	.st46{fill:url(#SVGID_47_);}
	.st47{fill:url(#SVGID_48_);}
	.st48{fill:url(#SVGID_49_);}
	.st49{fill:url(#SVGID_50_);}
	.st50{fill:url(#SVGID_51_);}
	.st51{fill:url(#SVGID_52_);}
	.st52{fill:url(#SVGID_53_);}
	.st53{fill:url(#SVGID_54_);}
	.st54{fill:url(#SVGID_55_);}
	.st55{fill:url(#SVGID_56_);}
	.st56{fill:url(#SVGID_57_);}
	.st57{fill:url(#SVGID_58_);}
	.st58{fill:url(#SVGID_59_);}
</style>
<g>
	<g>
		<linearGradient id="SVGID_1_" gradientUnits="userSpaceOnUse" x1="256.6049" y1="75.795" x2="256.6049" y2="578.7887">
			<stop  offset="0" style="stop-color:#8BF19F"/>
			<stop  offset="1" style="stop-color:#5A9EF6"/>
		</linearGradient>
		<path class="st0" d="M183.7,31.4c0.7,0,1.3-0.2,1.9-0.5c18.9-9.8,44.4-15,73.7-15c24.9,0,47.9,5,68.4,14.7c2.1,1,4.6,0.1,5.6-2
			c1-2.1,0.1-4.6-2-5.6c-21.6-10.3-45.9-15.6-72-15.6c-30.6,0-57.4,5.5-77.5,16c-2.1,1.1-2.9,3.6-1.8,5.7
			C180.7,30.6,182.2,31.4,183.7,31.4z"/>
		<linearGradient id="SVGID_2_" gradientUnits="userSpaceOnUse" x1="242.0982" y1="75.795" x2="242.0982" y2="578.7879">
			<stop  offset="0" style="stop-color:#8BF19F"/>
			<stop  offset="1" style="stop-color:#5A9EF6"/>
		</linearGradient>
		<path class="st1" d="M132.6,82.3c1,0,2.1-0.4,2.9-1.2c39.8-37.6,83.4-55.3,129.5-52.6c36.4,2.2,66,16.5,84.4,28.1
			c2,1.2,4.6,0.6,5.8-1.3c1.2-2,0.6-4.6-1.3-5.8c-19.3-12.1-50.3-27.1-88.4-29.3c-48.5-2.9-94.2,15.6-135.8,54.8
			c-1.7,1.6-1.8,4.3-0.2,6C130.3,81.9,131.4,82.3,132.6,82.3z"/>
		<linearGradient id="SVGID_3_" gradientUnits="userSpaceOnUse" x1="288.9727" y1="75.795" x2="288.9727" y2="578.7883">
			<stop  offset="0" style="stop-color:#8BF19F"/>
			<stop  offset="1" style="stop-color:#5A9EF6"/>
		</linearGradient>
		<path class="st2" d="M294.8,37.3c-38.8-9.5-78.4-4.2-111.6,14.9c-2,1.2-2.7,3.7-1.6,5.8c1.2,2,3.7,2.7,5.8,1.6
			c31.3-18,68.7-23,105.4-14c37.4,9.1,69.7,32,91,64.3c1.8,2.8,3.6,5.7,5.3,8.6c0.8,1.4,2.2,2.1,3.7,2.1c0.7,0,1.4-0.2,2.1-0.6
			c2-1.2,2.7-3.7,1.6-5.8c-1.7-3-3.6-6.1-5.5-9C368.4,71,334.3,46.9,294.8,37.3z"/>
		<linearGradient id="SVGID_4_" gradientUnits="userSpaceOnUse" x1="400.1057" y1="75.795" x2="400.1057" y2="578.7886">
			<stop  offset="0" style="stop-color:#8BF19F"/>
			<stop  offset="1" style="stop-color:#5A9EF6"/>
		</linearGradient>
		<path class="st3" d="M417.1,323.6c-16.9-7-25.2-12.7-27.5-18.9c-2.8-7.3,2.5-17.9,10.3-33.8c1.6-3.3,3.3-6.6,5-10.3
			c7.4-15.3,12.1-35.8,13-56.1c1.2-26.2-3.8-52.4-14.4-76c-1-2.1-3.5-3.1-5.6-2.1c-2.1,1-3.1,3.5-2.1,5.6
			c10.2,22.7,14.8,46.9,13.6,72.1c-0.9,19.3-5.3,38.5-12.2,52.9c-1.7,3.6-3.4,7-5,10.2c-8.8,17.9-14.7,29.8-10.7,40.5
			c3.3,8.7,12.6,15.6,32.1,23.7c0.5,0.2,1.1,0.3,1.6,0.3c1.7,0,3.2-1,3.9-2.6C420.3,327,419.3,324.5,417.1,323.6z"/>
		<linearGradient id="SVGID_5_" gradientUnits="userSpaceOnUse" x1="160.9257" y1="75.795" x2="160.9257" y2="578.7875">
			<stop  offset="0" style="stop-color:#8BF19F"/>
			<stop  offset="1" style="stop-color:#5A9EF6"/>
		</linearGradient>
		<path class="st4" d="M96.5,186.1c1,0,2.1-0.4,2.9-1.1c9.2-8.6,16.4-21.7,24.7-36.9c15.6-28.6,35-64.1,77.4-81
			c8.3-3.3,16.6-5.9,24.9-7.8c2.3-0.5,3.7-2.8,3.2-5c-0.5-2.3-2.8-3.7-5-3.2c-8.7,2-17.5,4.7-26.2,8.2c-45.2,18-65.4,55-81.7,84.8
			c-7.9,14.5-14.8,27.1-23,34.8c-1.7,1.6-1.8,4.3-0.2,6C94.2,185.7,95.3,186.1,96.5,186.1z"/>
		<linearGradient id="SVGID_6_" gradientUnits="userSpaceOnUse" x1="321.9417" y1="75.7951" x2="321.9417" y2="578.7891">
			<stop  offset="0" style="stop-color:#8BF19F"/>
			<stop  offset="1" style="stop-color:#5A9EF6"/>
		</linearGradient>
		<path class="st5" d="M387.8,257.5c0.5,0.2,1,0.3,1.5,0.3c1.7,0,3.3-1,3.9-2.7c4.9-12.5,13-38.1,11.8-68.6
			c-1.2-30.6-11.2-57.6-29.6-80.3c-17.1-21-37.3-36.7-59.9-46.7c-23-10.2-47.6-14-73.1-11.3c-2.3,0.2-4,2.3-3.8,4.6
			c0.2,2.3,2.3,4,4.6,3.8c47.9-5.1,92.5,14.4,125.6,54.9c17.3,21.2,26.6,46.6,27.8,75.3c1.1,29-6.5,53.3-11.2,65.2
			C384.6,254.2,385.7,256.6,387.8,257.5z"/>
		<linearGradient id="SVGID_7_" gradientUnits="userSpaceOnUse" x1="392.611" y1="75.7948" x2="392.611" y2="578.7882">
			<stop  offset="0" style="stop-color:#8BF19F"/>
			<stop  offset="1" style="stop-color:#5A9EF6"/>
		</linearGradient>
		<path class="st6" d="M415.9,337.6c-24.5-10.6-36-19.1-39.4-29.6c-3-8.9-0.1-20.5,9.1-36.4c0.2-0.4,0.5-0.8,0.7-1.2
			c1.1-2,0.4-4.6-1.6-5.7c-2-1.1-4.6-0.4-5.7,1.6c-0.2,0.4-0.4,0.8-0.6,1.1c-10.6,18.4-13.6,31.7-9.8,43.3c4.3,13,17.1,23,44.1,34.7
			c0.5,0.2,1.1,0.3,1.7,0.3c1.6,0,3.2-1,3.9-2.6C419,341,418,338.5,415.9,337.6z"/>
		<linearGradient id="SVGID_8_" gradientUnits="userSpaceOnUse" x1="108.0038" y1="75.7949" x2="108.0038" y2="578.7896">
			<stop  offset="0" style="stop-color:#8BF19F"/>
			<stop  offset="1" style="stop-color:#5A9EF6"/>
		</linearGradient>
		<path class="st7" d="M93.4,209.2c0.9,0,1.8-0.3,2.6-0.9c13.9-11,23.4-25.3,30.1-36.5c1.2-2,0.6-4.6-1.4-5.8
			c-2-1.2-4.6-0.6-5.8,1.4c-6.4,10.6-15.3,24.1-28.1,34.2c-1.8,1.4-2.1,4.1-0.7,5.9C91,208.7,92.2,209.2,93.4,209.2z"/>
		<linearGradient id="SVGID_9_" gradientUnits="userSpaceOnUse" x1="258.4682" y1="75.795" x2="258.4682" y2="578.7877">
			<stop  offset="0" style="stop-color:#8BF19F"/>
			<stop  offset="1" style="stop-color:#5A9EF6"/>
		</linearGradient>
		<path class="st8" d="M386.4,171.9c2.3-0.4,3.8-2.6,3.4-4.9c-3.7-19.4-12-37.3-24.6-53.1c-20.2-25.3-45.8-42.5-74-49.8
			c-28.4-7.3-59.5-4.4-89.9,8.3c-38.8,16.2-55.6,46.8-71.9,76.4l-1.9,3.4c-1.1,2-0.4,4.6,1.7,5.7c2,1.1,4.6,0.4,5.7-1.7l1.9-3.5
			c15.6-28.3,31.7-57.6,67.7-72.7c28.6-12,57.9-14.7,84.5-7.9c26.4,6.8,50.5,23,69.5,46.8c11.7,14.7,19.4,31.3,22.9,49.4
			c0.4,2,2.2,3.4,4.1,3.4C385.9,172,386.2,172,386.4,171.9z"/>
		<linearGradient id="SVGID_10_" gradientUnits="userSpaceOnUse" x1="371.7694" y1="75.795" x2="371.7694" y2="578.788">
			<stop  offset="0" style="stop-color:#8BF19F"/>
			<stop  offset="1" style="stop-color:#5A9EF6"/>
		</linearGradient>
		<path class="st9" d="M385.6,234.9c5.1-17.6,7.2-35.1,6.2-51.8c-0.1-2.3-2.1-4.1-4.5-4c-2.3,0.1-4.1,2.1-4,4.5
			c2.6,41.9-16.6,77.3-22.5,87.2c-10.7,17.8-12.3,34.4-4.7,49.1c0.7,1.5,2.2,2.3,3.8,2.3c0.7,0,1.3-0.2,1.9-0.5
			c2.1-1.1,2.9-3.6,1.8-5.7c-6.2-12-4.7-25.7,4.4-40.9C373.2,266.8,380.3,252.9,385.6,234.9z"/>
		<linearGradient id="SVGID_11_" gradientUnits="userSpaceOnUse" x1="391.1247" y1="75.7947" x2="391.1247" y2="578.7878">
			<stop  offset="0" style="stop-color:#8BF19F"/>
			<stop  offset="1" style="stop-color:#5A9EF6"/>
		</linearGradient>
		<path class="st10" d="M413,350.3c-17.3-6.1-30.5-13.4-39.5-21.7c-1.7-1.6-4.4-1.5-6,0.2c-1.6,1.7-1.5,4.4,0.2,6
			c9.8,9.1,24.1,17,42.4,23.5c0.5,0.2,0.9,0.2,1.4,0.2c1.7,0,3.4-1.1,4-2.8C416.4,353.4,415.2,351,413,350.3z"/>
		<linearGradient id="SVGID_12_" gradientUnits="userSpaceOnUse" x1="213.3266" y1="75.7949" x2="213.3266" y2="578.7879">
			<stop  offset="0" style="stop-color:#8BF19F"/>
			<stop  offset="1" style="stop-color:#5A9EF6"/>
		</linearGradient>
		<path class="st11" d="M92.2,226.5c0.8,0,1.7-0.2,2.4-0.8c30-21,44.3-47.9,56.9-71.6c13.9-26.1,25.9-48.6,54.6-61.6
			c23.3-10.5,46-14.4,67.4-11.5c21.2,2.9,40.7,12.3,58,28c1.7,1.6,4.4,1.4,6-0.3c1.6-1.7,1.4-4.4-0.3-6
			C300,69,252.2,62.6,202.7,84.9c-31.3,14.1-44.6,39-58.6,65.3c-12.8,24-26,48.8-54.3,68.7c-1.9,1.3-2.4,4-1,5.9
			C89.6,225.9,90.9,226.5,92.2,226.5z"/>
		<linearGradient id="SVGID_13_" gradientUnits="userSpaceOnUse" x1="376.6014" y1="75.795" x2="376.6014" y2="578.7894">
			<stop  offset="0" style="stop-color:#8BF19F"/>
			<stop  offset="1" style="stop-color:#5A9EF6"/>
		</linearGradient>
		<path class="st12" d="M411.1,363.6c-32.2-10.8-52.5-25.9-60.1-44.7c-6.9-16.9-1.8-33.2,3.6-43.9c9.6-18.9,20.2-41.2,23.9-66.7
			c4.4-31-3-59.3-22-84.4c-2.7-3.6-5.6-7.1-8.5-10.3c-1.6-1.7-4.2-1.9-6-0.3c-1.7,1.6-1.9,4.2-0.3,6c2.8,3.1,5.5,6.4,8.1,9.8
			c17.8,23.5,24.5,49,20.3,78.1c-3.5,24.2-13.7,45.8-23,64.1c-9,17.6-10.3,35.2-3.9,50.9c8.7,21.2,30.6,37.8,65.3,49.5
			c0.4,0.1,0.9,0.2,1.3,0.2c1.8,0,3.4-1.1,4-2.9C414.5,366.8,413.3,364.4,411.1,363.6z"/>
		<linearGradient id="SVGID_14_" gradientUnits="userSpaceOnUse" x1="169.199" y1="75.7951" x2="169.199" y2="578.7883">
			<stop  offset="0" style="stop-color:#8BF19F"/>
			<stop  offset="1" style="stop-color:#5A9EF6"/>
		</linearGradient>
		<path class="st13" d="M90.7,244.5c0.8,0,1.6-0.2,2.3-0.7c36.2-23.3,51.6-52.9,65.2-79.1c12.5-23.9,23.2-44.6,47.1-56.6
			c14.4-7.2,28.8-11.6,42.8-13.2c2.3-0.3,4-2.3,3.7-4.7c-0.3-2.3-2.3-4-4.7-3.7c-15.1,1.6-30.4,6.4-45.7,14
			c-26.3,13.2-38.2,36-50.8,60.2c-13.7,26.4-28,53.7-62.3,75.9c-2,1.3-2.5,3.9-1.3,5.8C88,243.8,89.3,244.5,90.7,244.5z"/>
		<linearGradient id="SVGID_15_" gradientUnits="userSpaceOnUse" x1="313.681" y1="75.7951" x2="313.681" y2="578.7886">
			<stop  offset="0" style="stop-color:#8BF19F"/>
			<stop  offset="1" style="stop-color:#5A9EF6"/>
		</linearGradient>
		<path class="st14" d="M340.4,264.8c0.6,0.3,1.2,0.4,1.8,0.4c1.6,0,3.1-0.9,3.8-2.5c8.7-18.8,17.3-38.9,19.6-60.5
			c2.7-25.8-4.1-48.9-20.8-70.8c-21.3-27.7-48.6-43.4-79.2-45.3c-2.3-0.1-4.3,1.6-4.5,3.9c-0.1,2.3,1.6,4.3,3.9,4.5
			c28.4,1.8,53,15.9,73,42c15.4,20,21.6,41.2,19.1,64.7c-2.2,20.3-10.2,38.9-18.9,57.8C337.4,261.3,338.3,263.8,340.4,264.8z"/>
		<linearGradient id="SVGID_16_" gradientUnits="userSpaceOnUse" x1="367.5024" y1="75.7956" x2="367.5024" y2="578.7884">
			<stop  offset="0" style="stop-color:#8BF19F"/>
			<stop  offset="1" style="stop-color:#5A9EF6"/>
		</linearGradient>
		<path class="st15" d="M406.9,375.8c-36.6-14.2-59.8-32.2-68.8-53.4c-7.3-17.3-3.6-33.5,0.8-44c0.2-0.5,0.4-0.9,0.6-1.4
			c0.9-2.1,0-4.6-2.1-5.6c-2.1-0.9-4.6,0-5.6,2.1c-0.2,0.5-0.5,1-0.7,1.6c-7.2,17.3-7.5,34.8-0.8,50.6c10,23.4,34.7,42.9,73.5,58
			c0.5,0.2,1,0.3,1.5,0.3c1.7,0,3.3-1,3.9-2.7C410.1,379.1,409.1,376.6,406.9,375.8z"/>
		<linearGradient id="SVGID_17_" gradientUnits="userSpaceOnUse" x1="219.0264" y1="75.795" x2="219.0264" y2="578.7879">
			<stop  offset="0" style="stop-color:#8BF19F"/>
			<stop  offset="1" style="stop-color:#5A9EF6"/>
		</linearGradient>
		<path class="st16" d="M93,259.4c48.7-30.3,64.1-60.7,77.8-87.5c7.6-14.9,14.7-28.9,26.8-41c15.3-15.3,41.1-24.2,65.7-22.7
			c17.8,1.1,43.3,8,64,34.6c8.1,10.4,13.3,20.8,15.9,31.8c0.5,2.3,2.8,3.7,5.1,3.1c2.3-0.5,3.7-2.8,3.1-5.1
			c-2.8-12-8.7-23.8-17.5-35c-22.6-29.1-50.6-36.6-70.2-37.8c-26.9-1.7-55.3,8.2-72.2,25.1c-13.1,13.1-20.5,27.7-28.4,43.1
			c-13.2,25.9-28.1,55.2-74.7,84.2c-2,1.2-2.6,3.8-1.4,5.8c0.8,1.3,2.2,2,3.6,2C91.5,260.1,92.3,259.9,93,259.4z"/>
		<linearGradient id="SVGID_18_" gradientUnits="userSpaceOnUse" x1="333.1753" y1="75.795" x2="333.1753" y2="578.7883">
			<stop  offset="0" style="stop-color:#8BF19F"/>
			<stop  offset="1" style="stop-color:#5A9EF6"/>
		</linearGradient>
		<path class="st17" d="M335.6,253.8c8.4-18.8,17.9-40.2,17.9-62.9c0-2.3-1.9-4.2-4.2-4.2c0,0,0,0,0,0c-2.3,0-4.2,1.9-4.2,4.2
			c0,20.9-8.7,40.5-17.2,59.5c-4.4,10-8.6,19.4-11.4,28.6c-4.7,15.8-7.3,39.7,7.6,63.9c0.8,1.3,2.2,2,3.6,2c0.8,0,1.5-0.2,2.2-0.6
			c2-1.2,2.6-3.8,1.4-5.8c-13.2-21.5-11-42.9-6.7-57C327.2,272.6,331.3,263.5,335.6,253.8z"/>
		<linearGradient id="SVGID_19_" gradientUnits="userSpaceOnUse" x1="369.8723" y1="75.7951" x2="369.8723" y2="578.788">
			<stop  offset="0" style="stop-color:#8BF19F"/>
			<stop  offset="1" style="stop-color:#5A9EF6"/>
		</linearGradient>
		<path class="st18" d="M402.7,388c-26.9-9.7-47.5-21.9-61.2-36.4c-1.6-1.7-4.3-1.8-6-0.2c-1.7,1.6-1.8,4.3-0.2,6
			c14.6,15.4,36.3,28.4,64.5,38.5c0.5,0.2,1,0.2,1.4,0.2c1.7,0,3.4-1.1,4-2.8C406.1,391.2,404.9,388.8,402.7,388z"/>
		<linearGradient id="SVGID_20_" gradientUnits="userSpaceOnUse" x1="142.7058" y1="75.795" x2="142.7058" y2="578.7878">
			<stop  offset="0" style="stop-color:#8BF19F"/>
			<stop  offset="1" style="stop-color:#5A9EF6"/>
		</linearGradient>
		<path class="st19" d="M92.2,275.8c0.8,0,1.6-0.2,2.4-0.7c24.8-16.9,42.1-31.4,56-47c14.7-16.6,25.9-34.8,35.1-57.5
			c2.9-7.2,6.6-13.8,10.9-19.5c1.4-1.9,1-4.5-0.8-5.9c-1.9-1.4-4.5-1-5.9,0.8c-4.8,6.3-8.8,13.6-12,21.4
			c-8.8,21.7-19.5,39.2-33.6,55c-13.4,15.1-30.2,29.2-54.4,45.7c-1.9,1.3-2.4,3.9-1.1,5.9C89.5,275.1,90.9,275.8,92.2,275.8z"/>
		<linearGradient id="SVGID_21_" gradientUnits="userSpaceOnUse" x1="270.129" y1="75.795" x2="270.129" y2="578.7878">
			<stop  offset="0" style="stop-color:#8BF19F"/>
			<stop  offset="1" style="stop-color:#5A9EF6"/>
		</linearGradient>
		<path class="st20" d="M306.6,280.9c0.4,0.1,0.7,0.1,1,0.1c1.9,0,3.6-1.3,4.1-3.2c3.7-14.4,8-22.6,12.1-30.5
			c1.3-2.5,2.6-4.9,3.8-7.5c11-23,14.3-44.8,10-64.7c-3.8-17.7-13.6-33-28.3-44.3c-14.9-11.4-33.7-17.7-52.9-17.8
			c-20.1-0.1-39.3,6.8-54.1,19.5c-1.8,1.5-2,4.2-0.5,6c1.5,1.8,4.2,2,6,0.5c13.2-11.3,30.5-17.5,48.5-17.5
			c17.4,0.1,34.3,5.8,47.8,16.1c13.1,10,21.8,23.6,25.2,39.3c3.9,18.1,0.8,38.1-9.4,59.3c-1.2,2.4-2.4,4.8-3.7,7.2
			c-4.2,8-8.9,17-12.8,32.3C302.9,278,304.3,280.3,306.6,280.9z"/>
		<linearGradient id="SVGID_22_" gradientUnits="userSpaceOnUse" x1="137.0929" y1="75.7947" x2="137.0929" y2="578.7879">
			<stop  offset="0" style="stop-color:#8BF19F"/>
			<stop  offset="1" style="stop-color:#5A9EF6"/>
		</linearGradient>
		<path class="st21" d="M92.2,291.6c0.8,0,1.6-0.2,2.3-0.7c42.7-27,72.6-56.5,91.2-90.1c1.1-2,0.4-4.6-1.6-5.7
			c-2-1.1-4.6-0.4-5.7,1.6c-17.9,32.3-46.8,60.8-88.3,87c-2,1.2-2.6,3.9-1.3,5.8C89.4,290.9,90.8,291.6,92.2,291.6z"/>
		<linearGradient id="SVGID_23_" gradientUnits="userSpaceOnUse" x1="255.8156" y1="75.7951" x2="255.8156" y2="578.7874">
			<stop  offset="0" style="stop-color:#8BF19F"/>
			<stop  offset="1" style="stop-color:#5A9EF6"/>
		</linearGradient>
		<path class="st22" d="M326.2,195.2c0.3-13.7-3.3-26.8-10.4-38c-13.7-21.7-39.2-34.2-65-31.9c-27.7,2.5-50.8,21.5-63.3,52.1
			c-0.6,1.4-1.2,2.9-1.8,4.3c-0.9,2.1,0,4.6,2.2,5.6c2.1,0.9,4.6,0,5.6-2.2c0.7-1.5,1.3-3,1.9-4.5c6-14.7,14.3-26.3,24.8-34.4
			c9.2-7.2,20.1-11.5,31.4-12.5c22.6-2,45.1,9,57.1,28c7.8,12.4,17.7,38.7-4.2,75.9c-8.2,13.9-20.1,46.1-17.3,73.2
			c0.2,2.2,2.1,3.8,4.2,3.8c0.1,0,0.3,0,0.4,0c2.3-0.2,4-2.3,3.8-4.6c-2.6-25.2,8.6-55.1,16.2-68.1
			C321.1,226.1,325.9,210.4,326.2,195.2z"/>
		<linearGradient id="SVGID_24_" gradientUnits="userSpaceOnUse" x1="123.3447" y1="75.7952" x2="123.3447" y2="578.7886">
			<stop  offset="0" style="stop-color:#8BF19F"/>
			<stop  offset="1" style="stop-color:#5A9EF6"/>
		</linearGradient>
		<path class="st23" d="M95.3,304.1c21-10.3,41.5-25.3,60.9-44.7c1.7-1.6,1.7-4.3,0-6c-1.6-1.7-4.3-1.7-6,0
			c-18.8,18.7-38.5,33.2-58.7,43.1c-2.1,1-3,3.6-1.9,5.6c0.7,1.5,2.2,2.4,3.8,2.4C94.1,304.5,94.7,304.4,95.3,304.1z"/>
		<linearGradient id="SVGID_25_" gradientUnits="userSpaceOnUse" x1="233.6884" y1="75.7951" x2="233.6884" y2="578.7878">
			<stop  offset="0" style="stop-color:#8BF19F"/>
			<stop  offset="1" style="stop-color:#5A9EF6"/>
		</linearGradient>
		<path class="st24" d="M305.8,164.9c-11.1-18.1-31.9-28.7-52.8-27c-21.8,1.8-39.9,16.7-49.8,40.8c-7.5,18.5-22.9,41.8-41.2,62.3
			c-1.6,1.7-1.4,4.4,0.3,6c0.8,0.7,1.8,1.1,2.8,1.1c1.2,0,2.3-0.5,3.2-1.4c18.8-21.1,34.8-45.3,42.7-64.7
			c8.7-21.4,23.9-34.1,42.7-35.6c17.8-1.5,35.4,7.5,44.9,23c1.2,2,3.8,2.6,5.8,1.4C306.4,169.5,307,166.9,305.8,164.9z"/>
		<linearGradient id="SVGID_26_" gradientUnits="userSpaceOnUse" x1="270.8395" y1="75.795" x2="270.8395" y2="578.7885">
			<stop  offset="0" style="stop-color:#8BF19F"/>
			<stop  offset="1" style="stop-color:#5A9EF6"/>
		</linearGradient>
		<path class="st25" d="M293.7,231.9c-7.8,15.6-26,52.1-64.8,90.7c-1.7,1.6-1.7,4.3,0,6c0.8,0.8,1.9,1.2,3,1.2c1.1,0,2.2-0.4,3-1.2
			c39.8-39.6,58.4-77,66.4-93c1.2-2.4,2.2-4.3,2.9-5.6c8.7-15.8,11.8-31.9,8.9-46.7c-0.4-2.3-2.7-3.8-4.9-3.3
			c-2.3,0.4-3.8,2.7-3.3,4.9c2.5,12.8-0.3,27-8,41C295.9,227.5,294.9,229.4,293.7,231.9z"/>
		<linearGradient id="SVGID_27_" gradientUnits="userSpaceOnUse" x1="154.3927" y1="75.7951" x2="154.3927" y2="578.7878">
			<stop  offset="0" style="stop-color:#8BF19F"/>
			<stop  offset="1" style="stop-color:#5A9EF6"/>
		</linearGradient>
		<path class="st26" d="M95.6,318.8c0.6,0,1.2-0.1,1.8-0.4c27-12.7,52.4-31.9,75.7-57.3c23.3-25.5,37.5-49.6,43.9-61.8
			c1.1-2.1,0.3-4.6-1.8-5.7c-2.1-1.1-4.6-0.3-5.7,1.8c-20.7,39.2-62,90.2-115.7,115.4c-2.1,1-3,3.5-2,5.6
			C92.4,317.9,94,318.8,95.6,318.8z"/>
		<linearGradient id="SVGID_28_" gradientUnits="userSpaceOnUse" x1="205.3447" y1="75.795" x2="205.3447" y2="578.7878">
			<stop  offset="0" style="stop-color:#8BF19F"/>
			<stop  offset="1" style="stop-color:#5A9EF6"/>
		</linearGradient>
		<path class="st27" d="M247.9,294.5c27.7-34.6,41.3-65.2,46.5-76.7c8.5-19,7.9-36.5-1.5-49.3c-8.8-11.9-24.1-18.1-40.1-16.1
			c-16.5,2-29.6,12.1-36.1,27.7c-0.9,2.2,0.1,4.6,2.3,5.5c2.2,0.9,4.6-0.1,5.5-2.3c5.3-12.7,16-20.9,29.3-22.5
			c12.7-1.5,25.4,3.5,32.2,12.8c7.6,10.2,7.8,24.7,0.6,40.9C243,312.5,168,363.4,112.8,388.7c-2.1,1-3,3.5-2.1,5.6
			c0.7,1.5,2.2,2.5,3.8,2.5c0.6,0,1.2-0.1,1.8-0.4C168.8,372.3,213.1,338,247.9,294.5z"/>
		<linearGradient id="SVGID_29_" gradientUnits="userSpaceOnUse" x1="190.1575" y1="75.795" x2="190.1575" y2="578.7889">
			<stop  offset="0" style="stop-color:#8BF19F"/>
			<stop  offset="1" style="stop-color:#5A9EF6"/>
		</linearGradient>
		<path class="st28" d="M98.3,333.3c35-16.5,68.4-43.8,96.6-78.9c22.9-28.6,36.6-55.2,40.6-65.2c3.4-8.4,10.4-13.9,19.1-15.1
			c8.4-1.1,16.7,2.1,21.2,8.2c5,6.7,5.1,16.2,0.3,26.9c-2.8,6.2-28.5,62-80.8,110.6c-1.7,1.6-1.8,4.3-0.2,6c1.6,1.7,4.3,1.8,6,0.2
			c53.5-49.8,79.9-107,82.7-113.4c8.2-18.4,2.7-30.1-1.3-35.4c-6.4-8.6-17.6-13-29.1-11.5c-11.9,1.6-21.3,9-25.9,20.3
			c-3.9,9.6-17.1,35.2-39.4,63.1c-27.4,34.2-59.8,60.6-93.6,76.6c-2.1,1-3,3.5-2,5.6c0.7,1.5,2.2,2.4,3.8,2.4
			C97.1,333.7,97.7,333.6,98.3,333.3z"/>
		<linearGradient id="SVGID_30_" gradientUnits="userSpaceOnUse" x1="147.2996" y1="75.7949" x2="147.2996" y2="578.788">
			<stop  offset="0" style="stop-color:#8BF19F"/>
			<stop  offset="1" style="stop-color:#5A9EF6"/>
		</linearGradient>
		<path class="st29" d="M187.9,337.6c1.8-1.5,2-4.2,0.5-5.9c-1.5-1.8-4.2-2-5.9-0.5c-23.3,19.5-48.5,34.5-74.7,44.6
			c-2.2,0.8-3.3,3.3-2.4,5.5c0.6,1.7,2.2,2.7,3.9,2.7c0.5,0,1-0.1,1.5-0.3C138,373.2,163.9,357.7,187.9,337.6z"/>
		<linearGradient id="SVGID_31_" gradientUnits="userSpaceOnUse" x1="159.4521" y1="75.7945" x2="159.4521" y2="578.7882">
			<stop  offset="0" style="stop-color:#8BF19F"/>
			<stop  offset="1" style="stop-color:#5A9EF6"/>
		</linearGradient>
		<path class="st30" d="M101.5,345.4c60.8-27.3,99.5-72.3,121.2-105.3c1.3-1.9,0.7-4.6-1.2-5.8c-1.9-1.3-4.6-0.7-5.8,1.2
			c-21.1,32-58.6,75.8-117.6,102.2c-2.1,1-3.1,3.5-2.1,5.6c0.7,1.6,2.2,2.5,3.9,2.5C100.3,345.7,100.9,345.6,101.5,345.4z"/>
		<linearGradient id="SVGID_32_" gradientUnits="userSpaceOnUse" x1="188.1371" y1="75.7951" x2="188.1371" y2="578.7888">
			<stop  offset="0" style="stop-color:#8BF19F"/>
			<stop  offset="1" style="stop-color:#5A9EF6"/>
		</linearGradient>
		<path class="st31" d="M107.7,371.2c46.8-20,87.9-52.5,122.2-96.7c23-29.7,36.1-56,41.9-69l0.2-0.3c4.8-10.9,1.6-17.8-0.7-20.9
			c-3.6-4.8-9.7-7.2-16-6.4c-6.8,0.9-12.6,5.5-15.3,12.2c-1.7,4.2-6.6,15.7-15.4,30.8c-1.2,2-0.5,4.6,1.5,5.8c2,1.2,4.6,0.5,5.8-1.5
			c9-15.6,14.1-27.5,15.9-31.9c1.6-3.9,4.7-6.5,8.5-7c3.3-0.4,6.4,0.7,8.1,3.1c2.1,2.9,2,7.3-0.2,12.4l-0.2,0.4
			c-5.6,12.7-18.4,38.3-40.9,67.3c-33.4,43.1-73.4,74.7-118.8,94.1c-2.1,0.9-3.1,3.4-2.2,5.5c0.7,1.6,2.2,2.6,3.9,2.6
			C106.6,371.6,107.1,371.5,107.7,371.2z"/>
		<linearGradient id="SVGID_33_" gradientUnits="userSpaceOnUse" x1="349.9584" y1="75.7943" x2="349.9584" y2="578.7877">
			<stop  offset="0" style="stop-color:#8BF19F"/>
			<stop  offset="1" style="stop-color:#5A9EF6"/>
		</linearGradient>
		<path class="st32" d="M397.6,402c-39.2-19.1-66-33.3-79.9-56.6c-10-16.7-9.9-37.7-8.6-54.2c0.2-2.3-1.6-4.4-3.9-4.5
			c-2.3-0.2-4.4,1.6-4.5,3.9c-1.4,17.7-1.5,40.4,9.8,59.2c15.2,25.2,42.9,40.1,83.5,59.8c0.6,0.3,1.2,0.4,1.8,0.4
			c1.6,0,3.1-0.9,3.8-2.4C400.5,405.5,399.7,403,397.6,402z"/>
		<linearGradient id="SVGID_34_" gradientUnits="userSpaceOnUse" x1="372.1752" y1="75.795" x2="372.1752" y2="578.7891">
			<stop  offset="0" style="stop-color:#8BF19F"/>
			<stop  offset="1" style="stop-color:#5A9EF6"/>
		</linearGradient>
		<path class="st33" d="M359.3,64.4c7.2,5.6,13.9,12,19.9,19c0.8,1,2,1.5,3.2,1.5c1,0,1.9-0.3,2.7-1c1.8-1.5,2-4.2,0.5-6
			c-6.3-7.4-13.4-14.2-21.1-20.1c-1.8-1.4-4.5-1.1-5.9,0.7C357.2,60.3,357.5,63,359.3,64.4z"/>
		<linearGradient id="SVGID_35_" gradientUnits="userSpaceOnUse" x1="139.2564" y1="75.795" x2="139.2564" y2="578.7885">
			<stop  offset="0" style="stop-color:#8BF19F"/>
			<stop  offset="1" style="stop-color:#5A9EF6"/>
		</linearGradient>
		<path class="st34" d="M101.8,154.9c0.6,0.3,1.3,0.5,2,0.5c1.5,0,3-0.8,3.7-2.2c2.8-5.2,5.4-10.4,7.9-15.5
			c5.4-10.9,10.6-21.2,17.2-31c10.5-15.6,21.8-25.3,44.7-42.5c1.9-1.4,2.2-4,0.8-5.9c-1.4-1.9-4-2.2-5.9-0.8
			c-23.7,17.8-35.5,27.9-46.7,44.6c-6.9,10.2-12.1,20.8-17.7,31.9c-2.5,5-5.1,10.2-7.8,15.2C99,151.3,99.7,153.8,101.8,154.9z"/>
		<linearGradient id="SVGID_36_" gradientUnits="userSpaceOnUse" x1="408.8555" y1="75.795" x2="408.8555" y2="578.7883">
			<stop  offset="0" style="stop-color:#8BF19F"/>
			<stop  offset="1" style="stop-color:#5A9EF6"/>
		</linearGradient>
		<path class="st35" d="M392.8,296c-1.2,2-0.6,4.6,1.4,5.8c0.7,0.4,1.5,0.6,2.2,0.6c1.4,0,2.8-0.7,3.6-2
			c10.6-17.3,18-34.5,25.3-59.5c0.7-2.2-0.6-4.6-2.9-5.2c-2.2-0.7-4.6,0.6-5.2,2.9C410.1,262.8,403.1,279.4,392.8,296z"/>
		<linearGradient id="SVGID_37_" gradientUnits="userSpaceOnUse" x1="411.7573" y1="75.7946" x2="411.7573" y2="578.7881">
			<stop  offset="0" style="stop-color:#8BF19F"/>
			<stop  offset="1" style="stop-color:#5A9EF6"/>
		</linearGradient>
		<path class="st36" d="M418.7,283.2c-2.1-0.9-4.6,0.1-5.5,2.2c-3.1,7.2-4.9,10.7-8.9,17.3l-2,3.3l3.1,2.3c0.9,0.7,1.9,1.3,2.9,2
			c1.6,1,3.4,2.2,4.3,3.2c0.8,0.9,1.9,1.3,3.1,1.3c1,0,2.1-0.4,2.9-1.2c1.7-1.6,1.8-4.3,0.2-6c-1.4-1.5-3.4-2.8-5.2-4
			c2.9-4.9,4.8-8.6,7.4-14.9C421.8,286.6,420.8,284.1,418.7,283.2z"/>
		<linearGradient id="SVGID_38_" gradientUnits="userSpaceOnUse" x1="340.9401" y1="75.7954" x2="340.9401" y2="578.7886">
			<stop  offset="0" style="stop-color:#8BF19F"/>
			<stop  offset="1" style="stop-color:#5A9EF6"/>
		</linearGradient>
		<path class="st37" d="M390.9,412.1c-58.8-26.7-87.8-46.3-93.9-85.6c-0.4-2.3-2.5-3.9-4.8-3.5c-2.3,0.4-3.9,2.5-3.5,4.8
			c3.2,20.7,12.4,37.1,28.7,51.4c14.4,12.7,35.4,24.8,70.1,40.5c0.6,0.3,1.2,0.4,1.7,0.4c1.6,0,3.1-0.9,3.8-2.5
			C393.9,415.5,393,413,390.9,412.1z"/>
		<linearGradient id="SVGID_39_" gradientUnits="userSpaceOnUse" x1="179.6721" y1="75.7949" x2="179.6721" y2="578.7889">
			<stop  offset="0" style="stop-color:#8BF19F"/>
			<stop  offset="1" style="stop-color:#5A9EF6"/>
		</linearGradient>
		<path class="st38" d="M103.7,358.1c30.3-12.4,62.3-34.7,90.1-62.7c29.9-30.1,53.1-64.8,67.3-100.4c0.9-2.2-0.2-4.6-2.4-5.5
			c-2.2-0.9-4.6,0.2-5.5,2.4c-13.7,34.5-36.3,68.2-65.4,97.6c-27,27.2-58,48.8-87.3,60.8c-2.2,0.9-3.2,3.3-2.3,5.5
			c0.7,1.6,2.2,2.6,3.9,2.6C102.7,358.5,103.2,358.4,103.7,358.1z"/>
		<linearGradient id="SVGID_40_" gradientUnits="userSpaceOnUse" x1="203.0062" y1="75.7948" x2="203.0062" y2="578.7877">
			<stop  offset="0" style="stop-color:#8BF19F"/>
			<stop  offset="1" style="stop-color:#5A9EF6"/>
		</linearGradient>
		<path class="st39" d="M284.7,288.1c1.2-2,0.6-4.6-1.4-5.8c-2-1.2-4.6-0.6-5.8,1.4c-44.7,71.7-122.9,114.6-154.5,129.7
			c-2.1,1-3,3.5-2,5.6c0.7,1.5,2.2,2.4,3.8,2.4c0.6,0,1.2-0.1,1.8-0.4c30-14.4,59.3-32.6,84.7-52.8
			C242.3,343.6,267,316.6,284.7,288.1z"/>
		<linearGradient id="SVGID_41_" gradientUnits="userSpaceOnUse" x1="171.9863" y1="75.7948" x2="171.9863" y2="578.7883">
			<stop  offset="0" style="stop-color:#8BF19F"/>
			<stop  offset="1" style="stop-color:#5A9EF6"/>
		</linearGradient>
		<path class="st40" d="M227.2,337c1.6-1.7,1.6-4.3-0.1-6c-1.7-1.6-4.3-1.6-6,0.1c-34.4,35.2-75.4,56.9-103.2,70.2
			c-2.1,1-3,3.5-2,5.6c0.7,1.5,2.2,2.4,3.8,2.4c0.6,0,1.2-0.1,1.8-0.4C150,395.4,191.9,373.1,227.2,337z"/>
		<linearGradient id="SVGID_42_" gradientUnits="userSpaceOnUse" x1="261.006" y1="75.7951" x2="261.006" y2="578.7886">
			<stop  offset="0" style="stop-color:#8BF19F"/>
			<stop  offset="1" style="stop-color:#5A9EF6"/>
		</linearGradient>
		<path class="st41" d="M268.8,348.5c0.8,1.9,1.7,3.8,2.3,5.2c0.9,2.1,3.4,3.1,5.6,2.2c2.1-0.9,3.1-3.4,2.2-5.6
			c-0.7-1.5-1.6-3.6-2.5-5.6c-0.9-2.1-1.8-4.1-2.5-5.7c-0.6-1.3-1.8-2.3-3.3-2.5c-1.4-0.2-2.9,0.3-3.8,1.4
			c-4.7,5.5-8.5,9.3-12.5,13.3c-2.7,2.7-5.5,5.5-8.7,8.9c-1.2,1.3-1.5,3.2-0.6,4.8c0.8,1.6,2.6,2.5,4.3,2.2
			c12.2-1.7,28.8,0.2,45.7,5.1c0.4,0.1,0.8,0.2,1.2,0.2c1.4,0,2.7-0.7,3.5-1.8c1-1.5,1-3.5-0.2-5c-6.9-8.9-15.2-27.6-17.7-53.3
			c-0.2-1.7-1.3-3.1-2.9-3.6c-1.6-0.5-3.4,0-4.5,1.3c-2.4,2.9-4.8,5.7-7.2,8.5c-13.4,16-26,31.2-43.9,45.3c-1.8,1.4-2.1,4.1-0.7,5.9
			c1.4,1.8,4.1,2.1,5.9,0.7c18.6-14.7,31.5-30.2,45.2-46.5c0.3-0.4,0.7-0.8,1-1.2c0.9,5.4,2.3,12.1,4.4,19.2
			c2.2,7.4,4.8,13.9,7.8,19.5c-7.9-1.8-17.7-3.3-27.5-3.3c0.3-0.3,0.6-0.6,0.9-0.9C263,354.6,265.8,351.9,268.8,348.5z"/>
		<linearGradient id="SVGID_43_" gradientUnits="userSpaceOnUse" x1="209.6079" y1="75.795" x2="209.6079" y2="578.7885">
			<stop  offset="0" style="stop-color:#8BF19F"/>
			<stop  offset="1" style="stop-color:#5A9EF6"/>
		</linearGradient>
		<path class="st42" d="M180.4,406.6c24.8-16.3,46.9-26.4,80.2-26.4c0.1,0,0.3,0,0.4,0c8.2,0,16.2,1.1,24.5,3.3
			c2.3,0.6,4.6-0.7,5.2-3c0.6-2.3-0.7-4.6-3-5.2c-8.9-2.4-17.6-3.5-26.6-3.6c-25.7-0.1-50,4.6-85.3,27.8
			c-9.9,6.5-20.7,12.1-31.2,17.6c-4.6,2.4-9.3,4.8-13.9,7.3c-2,1.1-2.8,3.7-1.7,5.7c0.8,1.4,2.2,2.2,3.7,2.2c0.7,0,1.4-0.2,2-0.5
			c4.5-2.5,9.2-4.9,13.7-7.3C159.1,419.1,170.1,413.4,180.4,406.6z"/>
		<linearGradient id="SVGID_44_" gradientUnits="userSpaceOnUse" x1="342.6497" y1="75.7952" x2="342.6497" y2="578.7883">
			<stop  offset="0" style="stop-color:#8BF19F"/>
			<stop  offset="1" style="stop-color:#5A9EF6"/>
		</linearGradient>
		<path class="st43" d="M384.5,424.4c-14.1-5.4-27.1-13.4-40.8-21.8c-12.7-7.8-25.7-15.8-39.8-21.7c-2.2-0.9-4.6,0.1-5.5,2.3
			c-0.9,2.2,0.1,4.6,2.3,5.5c13.5,5.6,26.3,13.5,38.7,21.1c13.4,8.3,27.3,16.8,42.2,22.5c0.5,0.2,1,0.3,1.5,0.3c1.7,0,3.3-1,3.9-2.7
			C387.8,427.6,386.7,425.2,384.5,424.4z"/>
		<linearGradient id="SVGID_45_" gradientUnits="userSpaceOnUse" x1="157.7893" y1="75.7954" x2="157.7893" y2="578.7895">
			<stop  offset="0" style="stop-color:#8BF19F"/>
			<stop  offset="1" style="stop-color:#5A9EF6"/>
		</linearGradient>
		<path class="st44" d="M178.4,422.3c2-1.2,2.7-3.8,1.5-5.8c-1.2-2-3.8-2.7-5.8-1.5c-1.8,1.1-3.5,2.1-5.3,3.2
			c-11.3,6.8-21.9,13.2-31,16.7c-2.2,0.8-3.3,3.3-2.4,5.4c0.6,1.7,2.2,2.7,3.9,2.7c0.5,0,1-0.1,1.5-0.3c9.8-3.7,20.7-10.3,32.4-17.3
			C174.9,424.4,176.7,423.3,178.4,422.3z"/>
		<linearGradient id="SVGID_46_" gradientUnits="userSpaceOnUse" x1="283.5648" y1="75.7954" x2="283.5648" y2="578.7883">
			<stop  offset="0" style="stop-color:#8BF19F"/>
			<stop  offset="1" style="stop-color:#5A9EF6"/>
		</linearGradient>
		<path class="st45" d="M377,435.6c-10.7-4-21.7-11-33.4-18.4c-20.8-13.2-44.4-28.2-74.5-31.6c-31-3.6-58.8,9.1-79.5,20.5
			c-2,1.1-2.8,3.7-1.7,5.7c1.1,2,3.7,2.8,5.7,1.7c19.6-10.8,45.8-22.8,74.5-19.5c28.2,3.2,50.9,17.7,70.9,30.4
			c12.1,7.7,23.5,14.9,35,19.2c0.5,0.2,1,0.3,1.5,0.3c1.7,0,3.3-1.1,4-2.8C380.3,438.8,379.2,436.4,377,435.6z"/>
		<linearGradient id="SVGID_47_" gradientUnits="userSpaceOnUse" x1="174.5386" y1="75.7947" x2="174.5386" y2="578.7871">
			<stop  offset="0" style="stop-color:#8BF19F"/>
			<stop  offset="1" style="stop-color:#5A9EF6"/>
		</linearGradient>
		<path class="st46" d="M204,422.7c2-1.1,2.8-3.7,1.6-5.7c-1.1-2-3.7-2.8-5.7-1.6c-6.6,3.7-12.9,7.6-19.1,11.4
			c-12.4,7.7-24.1,14.9-35.1,18.7c-2.2,0.8-3.4,3.2-2.6,5.4c0.6,1.7,2.2,2.8,4,2.8c0.5,0,0.9-0.1,1.4-0.2
			c11.9-4.1,24-11.6,36.8-19.5C191.4,430.2,197.6,426.3,204,422.7z"/>
		<linearGradient id="SVGID_48_" gradientUnits="userSpaceOnUse" x1="292.6609" y1="75.7946" x2="292.6609" y2="578.7884">
			<stop  offset="0" style="stop-color:#8BF19F"/>
			<stop  offset="1" style="stop-color:#5A9EF6"/>
		</linearGradient>
		<path class="st47" d="M369.4,445.5c-10.5-4.2-21.2-10.8-32.5-17.8c-19.8-12.4-42.3-26.4-69.4-29.7c-16.4-2-33.4,1-51.8,9.3
			c-2.1,1-3.1,3.5-2.1,5.6c1,2.1,3.5,3.1,5.6,2.1c17.3-7.8,32.3-10.5,47.3-8.7c25.3,3.1,46,16,66,28.5c11.6,7.2,22.6,14.1,33.8,18.5
			c0.5,0.2,1,0.3,1.6,0.3c1.7,0,3.3-1,3.9-2.7C372.7,448.8,371.6,446.4,369.4,445.5z"/>
		<linearGradient id="SVGID_49_" gradientUnits="userSpaceOnUse" x1="257.2033" y1="75.7954" x2="257.2033" y2="578.7878">
			<stop  offset="0" style="stop-color:#8BF19F"/>
			<stop  offset="1" style="stop-color:#5A9EF6"/>
		</linearGradient>
		<path class="st48" d="M360.4,455.7c-10.2-4.3-20.2-10.4-30.6-16.8c-19.1-11.8-38.9-23.9-63.8-27.1c-30.5-3.9-54.9,11.2-78.5,25.9
			c-11.5,7.2-22.3,13.9-33.3,18c-2.2,0.8-3.3,3.2-2.5,5.4c0.6,1.7,2.2,2.7,4,2.7c0.5,0,1-0.1,1.5-0.3c11.8-4.4,23-11.4,34.8-18.7
			c22.3-13.9,45.4-28.2,72.9-24.7c23.1,3,42.1,14.7,60.5,26c10.8,6.6,21,12.9,31.8,17.4c2.2,0.9,4.6-0.1,5.5-2.3
			C363.6,459,362.6,456.6,360.4,455.7z"/>
		<linearGradient id="SVGID_50_" gradientUnits="userSpaceOnUse" x1="203.9878" y1="75.7952" x2="203.9878" y2="578.7894">
			<stop  offset="0" style="stop-color:#8BF19F"/>
			<stop  offset="1" style="stop-color:#5A9EF6"/>
		</linearGradient>
		<path class="st49" d="M231.1,452.1c2.1-1,3-3.5,2-5.6c-1-2.1-3.5-3-5.6-2c-8,3.8-15.3,8.7-23,13.8c-8.6,5.7-17.4,11.6-27.5,16.2
			c-2.1,1-3.1,3.5-2.1,5.6c0.7,1.6,2.2,2.5,3.9,2.5c0.6,0,1.2-0.1,1.7-0.4c10.8-4.8,19.9-10.9,28.8-16.8
			C216.6,460.4,223.7,455.7,231.1,452.1z"/>
		<linearGradient id="SVGID_51_" gradientUnits="userSpaceOnUse" x1="291.3295" y1="75.7949" x2="291.3295" y2="578.7882">
			<stop  offset="0" style="stop-color:#8BF19F"/>
			<stop  offset="1" style="stop-color:#5A9EF6"/>
		</linearGradient>
		<path class="st50" d="M338,474c-10.6-4.3-19.7-10.5-28.5-16.5c-12.8-8.7-24.8-16.8-40.7-19.3c-8.2-1.3-15.8-1.2-23.4,0.2
			c-2.3,0.4-3.8,2.6-3.4,4.9c0.4,2.3,2.6,3.8,4.9,3.4c6.6-1.3,13.3-1.3,20.5-0.2c14,2.2,25.3,9.9,37.2,18
			c9.2,6.2,18.6,12.6,30.1,17.3c0.5,0.2,1.1,0.3,1.6,0.3c1.7,0,3.2-1,3.9-2.6C341.2,477.4,340.2,474.9,338,474z"/>
		<linearGradient id="SVGID_52_" gradientUnits="userSpaceOnUse" x1="235.2615" y1="75.7952" x2="235.2615" y2="578.7863">
			<stop  offset="0" style="stop-color:#8BF19F"/>
			<stop  offset="1" style="stop-color:#5A9EF6"/>
		</linearGradient>
		<path class="st51" d="M265.8,459.6c3.4,0.6,6.7,1.5,10.1,2.9c2.2,0.9,4.6-0.2,5.5-2.4c0.9-2.2-0.2-4.6-2.4-5.5
			c-4-1.6-7.8-2.7-11.8-3.4c-24.4-4.2-39.7,7-55.8,18.8c-6.4,4.7-12.9,9.5-20.3,13.4c-2.1,1.1-2.8,3.7-1.7,5.7
			c0.8,1.4,2.2,2.2,3.7,2.2c0.7,0,1.4-0.2,2-0.5c7.8-4.2,14.7-9.2,21.3-14C231.7,465.6,244.9,456,265.8,459.6z"/>
		<linearGradient id="SVGID_53_" gradientUnits="userSpaceOnUse" x1="308.279" y1="75.7945" x2="308.279" y2="578.7886">
			<stop  offset="0" style="stop-color:#8BF19F"/>
			<stop  offset="1" style="stop-color:#5A9EF6"/>
		</linearGradient>
		<path class="st52" d="M326,483.4c-7.1-3.8-13.8-8.4-20.1-12.9c-3.6-2.5-7.3-5.1-11-7.5c-2-1.3-4.6-0.7-5.8,1.3
			c-1.3,2-0.7,4.6,1.3,5.8c3.6,2.3,7,4.7,10.7,7.3c6.6,4.6,13.4,9.4,21,13.5c0.6,0.3,1.3,0.5,2,0.5c1.5,0,3-0.8,3.7-2.2
			C328.8,487.1,328,484.5,326,483.4z"/>
		<linearGradient id="SVGID_54_" gradientUnits="userSpaceOnUse" x1="216.6559" y1="75.7953" x2="216.6559" y2="578.7879">
			<stop  offset="0" style="stop-color:#8BF19F"/>
			<stop  offset="1" style="stop-color:#5A9EF6"/>
		</linearGradient>
		<path class="st53" d="M226.9,485.2c1.9-1.3,2.4-3.9,1.1-5.9c-1.3-1.9-3.9-2.4-5.9-1.1c-1,0.7-2,1.4-3,2.1c-4.5,3.1-8.7,6-12.3,7.9
			c-2.1,1.1-2.8,3.7-1.7,5.7c0.8,1.4,2.2,2.2,3.7,2.2c0.7,0,1.4-0.2,2-0.5c4-2.2,8.4-5.2,13.1-8.4
			C224.9,486.6,225.9,485.9,226.9,485.2z"/>
		<linearGradient id="SVGID_55_" gradientUnits="userSpaceOnUse" x1="272.6387" y1="75.796" x2="272.6387" y2="578.7901">
			<stop  offset="0" style="stop-color:#8BF19F"/>
			<stop  offset="1" style="stop-color:#5A9EF6"/>
		</linearGradient>
		<path class="st54" d="M307.7,488.3c-3.3-1.7-7.7-4.5-12.4-7.4c-11.9-7.3-25.3-15.7-34.2-17.2c-6.8-1.2-14.5,0.5-23.5,5.1
			c-2.1,1.1-2.9,3.6-1.8,5.7c1.1,2.1,3.6,2.9,5.7,1.8c7.3-3.7,13.3-5.1,18.2-4.3c7.3,1.3,20.6,9.5,31.2,16.1c4.8,3,9.4,5.8,12.9,7.7
			c0.6,0.3,1.3,0.5,2,0.5c1.5,0,3-0.8,3.7-2.2C310.6,491.9,309.8,489.4,307.7,488.3z"/>
		<linearGradient id="SVGID_56_" gradientUnits="userSpaceOnUse" x1="257.7018" y1="75.7939" x2="257.7018" y2="578.7886">
			<stop  offset="0" style="stop-color:#8BF19F"/>
			<stop  offset="1" style="stop-color:#5A9EF6"/>
		</linearGradient>
		<path class="st55" d="M291.2,493.3c-1.2-0.7-3.5-2.2-6.1-3.9c-10.4-7-19.6-12.8-26.2-12.8c0,0,0,0,0,0c-12.6,0-23.3,8.2-30.4,13.6
			c-1.8,1.3-3.3,2.5-4.6,3.4c-1.9,1.3-2.5,3.9-1.2,5.8c1.3,1.9,3.9,2.5,5.8,1.2c1.5-1,3.2-2.3,5-3.7c6.6-5,15.5-11.8,25.3-11.8
			c4.6,0,15.6,7.4,21.5,11.4c2.9,2,5.2,3.5,6.9,4.4c0.6,0.3,1.3,0.5,2,0.5c1.5,0,3-0.8,3.7-2.2C294,496.9,293.2,494.4,291.2,493.3z"
			/>
		<linearGradient id="SVGID_57_" gradientUnits="userSpaceOnUse" x1="257.15" y1="75.7954" x2="257.15" y2="578.7872">
			<stop  offset="0" style="stop-color:#8BF19F"/>
			<stop  offset="1" style="stop-color:#5A9EF6"/>
		</linearGradient>
		<path class="st56" d="M258.5,488.9C258.5,488.9,258.5,488.9,258.5,488.9c-7.2,0-13,4.7-16.8,8.3c-1.7,1.6-1.7,4.3-0.1,6
			c0.8,0.9,1.9,1.3,3.1,1.3c1,0,2.1-0.4,2.9-1.2c4.2-4,7.8-6,10.9-6c0.2,0,2.2,0.4,8.3,6c1.7,1.6,4.4,1.5,6-0.3
			c1.6-1.7,1.5-4.4-0.3-6C266.2,491.3,262,488.9,258.5,488.9z"/>
		<linearGradient id="SVGID_58_" gradientUnits="userSpaceOnUse" x1="225.1295" y1="75.7952" x2="225.1295" y2="578.7885">
			<stop  offset="0" style="stop-color:#8BF19F"/>
			<stop  offset="1" style="stop-color:#5A9EF6"/>
		</linearGradient>
		<path class="st57" d="M265.2,432.8c5.9,0.8,11.4,2.1,16.9,4.1c2.2,0.8,4.6-0.4,5.4-2.6c0.8-2.2-0.4-4.6-2.6-5.4
			c-6-2.2-12.1-3.6-18.6-4.5c-30-4-48.3,8-69.4,21.9c-9.8,6.4-19.8,13.1-32.1,18.8c-2.1,1-3,3.5-2,5.6c0.7,1.5,2.2,2.4,3.8,2.4
			c0.6,0,1.2-0.1,1.8-0.4c12.8-6,23.1-12.8,33.2-19.4C222.1,439.8,238.3,429.2,265.2,432.8z"/>
		<linearGradient id="SVGID_59_" gradientUnits="userSpaceOnUse" x1="323.5395" y1="75.7953" x2="323.5395" y2="578.7897">
			<stop  offset="0" style="stop-color:#8BF19F"/>
			<stop  offset="1" style="stop-color:#5A9EF6"/>
		</linearGradient>
		<path class="st58" d="M349.6,465.8c-11.4-4.7-21-11.3-30.2-17.6c-5.8-4-11.8-8.1-18.3-11.7c-2-1.1-4.6-0.4-5.8,1.6
			c-1.1,2-0.4,4.6,1.6,5.8c6.1,3.4,11.7,7.3,17.6,11.4c9.6,6.6,19.6,13.4,31.8,18.5c0.5,0.2,1.1,0.3,1.6,0.3c1.7,0,3.2-1,3.9-2.6
			C352.8,469.1,351.8,466.7,349.6,465.8z"/>
	</g>
</g>
</svg>
