<?xml version="1.0" encoding="utf-8"?>
<!-- Generator: Adobe Illustrator 24.2.0, SVG Export Plug-In . SVG Version: 6.00 Build 0)  -->
<svg version="1.1" id="Layer_1" xmlns="http://www.w3.org/2000/svg" xmlns:xlink="http://www.w3.org/1999/xlink" x="0px" y="0px"
	 viewBox="0 0 512 512" style="enable-background:new 0 0 512 512;" xml:space="preserve">
<style type="text/css">
	.st0{fill:url(#SVGID_1_);}
	.st1{opacity:0.53;fill:none;stroke:#FFFFFF;stroke-width:1.5208;stroke-miterlimit:10;}
	.st2{fill:#FF970B;}
	.st3{fill:url(#SVGID_2_);}
	.st4{fill:#76445B;}
	.st5{fill:#A6C979;}
	.st6{fill:#77A03F;}
	.st7{fill:#E4E0DE;}
	.st8{fill:#C6C6C6;}
	.st9{fill:#E98212;}
	.st10{fill:#FF9C14;}
	.st11{fill:#3BB1AC;}
	.st12{fill:#FFAE41;}
	.st13{fill:#2A8C85;}
	.st14{fill:#F4F4F4;}
	.st15{opacity:0.63;fill:#B2B2B2;}
	.st16{fill:none;stroke:#DADADA;stroke-width:2.1629;stroke-linecap:round;stroke-linejoin:round;}
	.st17{fill:#6FD7D3;}
	.st18{fill:#BE2F2C;}
	.st19{fill:#F4615D;}
	.st20{fill:#D53E3B;}
	.st21{fill:none;stroke:#C6C6C6;stroke-width:1.9504;stroke-linecap:round;stroke-linejoin:round;}
	.st22{fill:#4745AA;}
	.st23{fill:#7E8FE9;}
	.st24{fill:none;stroke:#DADADA;stroke-width:1.8787;stroke-linecap:round;stroke-linejoin:round;}
	.st25{fill:#6D6BBB;}
	.st26{fill:#684836;}
	.st27{fill:#D2CBC4;}
	.st28{fill:#3A3898;}
	.st29{fill:#2FA29A;}
	.st30{fill:#F0AB87;}
	.st31{fill:#FFC8A4;}
	.st32{fill:#54293A;}
	.st33{fill:#E5D19D;}
	.st34{fill:#F7E3A6;}
	.st35{fill:#F3E6BE;}
	.st36{fill:#51C3C1;}
</style>
<g>
	<g>
		<linearGradient id="SVGID_1_" gradientUnits="userSpaceOnUse" x1="122.1896" y1="426.8433" x2="67.6788" y2="330.0399">
			<stop  offset="0" style="stop-color:#6FD7D3"/>
			<stop  offset="1" style="stop-color:#1A7FB0"/>
		</linearGradient>
		<path class="st0" d="M109.9,363.2c-21.8-10.5-46.1-14.8-69.9-19.1c6.6,25.1,14.4,52.1,35,67.9c24.8,18.9,59.9,15.7,88.5,28.1
			c0.8,0.4-3.2-22.6-4-24.8c-2.8-7.1-6.3-14.2-10.7-20.5C139.1,381.1,125,370.5,109.9,363.2z"/>
		<path class="st1" d="M49,350.3c15.5,16.5,37.4,24.8,57.2,35.8c19.8,11,39.3,27.3,42.6,49.6"/>
	</g>
	<g>
		<path class="st2" d="M115.8,320.1c1.1-4.3,1.9-8.8,2.6-13.3c1.1,0.1,2.1-0.3,2.8-1.4c0.6-1,0.6-2.4,0-3.6
			c-1.4-2.7-4.8-3.2-6.2-1.1c-0.7,1-0.7,2.3-0.1,3.5c0.5,1.1,1.3,1.8,2.1,2.2c-0.5,3.8-1.2,7.5-2,11.2c-0.1,0.5-0.8,0.7-1.2,0.2
			c-1.7-2.4-3.6-4.6-5.5-6.9c-0.1-0.1-0.2-0.3-0.1-0.5c0.6-4.4,1-9,1-13.7c1.1-0.1,2.1-0.6,2.6-1.7c0.5-1.1,0.3-2.5-0.6-3.7
			c-1.9-2.5-5.4-2.7-6.4-0.4c-0.5,1-0.3,2.4,0.4,3.6c0.7,1,1.6,1.6,2.5,2c0.1,4-0.2,7.8-0.6,11.6c-0.1,0.5-0.6,0.6-1,0.3
			c-3.6-3.9-7.5-7.6-11.9-10.7c0.8-1.6-0.1-3.9-2.2-4.6c-1.2-0.4-2.6-0.2-3.4,0.6c-1.6,1.6-1.2,4.3,0.6,5.4c1.3,0.9,3.1,0.8,4.2-0.3
			c4.3,3.1,8.2,6.8,11.8,10.7c0.3,0.4,0.1,0.9-0.4,1c-1.9,0.1-3.8,0.2-5.6,0.4c-1.8,0.2-3.7,0.4-5.5,0.8c-0.2-0.8-0.8-1.5-1.7-1.8
			c-1-0.4-2.2-0.1-3,0.6c-1.8,1.6-1.8,4.4,0.1,5.3c0.9,0.5,2.1,0.3,3.1-0.3c1-0.6,1.6-1.6,1.7-2.6c4.2-0.7,8.6-1,13.2-1.1
			c0.2,0,0.3,0.1,0.4,0.2c1.9,2.2,3.7,4.5,5.4,6.8c0.3,0.5,0,1.1-0.5,1c-3.8-0.3-7.5-0.4-11.1-0.2c-0.2-0.8-0.6-1.6-1.5-2.1
			c-1-0.5-2.2-0.5-3.2,0.2c-2.1,1.4-2.3,4.1-0.5,5.4c0.9,0.6,2.1,0.7,3.1,0.2c1.1-0.5,1.8-1.4,2-2.4c4.3-0.1,8.8,0.1,13.3,0.5
			c0.2,0,0.4,0.1,0.5,0.3c1.7,2.4,3.3,4.8,4.9,7.3c0.2,0.4,0,0.9-0.5,0.8c-3.8-0.5-7.6-0.9-11.4-1.2c-0.1-0.8-0.5-1.7-1.4-2.3
			c-0.9-0.7-2.2-0.7-3.2-0.2c-2.2,1.1-2.7,3.9-0.9,5.5c0.8,0.7,2.1,1,3.2,0.6c1.2-0.4,1.9-1.2,2.2-2.2c4.4,0.3,8.9,0.9,13.4,1.6
			c0.2,0,0.3,0.1,0.4,0.3c1.6,2.6,3.2,5.1,4.7,7.7c0.2,0.4-0.1,0.9-0.5,0.8c-3.8-0.7-7.6-1.3-11.4-1.8c-0.1-0.9-0.4-1.8-1.3-2.4
			c-0.9-0.7-2.2-0.9-3.2-0.5c-2.3,0.9-2.9,3.8-1.1,5.6c0.8,0.8,2.1,1.1,3.2,0.8c1.2-0.3,1.9-1.1,2.3-2.1c4.4,0.6,8.9,1.4,13.3,2.2
			c0.2,0,0.3,0.1,0.4,0.3c1.5,2.5,2.9,5.2,4.3,7.8c0.2,0.4-0.1,0.9-0.6,0.8c-3.8-0.9-7.5-1.6-11.3-2.3c0-0.9-0.4-1.7-1.2-2.4
			c-0.9-0.7-2.1-1-3.2-0.6c-2.3,0.8-3.1,3.7-1.4,5.5c0.8,0.8,2,1.2,3.1,0.9c1.2-0.3,2-1.1,2.4-2c4.4,0.8,8.8,1.7,13.2,2.8
			c0.2,0,0.3,0.1,0.4,0.3c1.4,2.7,2.7,5.4,4,8.1c0.2,0.4-0.2,0.9-0.6,0.7c-3.7-1-7.5-1.9-11.2-2.8c0-0.9-0.3-1.8-1.1-2.5
			c-0.8-0.8-2.1-1.1-3.2-0.8c-2.4,0.7-3.2,3.6-1.6,5.4c0.8,0.9,2,1.3,3.1,1.1c1.2-0.2,2-1,2.4-1.9c4.3,1,8.7,2.1,13.1,3.3
			c0.2,0,0.3,0.2,0.4,0.3c1.3,2.7,2.5,5.4,3.7,8.1c0.2,0.4-0.2,0.8-0.6,0.7c-3.7-1.1-7.5-2.2-11.2-3.2c0-0.9-0.2-1.8-1-2.6
			c-0.8-0.8-2-1.2-3.2-0.9c-2.4,0.6-3.3,3.5-1.8,5.4c0.7,0.9,1.9,1.4,3.1,1.2c1.2-0.2,2.1-0.9,2.5-1.8c4.3,1.2,8.7,2.4,13,3.7
			c0.1,0,0.3,0.2,0.3,0.3c1.2,2.8,2.4,5.6,3.6,8.4c0.2,0.4-0.2,0.8-0.6,0.7c-3.7-1.2-7.4-2.3-11.1-3.4c0.1-0.9-0.2-1.8-0.9-2.6
			c-0.8-0.9-2-1.3-3.1-1c-2.4,0.5-3.4,3.4-1.9,5.4c0.7,0.9,1.9,1.5,3.1,1.3c1.2-0.1,2.1-0.9,2.5-1.8c4.3,1.3,8.6,2.6,13,4
			c0.1,0,0.3,0.2,0.3,0.3l3.4,8.3c0.2,0.4-0.2,0.8-0.6,0.7l-11.1-3.6c0.1-0.9-0.2-1.8-0.9-2.6c-0.8-0.9-2-1.3-3.1-1.1
			c-2.4,0.5-3.5,3.3-2,5.4c0.7,1,1.9,1.5,3.1,1.4c1.2-0.1,2.1-0.8,2.6-1.8l12.9,4.2c0.1,0,0.3,0.2,0.3,0.3l3.5,8.5
			c0.2,0.4-0.2,0.8-0.6,0.7l-11.1-3.7c0.1-0.9-0.2-1.8-0.9-2.7c-0.8-0.9-2-1.4-3.1-1.2c-2.4,0.5-3.5,3.3-2,5.5
			c0.7,1,1.9,1.6,3.1,1.4c1.2-0.1,2.1-0.8,2.6-1.7l12.9,4.3c0.1,0,0.3,0.2,0.3,0.3c2.9,7,5.8,14,8.8,20.9l1.2-0.5
			c-3-6.9-5.9-14-8.8-21c-0.1-0.1-0.1-0.3,0-0.4l6.1-11.9c1,0.3,2.1,0.2,3.1-0.6c0.9-0.7,1.4-2,1.2-3.2c-0.4-2.6-3.2-3.9-5.3-2.5
			c-0.9,0.6-1.5,1.8-1.4,3c0.1,1.1,0.6,1.9,1.2,2.5l-5.2,10.2c-0.2,0.4-0.7,0.3-0.9-0.1l-3.5-8.5c-0.1-0.1-0.1-0.3,0-0.4l6.1-12
			c1,0.3,2.1,0.2,3.1-0.6c0.9-0.7,1.3-2,1.1-3.2c-0.5-2.6-3.3-3.9-5.3-2.5c-0.9,0.7-1.5,1.9-1.4,3.1c0.1,1.1,0.6,1.9,1.3,2.5
			l-5.2,10.2c-0.2,0.4-0.7,0.3-0.9-0.1l-3.4-8.3c-0.1-0.1-0.1-0.3,0-0.4c2-4,4-8,5.9-12.1c1,0.3,2.1,0.2,3.1-0.6
			c0.9-0.8,1.3-2,1.1-3.3c-0.5-2.6-3.4-3.9-5.4-2.5c-0.9,0.7-1.4,1.9-1.3,3.1c0.1,1.1,0.6,2,1.3,2.5c-1.6,3.5-3.3,6.9-5,10.3
			c-0.2,0.4-0.7,0.3-0.9-0.1l-3.6-8.4c-0.1-0.1-0.1-0.3,0-0.4c1.9-4,3.8-8.1,5.7-12.2c1,0.3,2.1,0.1,3-0.7c0.9-0.8,1.3-2.1,1-3.3
			c-0.6-2.7-3.5-3.9-5.5-2.4c-0.9,0.7-1.4,1.9-1.2,3.2c0.1,1.1,0.7,1.9,1.4,2.5c-1.6,3.5-3.2,7-4.8,10.5c-0.2,0.4-0.7,0.4-0.9,0
			c-1.2-2.7-2.4-5.5-3.7-8.1c-0.1-0.1-0.1-0.3,0-0.5c1.8-4.1,3.6-8.2,5.3-12.4c1,0.3,2.1,0.1,3-0.8c0.8-0.8,1.2-2.1,0.9-3.4
			c-0.7-2.7-3.7-3.8-5.6-2.2c-0.9,0.7-1.3,2-1.1,3.2c0.2,1.1,0.8,1.9,1.5,2.5c-1.4,3.6-2.9,7.1-4.4,10.6c-0.2,0.4-0.7,0.4-0.9,0
			c-1.3-2.7-2.6-5.4-4-8.1c-0.1-0.1-0.1-0.3,0-0.5c1.7-4.2,3.2-8.3,4.8-12.7c1,0.2,2.1,0,3-0.9c0.8-0.9,1.1-2.2,0.7-3.4
			c-0.9-2.7-3.9-3.7-5.7-2c-0.8,0.8-1.2,2.1-0.9,3.3c0.2,1.1,0.9,1.9,1.6,2.4c-1.3,3.7-2.6,7.2-4,10.8c-0.2,0.4-0.7,0.4-0.9,0
			c-1.4-2.6-2.8-5.2-4.3-7.8c-0.1-0.1-0.1-0.3,0-0.5c1.5-4.2,2.9-8.5,4.2-12.8c1,0.2,2.1-0.1,2.9-1c0.8-0.9,1-2.2,0.6-3.4
			c-0.9-2.6-4-3.5-5.7-1.7c-0.8,0.8-1.1,2.1-0.8,3.3c0.3,1.1,0.9,1.9,1.7,2.4c-1.1,3.7-2.3,7.3-3.5,10.9c-0.1,0.4-0.7,0.5-0.9,0.1
			c-1.5-2.6-3.1-5.2-4.7-7.8c-0.1-0.1-0.1-0.3-0.1-0.5c1.3-4.3,2.6-8.6,3.6-13.1c1.1,0.1,2.1-0.2,2.9-1.2c0.7-0.9,0.9-2.3,0.3-3.5
			c-1.1-2.6-4.3-3.4-5.9-1.5c-0.8,0.9-0.9,2.2-0.6,3.4c0.4,1.1,1.1,1.9,1.9,2.3c-0.9,3.8-1.9,7.5-3,11.2c-0.1,0.4-0.7,0.5-0.9,0.1
			c-1.6-2.5-3.2-4.9-5-7.4C115.8,320.5,115.8,320.3,115.8,320.1z"/>
	</g>
	<g>
		
			<linearGradient id="SVGID_2_" gradientUnits="userSpaceOnUse" x1="570.3539" y1="298.6282" x2="598.7913" y2="17.5982" gradientTransform="matrix(-1 0 0 1 762.0106 0)">
			<stop  offset="0" style="stop-color:#A6C979"/>
			<stop  offset="1" style="stop-color:#39A4A0"/>
		</linearGradient>
		<path class="st3" d="M219.4,30.9c13.6,17.5,15.6,43.1,5,62.6c-4.4,8-10.9,16.1-9,25c2,9.4,12.7,14.4,22.3,15.1
			c9.6,0.6,19.4-1.6,28.9,0.2c12.1,2.2,22.8,11.3,26.9,22.9c4.1,11.6,1.6,25.4-6.4,34.8c-8.8,10.3-24.6,19-21.4,32.2
			c1.5,5.8,6.7,10.1,8.5,15.8c3.1,9.7-4.5,19.8-13.2,25.2c-8.7,5.4-19,8.3-26.6,15.2c-10,9.1-13.3,23.2-18.7,35.6
			c-5.4,12.4-15.9,25-29.4,24.1c-11.5-0.8-19.9-11-25.2-21.2c-5.3-10.2-9.3-21.6-18.2-28.9c-6.3-5.1-14.3-7.6-21.6-11.3
			c-7.3-3.7-14.3-9.5-15.6-17.6c-1.2-7.7,3.3-15.1,3.1-22.9c-0.3-14-14.4-22.9-25.5-31.4c-8.6-6.7-16.5-15-20-25.3
			c-3.5-10.3-1.8-23,6.3-30.3c8.5-7.7,21.9-8.1,30.1-16.1c8-7.8,8.6-20.5,6.1-31.4C103.5,92.2,98.5,82,96.8,71
			c-2.5-16.3,3.2-33.7,14.7-45.5C137-0.5,197,2,219.4,30.9z"/>
		<path class="st4" d="M165.7,293.7c-8.5-29.6-26.3-56.3-32-86.6c0.8,4.1,4,8.9,5.7,12.8c2.5,5.6,5.1,11.2,7.9,16.6
			c5.2,9.9,11.4,19,18.5,27.6c2.8,3.5,6,8.3,9.5,10.9c2,1.5,4.8,2.1,7,0.9c1.4-0.8,2.4-2.2,3.2-3.6c6.7-10.6,11.6-22.2,15.4-34.1
			c10.3-32.3,21.8-57.6,19.4-96.5c4.5,19.7,3.2,40.7-0.6,60.7c-4.7,24.7-13.2,48.6-19,73.1c-11.6,48.9-12.5,100.3-2.8,149.5
			c-11.7-1.1-23.3-2.1-35-3.2C170.4,379.5,177.6,335.2,165.7,293.7z"/>
		<path class="st4" d="M155.2,262.3c-4.5-4.3-8.6-9-14-12.1c-7-4-14-7.6-21.3-11.1c6.3,1.8,12.6,3.5,18.9,5.3
			c-1.1-2.9-2.2-5.7-3.3-8.6c1.8,3.7,4.1,7.1,6.8,10.2c2.5,3,6.8,4.8,10.1,6.9L155.2,262.3z"/>
		<path class="st4" d="M149,241.4c2.5-6.8,2.5-14.4,0.1-21.2c0.6,5.9,0.3,12.2-3.1,17L149,241.4z"/>
		<path class="st4" d="M208.8,223.1c-1.3-8.1-6.5-14.9-10.6-22c-5.9-10-9.9-21.2-11.7-32.7c-0.6,8.3,1.9,16.5,5.1,24.2
			c3.2,7.7,7.1,15.1,9.4,23.1c2.5,8.6,3,17.8,1.6,26.6L208.8,223.1z"/>
		<path class="st4" d="M220.2,191.9c5.2-3.8,10.2-10.6,13.1-16.3c-2.9,9.3-7.9,18.4-15.9,23.9L220.2,191.9z"/>
		<path class="st4" d="M192.9,192.9c-3.1-2-6.1-4-9.2-6c1.6,2.5,4.1,4.3,6.4,6.1c2.3,1.8,4.7,3.9,5.7,6.7L192.9,192.9z"/>
		<path class="st4" d="M214.8,205.8c0.2-3.4-1.7-6.6-3.8-9.3c-2.1-2.7-4.4-5.5-5-8.9c-0.6,2.1,0,4.4,0.9,6.4c0.9,2,2.2,3.8,3.1,5.9
			c2,4.7,1.7,10.1,1.3,15.2L214.8,205.8z"/>
		<path class="st4" d="M200.3,259.4c16.3-17,33.1-21.2,45.2-34.5c-6.6,13.7-17.8,16.6-28.1,24.9c-10.2,8.3-20.2,21.2-22.2,34.2
			L200.3,259.4z"/>
		<path class="st4" d="M214.5,250.6c8.7-4.1,19.5-1.4,28-6c-8.1,3.4-17.9-0.7-25.8,3.1L214.5,250.6z"/>
		<g>
			<path class="st5" d="M279.3,173.9c-6.3-0.1-8.6,1.8-14,4.9c5.8,2.9,8.8,3.6,15,1.7c3.1-1,6-2.5,8.5-4.6
				C285.9,174.6,282.6,173.9,279.3,173.9z"/>
			<path class="st5" d="M274.5,148.5c-5.2,3.5-6,6.4-8.7,12.1c6.4-0.9,9.3-2.1,13.3-7.1c2-2.6,3.5-5.5,4.4-8.6
				C280.3,145.4,277.2,146.7,274.5,148.5z"/>
			<path class="st6" d="M143.8,187.7c-3.2,5.4-2.6,8.4-2.6,14.7c5.3-3.6,7.5-5.9,8.9-12.2c0.7-3.2,0.8-6.5,0.2-9.7
				C147.7,182.4,145.5,184.9,143.8,187.7z"/>
			<path class="st5" d="M236.9,183.1c8.5,0.6,18-3.9,17-15C244.9,169,239.1,176.4,236.9,183.1z"/>
			<path class="st5" d="M248.8,192.4c4.7,4.1,12.1,5.6,16.4-1.3C259.6,187.7,253,189.5,248.8,192.4z"/>
			<path class="st5" d="M105.9,215.7c4.7,4.1,12.1,5.6,16.4-1.3C116.7,211,110.1,212.8,105.9,215.7z"/>
			<path class="st5" d="M244.1,258.6c6.2,0.4,13-2.9,12.3-11C249.8,248.3,244.1,251.9,244.1,258.6z"/>
			<path class="st5" d="M177.4,113c6.1-1.2,11.9-6.1,9.2-13.7C180.4,101.6,177.7,107.9,177.4,113z"/>
			<path class="st6" d="M219.4,275c5.3-3.3,9-9.9,3.7-16.1C218.1,263.3,217.9,270.2,219.4,275z"/>
			<path class="st6" d="M137.5,158c5.7-2.5,10.2-8.6,5.9-15.4C137.8,146.2,136.7,153,137.5,158z"/>
			<path class="st5" d="M222,141.2c-0.9-2.8-2.9-5.1-5.2-6.9c-2-1.6-4.4-2.9-6.8-3.9c0.1,0.9,0.2,1.8,0.4,2.6
				c0.6,3.6,1.5,7.2,3.4,10.4c1.8,3.2,4.7,5.9,8.2,6.9C222.5,147.3,223,144.1,222,141.2z"/>
			<path class="st5" d="M156.2,107.7c-0.9-2.8-2.9-5.1-5.2-6.9c-2-1.6-4.4-2.9-6.8-3.9c0.1,0.9,0.2,1.8,0.4,2.6
				c0.6,3.6,1.5,7.2,3.4,10.4c1.8,3.2,4.7,5.9,8.2,6.9C156.6,113.8,157.1,110.6,156.2,107.7z"/>
			<path class="st6" d="M166.6,53.6c-2.5,7.5-1.4,15.7,7.6,23.6c1.2-3.3,2.1-5,2-8.5C176,62.3,172.5,55.9,166.6,53.6z"/>
			<path class="st5" d="M211.1,103.3c4.4-1.6,7.2-6.2,7.4-10.9c0.1-2.2-0.3-4.3-1.1-6.3C211.1,91.6,209.8,96.9,211.1,103.3z"/>
			<path class="st5" d="M180.7,215.9c2.5-3.9,2-9.3-0.6-13.2c-1.2-1.8-2.8-3.2-4.6-4.4C173.6,206.5,175.8,211.5,180.7,215.9z"/>
			<path class="st5" d="M230.7,149.5c4.2,2.1,9.5,0.9,13-2.2c1.6-1.4,2.9-3.2,3.8-5.1C239.2,141.4,234.5,144.2,230.7,149.5z"/>
			<path class="st5" d="M200.7,78.8c3.6-2.9,4.7-8.3,3.4-12.7c-0.6-2.1-1.7-3.9-3.1-5.6C196.8,67.7,197.4,73.2,200.7,78.8z"/>
			<path class="st6" d="M186.7,143.6c-0.5,4.6,2.4,9.2,6.5,11.5c1.9,1,4,1.6,6.1,1.8C197.2,148.8,192.9,145.3,186.7,143.6z"/>
			<path class="st5" d="M244.1,209.5c1.5,4.4,6.1,7.3,10.7,7.6c2.1,0.1,4.3-0.2,6.3-0.9C255.8,209.7,250.5,208.3,244.1,209.5z"/>
			<path class="st5" d="M126.6,122.4c0.7,6.2-1,8.7-3.6,14.4c-3.4-5.5-4.4-8.5-3.1-14.8c0.7-3.2,2-6.2,3.8-8.9
				C125.2,116,126.2,119.2,126.6,122.4z"/>
			<path class="st5" d="M165,162c0.7,6.2-1,8.7-3.6,14.4c-3.4-5.5-4.4-8.5-3.1-14.8c0.7-3.2,2-6.2,3.8-8.9
				C163.6,155.6,164.6,158.8,165,162z"/>
			<path class="st5" d="M142,277.2c-8.5,0.6-18-3.9-17-15C134,263.1,139.7,270.6,142,277.2z"/>
			<path class="st6" d="M126.6,28.7c1.8,6,0.2,13.4-7.8,14.5C118,36.6,122.3,31.3,126.6,28.7z"/>
			<path class="st5" d="M155.7,26.8c0.9-2.8,2.9-5.1,5.2-6.9c2-1.6,4.4-2.9,6.8-3.9c-0.1,0.9-0.2,1.8-0.4,2.6
				c-0.6,3.6-1.5,7.2-3.4,10.4c-1.8,3.2-4.7,5.9-8.2,6.9C155.2,32.9,154.8,29.7,155.7,26.8z"/>
			<path class="st5" d="M134,74.5c0.9-2.8,2.9-5.1,5.2-6.9c2-1.6,4.4-2.9,6.8-3.9c-0.1,0.9-0.2,1.8-0.4,2.6
				c-0.6,3.6-1.5,7.2-3.4,10.4c-1.8,3.2-4.7,5.9-8.2,6.9C133.5,80.6,133,77.4,134,74.5z"/>
			<path class="st5" d="M113.7,82.3c-4.4-1.6-7.2-6.2-7.4-10.9c-0.1-2.2,0.3-4.3,1.1-6.3C113.7,70.5,114.9,75.9,113.7,82.3z"/>
			<path class="st5" d="M209.2,305.2c-4.4-1.6-7.2-6.2-7.4-10.9c-0.1-2.2,0.3-4.3,1.1-6.3C209.2,293.4,210.4,298.8,209.2,305.2z"/>
			<path class="st5" d="M117.9,196.2c-4.5,1.4-9.5-0.7-12.5-4.3c-1.4-1.7-2.3-3.6-2.9-5.7C110.8,186.8,115,190.3,117.9,196.2z"/>
			<path class="st5" d="M121.7,161.9c-4.5,1.3-9.5-0.9-12.4-4.5c-1.3-1.7-2.2-3.7-2.8-5.7C114.8,152.3,119,156,121.7,161.9z"/>
			<path class="st6" d="M79.1,161.5c4.7,0,8.9,3.4,10.7,7.7c0.8,2,1.2,4.1,1.1,6.3C83.1,172.5,80.1,167.9,79.1,161.5z"/>
			<path class="st5" d="M211.1,34.6c4.4,1.6,7.2,6.3,7.3,11c0.1,2.2-0.4,4.3-1.1,6.3C211,46.3,209.8,40.9,211.1,34.6z"/>
			<path class="st6" d="M172.7,227c-1.5,5.2,1,11.1,5.2,14.5c2,1.6,4.3,2.6,6.7,3.3C183.8,235,179.6,230.1,172.7,227z"/>
		</g>
	</g>
</g>
<g>
	<g>
		<g>
			<g>
				<path class="st7" d="M501.7,373.2v1c-0.2,0.4-0.4,0.9-0.6,1.4c-0.2,0.5-0.5,1.1-0.7,1.6c0,0,0,0.1,0,0.1l-5.4,0.3L251.9,398
					c-9.8,0-23.8,3.4-30.3,9c-2.4,2.1-11.5,4.4-22.1,6.9c1.8-11.4,28-8.5,31.9-16.6L501.7,373.2z"/>
				<path class="st7" d="M503.8,442l-75.4,36.6l-234.6-19c-19.6,0-35.5-13.8-35.5-30.8c0-5.4,22.8-10.5,41.2-14.9
					c10.6-2.5,19.8-4.9,22.1-6.9c6.5-5.6,20.5-9,30.3-9l243.2-20.4l5.4-0.3c-3,7.9-5.4,21.1-5.4,32C495.1,423.7,498,434.6,503.8,442
					z"/>
				<path class="st7" d="M502.7,377.1l-2.2,0.1l-5.4,0.3c1.6-1,3.5-1.7,6.1-2c0.2-0.1,0.5-0.1,0.8-0.1L502.7,377.1z"/>
				<path class="st8" d="M502.5,375.5c-2.9,0.3-5.1,1.1-6.9,2.1l7.6-0.5L502.5,375.5z"/>
				<polygon class="st9" points="143.1,413.7 252.7,373.2 505,373.4 429,413.4 				"/>
				<path class="st10" d="M419.9,446.4c0.2-11.4,5.5-22.7,9.1-29.1l0-3.8H143.1c-4.1,8.4-9.6,20.1-9.6,32.9
					c0,14.5,6.2,27.4,11.2,35.9h284.2V478C425.2,469.7,419.9,458.6,419.9,446.4z"/>
				<path class="st10" d="M419.9,446.4c0.2-11.4,5.5-22.7,9.1-29.1l0-3.8H143.1c-4.1,8.4-9.6,20.1-9.6,32.9
					c0,14.5,6.2,27.4,11.2,35.9h284.2V478C425.2,469.7,419.9,458.6,419.9,446.4z"/>
				<g>
					<path class="st9" d="M371.9,477.6H363c-4.3-7.3-9.7-18.5-9.7-31c0-11.1,4.8-21.2,8.3-28.5h8.9c-3.5,7.3-8.3,17.3-8.3,28.5
						C362.2,459.1,367.6,470.3,371.9,477.6z"/>
					<path class="st9" d="M391.3,477.6h-8.9c-4.3-7.3-9.7-18.5-9.7-31c0-11.1,4.8-21.2,8.3-28.5h8.9c-3.5,7.3-8.3,17.3-8.3,28.5
						C381.6,459.1,387,470.3,391.3,477.6z"/>
				</g>
				<path class="st11" d="M429.5,413.4c-0.2,0.3-0.3,0.7-0.5,1v-1H429.5z"/>
				<polygon class="st12" points="429,417.3 505,376.5 505,373.4 429,413.4 				"/>
				<polygon class="st12" points="428.9,482.2 503.7,445.1 503.8,442 428.9,478 				"/>
			</g>
		</g>
		<g>
			<g>
				<path class="st7" d="M453.8,349.4c0-9.5,4.2-21.5,9.6-27c4.7-4.7,6.5-8.8,13.4-9.6l0.6,1.6l-166.3,11.6
					c-8.4,0-20.4,3.4-25.9,8.9c-5.5,5.5-54.2,13.1-54.2,21.5c0,16.8,13.6,30.4,30.4,30.4l160.9,18.7l55-27l0,0
					C462.4,376.7,453.8,364.9,453.8,349.4z"/>
				<path class="st8" d="M476.8,312.8c-2.5,0.3-4.3,1.1-5.9,2.1l6.5-0.5L476.8,312.8z"/>
				<polygon class="st13" points="200.9,341.6 292.3,310.8 478.9,310.8 422.4,341.3 				"/>
				<g>
					<path class="st11" d="M305.6,399.4l0-2.1l-3.4-0.7l3.4,0.7l-0.9-39l-18.3,1.9l16.3-9l3.6,1.7l1.9-3.8l38.7-4.1v-3.8H204.5
						c-9,0-17.5,3.5-24,9.9c-6.4,6.4-9.9,15-9.9,24c0,18.7,15.2,33.9,33.9,33.9h142.3v-3.6l-41.2-8.2L305.6,399.4z"/>
					<path class="st11" d="M381.1,399.4l0-2.1l-3.4-0.7l3.4,0.7l-0.9-39l-18.3,1.9l16.3-9l3.6,1.7l1.9-3.8l38.7-4.1v-3.8H205.3
						c-9,0-17.5,3.5-24,9.9c-6.4,6.4-9.9,15-9.9,24c0,18.7,15.2,33.9,33.9,33.9h217.1v-3.6l-41.2-8.2L381.1,399.4z"/>
					<path class="st14" d="M395.7,375.2c0-8.4,3.4-16,8.9-21.5c4.7-4.7,10.9-7.8,17.8-8.6v-0.3H205.3c-8.4,0-16,3.4-21.5,8.9
						c-5.5,5.5-8.9,13.1-8.9,21.5c0,16.8,13.6,30.4,30.4,30.4h217.1v-0.3C407.4,403.5,395.7,390.7,395.7,375.2z"/>
					<path class="st15" d="M422.4,344.8H205.3c-6,0-11.6,1.8-16.3,4.8h220.8c3.7-2.4,8-4,12.6-4.5V344.8z"/>
					<line class="st16" x1="188" y1="355.4" x2="399.8" y2="355.4"/>
					<line class="st16" x1="181.9" y1="364.2" x2="396.4" y2="364.2"/>
					<line class="st16" x1="180.9" y1="383.3" x2="395.3" y2="383.3"/>
					<line class="st16" x1="179.2" y1="373.8" x2="393.7" y2="373.8"/>
					<line class="st16" x1="185.1" y1="392.8" x2="399.6" y2="392.8"/>
					<line class="st16" x1="195.2" y1="401.3" x2="405.9" y2="401.3"/>
				</g>
				<polygon class="st17" points="422.4,345.1 478.9,313.9 478.9,310.8 422.4,341.3 				"/>
				<polygon class="st17" points="422.4,409.1 477.8,381.4 477.9,378.4 422.4,405.3 				"/>
			</g>
		</g>
		<g>
			<polygon class="st18" points="165.6,302.8 283.5,261.4 444.5,261.4 316.1,302.8 			"/>
			<g>
				<g>
					<path class="st19" d="M452.1,281.2c0,9-3.2,18.6-7.4,21.5l-128.6,44.7v-44.5c2.1-0.5,126.5-41,128.4-41.4
						C446.9,262.9,452.1,272,452.1,281.2z"/>
				</g>
			</g>
			<g>
				<path class="st20" d="M411.2,273c-0.2,0.1-2.2,0.7-5.5,1.7c0,0,0,0,0,0c2.3,1.5,6.6,10.7,6.6,19.8c0,8.7-3.1,18.1-7.1,21
					l6.2-2.2c4.1-2.8,7.2-12.2,7.2-21C418.6,283.4,413.5,274.5,411.2,273z"/>
			</g>
			<g>
				<path class="st20" d="M423.4,269c-0.2,0.1-2.2,0.7-5.5,1.7c0,0,0,0,0,0c2.3,1.5,6.6,10.7,6.6,19.8c0,8.7-3.1,18.1-7.1,21
					l6.2-2.2c4.1-2.8,7.2-12.2,7.2-21C430.8,279.4,425.7,270.5,423.4,269z"/>
			</g>
			<path class="st14" d="M324.8,325.3c0,10.2-3.4,18.9-8.1,22.1H166.1c4.7-3.2,8.1-11.9,8.1-22.1c0-10.6-3.6-19.5-8.6-22.5h150.6
				C321.1,305.8,324.8,314.7,324.8,325.3z"/>
			<line class="st21" x1="174.4" y1="306.6" x2="315.9" y2="306.6"/>
			<line class="st21" x1="176.1" y1="312.6" x2="317.5" y2="312.6"/>
			<line class="st21" x1="177.7" y1="318.6" x2="319.2" y2="318.6"/>
			<line class="st21" x1="179.3" y1="324.6" x2="320.8" y2="324.6"/>
			<line class="st21" x1="179.9" y1="330.6" x2="322.4" y2="330.6"/>
			<line class="st21" x1="177.7" y1="336.6" x2="319.2" y2="336.6"/>
			<line class="st21" x1="174.4" y1="342.6" x2="315.9" y2="342.6"/>
		</g>
		<g>
			<g>
				<path class="st7" d="M439.8,239c0-8.3,3.6-18.7,8.4-23.5c4.1-4,5.6-7.6,11.6-8.3l0.5,1.4l-144.4,10.1c-7.3,0-17.7,3-22.5,7.7
					c-4.8,4.8-47,11.4-47,18.7c0,14.6,11.8,26.4,26.4,26.4l139.8,16.2l47.8-23.4l0,0C447.2,262.7,439.8,252.5,439.8,239z"/>
				<path class="st8" d="M459.7,207.2c-2.2,0.3-3.8,0.9-5.1,1.8l5.6-0.4L459.7,207.2z"/>
				<polygon class="st22" points="220.1,232.2 299.5,205.5 461.6,205.5 412.5,232 				"/>
				<g>
					<path class="st23" d="M311,282.5l0-1.8l-3-0.6l3,0.6l-0.8-33.9l-15.9,1.7l14.1-7.8l3.1,1.5l1.6-3.3l33.6-3.5V232H223.3
						c-7.8,0-15.2,3.1-20.8,8.6c-5.5,5.6-8.6,13-8.6,20.8c0,16.2,13.2,29.5,29.5,29.5h123.6v-3.2l-35.8-7.1L311,282.5z"/>
					<path class="st23" d="M376.6,282.5l0-1.8l-3-0.6l3,0.6l-0.8-33.9l-15.9,1.7l14.1-7.8l3.1,1.5l1.6-3.3l33.6-3.5V232H223.9
						c-7.8,0-15.2,3.1-20.8,8.6c-5.5,5.6-8.6,13-8.6,20.8c0,16.2,13.2,29.5,29.5,29.5h188.6v-3.2l-35.8-7.1L376.6,282.5z"/>
					<path class="st14" d="M389.3,261.4c0-7.3,3-13.9,7.7-18.7c4.1-4,9.5-6.8,15.4-7.5V235H223.9c-7.3,0-13.9,3-18.7,7.7
						c-4.8,4.8-7.7,11.4-7.7,18.7c0,14.6,11.8,26.4,26.4,26.4h188.6v-0.2C399.5,286,389.3,274.9,389.3,261.4z"/>
					<path class="st15" d="M412.5,235H223.9c-5.2,0-10.1,1.5-14.2,4.1h191.8c3.2-2,6.9-3.4,10.9-3.9V235z"/>
					<line class="st24" x1="208.9" y1="244.2" x2="392.9" y2="244.2"/>
					<line class="st24" x1="203.6" y1="251.8" x2="389.9" y2="251.8"/>
					<line class="st24" x1="202.7" y1="268.4" x2="389" y2="268.4"/>
					<line class="st24" x1="201.3" y1="260.2" x2="387.5" y2="260.2"/>
					<line class="st24" x1="206.4" y1="276.7" x2="392.7" y2="276.7"/>
					<line class="st24" x1="215.1" y1="284" x2="398.2" y2="284"/>
				</g>
				<polygon class="st25" points="412.5,235.2 461.6,208.1 461.6,205.5 412.5,232 				"/>
				<polygon class="st25" points="412.5,290.9 460.6,266.8 460.7,264.2 412.5,287.6 				"/>
			</g>
		</g>
	</g>
	<g>
		<g>
			<path class="st26" d="M18.4,473.1c-3.8,1-7.9,1.2-11.8,2c-0.5,0.1-1.2,0.3-1.4,0.8C5,476.2,5,476.6,5.1,477
				c0.5,2.3,3,3.6,5.3,4.2c5.1,1.3,10.4,0.7,15.6,0c2.2-0.3,4.4-0.4,6.6-0.7c1.7-0.3,3.4-0.5,5.1-0.8c0.8-0.1,1.6-0.3,2.2-0.8
				c0.6-0.5,0.8-1.4,0.7-2.1c-0.1-1.2-0.5-2.6-0.7-3.8c-5.2,0.6-10.6-0.5-16.1-2.3C22.2,471.7,20.3,472.5,18.4,473.1z"/>
			<path class="st27" d="M39.6,468.1c0.2-1.5,0.8-3,1.9-3.9c-3.9,0.1-7.8,0.3-11.7,0.4c-0.4,0-0.8,0-1.2,0.3c-0.3,0.2-0.6,0.7-0.4,1
				l-0.5,0.4c-0.9,1.8-2.3,3.2-3.9,4.3c5.5,1.8,10.8,2.8,16.1,2.3c0-0.1,0-0.2,0-0.3C39.7,471.1,39.5,469.6,39.6,468.1z"/>
		</g>
		<g>
			<path class="st26" d="M39.3,491.7c-1.5,0.5-3.1,0.9-4.6,1.3c-2.4,0.6-4.6,0.4-7,0.7c-0.6,0.1-1.2,0.2-1.5,0.7
				c-0.2,0.3-0.2,0.8-0.2,1.2c0.3,2.3,2.7,3.8,5,4.5c4.7,1.5,9.2,1.1,14,1.2c4.9,0.1,9.5,0.7,14.4-0.4c0.6-0.1,1.2-0.3,1.6-0.7
				c0.8-0.7,0.8-1.9,0.6-2.9c-0.3-1.7,0.2-2.8-1.4-3.4c-1-0.3-2.2-0.2-3.2-0.4c-1.9-0.3-3.8-0.5-5.6-1c-3.1-0.9-5.7-2.8-8.9-1.8
				C41.4,491.1,40.3,491.4,39.3,491.7z"/>
			<path class="st27" d="M61.1,489.1c0.3-1.5,1-2.9,2.2-3.8c-3.9-0.2-7.8-0.3-11.7-0.4c-0.4,0-0.8,0-1.2,0.2c-0.4,0.2-0.6,0.6-0.4,1
				l-0.5,0.3c-1,1.7-2.5,3-4.2,4c5.3,2.2,10.6,3.6,15.9,3.4c0-0.1,0-0.2,0-0.3C61,492.1,60.9,490.6,61.1,489.1z"/>
		</g>
		<path class="st28" d="M91.1,423.6c0,0-12.6-9.2-27.4-2.8c-14.8,6.4-38.5,45.5-38.5,45.5s17.3,9.2,17.1,8
			c-0.2-1.2,28.1-35.6,33.8-35.6c5.6-0.1,18,8,18,8l13.1-3.9l-1.8-17L91.1,423.6z"/>
		<path class="st29" d="M136.9,389.9c0,0-7.1,40.9-16.2,43.4c0,0-16.7-7.6-29.7-14.8l0.3,9.4c0,0,21.7,21.7,39.4,16.7
			c17.7-5,17.2-27.3,17.2-27.3L136.9,389.9z"/>
		<path class="st11" d="M138.6,386.8c-1.9,2-2.8,4.3-3.2,7c-0.7,4.7-2.5,41.2-12.8,57.8c9.8,4.2,19.8,8.9,30.8,9.2
			c4.1,0.1,8.3-0.4,12.3,0.2c0.4-2.7,2.7-5.6,3.9-8c1.8-3.5,3.3-7.1,5-10.7c3.7-7.9,4.8-16.7,4.3-25.3c-0.5-8.5-2.5-14.8-7.7-21.8
			C161.7,382.8,141.6,383.6,138.6,386.8z"/>
		<path class="st30" d="M154,394.1c1.3-0.8,2.6-1.8,3.2-3.2c0.4-0.9,0.6-1.8,0.7-2.8c0.2-2.1-0.1-4.2-0.9-6.1
			c-0.1-0.3-0.3-0.6-0.6-0.8c-0.3-0.1-0.6-0.1-0.9,0c-2.7,0.6-5.1,2-7.3,3.6c-1.6,1.1-3.1,2.4-4.1,4.1c-1.2,2.2-1.5,5.5,1.2,6.3
			C148.2,396,151.5,395.5,154,394.1z"/>
		<g>
			<path class="st31" d="M138,348.3c-8.3,2.3-16,9.6-16.8,18.4c-0.4,4.2,1.1,7.8,2,11.8c0.3,1.2,0.8,2.4,0.7,3.7
				c-0.1,1.1-1.4,2.8-1.1,3.8c0.7,2.5,4.8,2.3,6.7,3.8c2.6,2.1,3.6,4.8,7,6c5,1.7,9.1-0.7,13-3.5c2.5-1.8,4.7-4,6.6-6.5
				c1.5-2,3.9-4.9,3.7-7.5c-0.2-2.7-0.4-5.3-0.4-8c0-3.9-2.1-8.3-3.5-11.8c-1.3-3.1-2.8-6.8-5.7-8.7
				C146.8,347.5,141.8,347.3,138,348.3z"/>
			<path class="st32" d="M133.6,349.5c-6.6,2.5-13.8,7.4-17.2,13.8c-0.5,1-1,2-1.1,3.2c-0.3,2.3,0.8,4.6,2.5,6.1
				c1.7,1.5,4,2.2,6.3,2.3c-2-2-1.9-5.7,0.2-7.5c2,2.6,5.3,3.1,8.4,2.5c3.5-0.7,6.7-2.6,10.2-3.1c3.4-0.5,4,3.3,4.2,6
				c1.4-0.6,2.2-4.1,4.1-2.3c1.4,1.3,0.4,5.7-1.6,5.9c1.8,3.7,4.2,8.7,8.6,9.7c-0.2-2,1.1-3.3,1.9-4.9c1.2-2.3,1.3-4.9,1.7-7.5
				c1-7.1-0.5-15.6-5.8-20.7c-1.6-1.6-3.4-2.7-5.2-3.9c-1.6-1-3.6-1.5-5.6-1.7c-3.2-0.3-6.6,0.4-9.7,1.4
				C135,349,134.3,349.2,133.6,349.5z"/>
		</g>
		<g>
			<polygon class="st20" points="73,425.3 62.6,407 106.6,419.9 80.9,427.4 			"/>
			<path class="st33" d="M67,408.1l-2.4-1.2c0,0,10.4,13.8,10,18.3l3.6-5l-1-6.2c0,0-4.5-2.8-4.6-3.1C72.4,410.8,67,408.1,67,408.1z
				"/>
			<path class="st34" d="M74.1,425.5c0,0,2.3-4.5-0.8-10.5c-1.9-3.7-4.5-4.1-8.8-8.5l36.7,10.8l-6.3,7.6L74.1,425.5z"/>
			<path class="st35" d="M103,410.7c-7.9,4.5-16,8.6-24.2,12.3c-1,0.4-3.7,2-4.6,1.3c0.4-1.6,3-3.4,4.3-4.4c1.6-1.4,3.4-2.6,5.3-3.7
				c3.7-2.2,7.8-3.8,12.1-4.7C98.2,411,100.6,410.7,103,410.7z"/>
			<polygon class="st19" points="73,425.3 101,408.3 140.9,432.9 118,450.2 			"/>
		</g>
		<path class="st22" d="M165.6,461.1c1.3,0.4-6.3,13.2-6.9,14c-7.6,8.9-22,12.9-32.8,7.8c-6.9-3.3-13.3-8.6-18.4-14.1
			c-3.2-3.5-6.9-6.7-10.9-9.3c-0.5-0.3-0.9-0.6-1.4-0.8c-1.7-0.6-3.6-0.1-5,0.9c-1.4,1-2.5,2.5-3.5,3.9c-3.5,5-7.7,9.2-11.1,14.2
			c-3.2,4.7-5.7,10-9.3,14.4c-0.7,0.9-1.4,1.9-2.5,2.3c-1,0.3-2.1,0.1-3.1-0.1c-6-1.4-11.7-3.7-17-6.8c9.6-17.4,20-34.3,31.1-50.7
			c1.5-2.2,3-4.4,5.4-5.6c1.8-0.9,4-1.1,6.1-1.1c20.2-0.1,35.5,16.6,53.9,22.7C140,452.6,165.6,461.1,165.6,461.1z"/>
		<g>
			<path class="st31" d="M110.7,433.5c-0.5-0.6-1-1.3-1.5-1.9c-1.4-1.6-3-2.9-4.1-4.8c-0.9,0.9-1,2.4-0.3,3.4c0.4,0.5,1,1.1,0.7,1.7
				c-3.7-1.6-7.4-3.3-11.2-4.9c-0.5,4.4,1.3,9,4.6,12s8.1,4.1,12.5,3.1c1.2-0.3,4.1-1.1,4-2.8c0-0.4-0.2-0.8-0.4-1.1
				c-0.2-0.4-0.5-0.9-0.9-1.2c-0.3-0.3-0.6-0.5-0.9-0.7C112.2,435.4,111.4,434.4,110.7,433.5z"/>
			<path class="st36" d="M168.1,395.3c-1-0.6-5.5-0.7-9.1,6.8c-3.6,7.5-9,37.5-9,37.5s-23.9-2.6-38-5.1l0.3,9.5
				c0,0,42.7,19.2,53.3,6.5C176.2,437.8,180.8,402.9,168.1,395.3z"/>
		</g>
	</g>
</g>
</svg>
