<?xml version="1.0" encoding="utf-8"?>
<!-- Generator: Adobe Illustrator 23.0.3, SVG Export Plug-In . SVG Version: 6.00 Build 0)  -->
<svg version="1.1"
	 id="svg1306" inkscape:output_extension="org.inkscape.output.svg.inkscape" inkscape:version="0.45" sodipodi:docbase="/home/dobey/Projects/gnome-icon-theme/scalable/status" sodipodi:docname="weather-few-clouds-night.svg" sodipodi:version="0.32" xmlns:cc="http://web.resource.org/cc/" xmlns:dc="http://purl.org/dc/elements/1.1/" xmlns:inkscape="http://www.inkscape.org/namespaces/inkscape" xmlns:rdf="http://www.w3.org/1999/02/22-rdf-syntax-ns#" xmlns:sodipodi="http://sodipodi.sourceforge.net/DTD/sodipodi-0.dtd" xmlns:svg="http://www.w3.org/2000/svg"
	 xmlns="http://www.w3.org/2000/svg" xmlns:xlink="http://www.w3.org/1999/xlink" x="0px" y="0px" viewBox="0 0 48 48"
	 style="enable-background:new 0 0 48 48;" xml:space="preserve">
<style type="text/css">
	.st0{opacity:0.15;enable-background:new    ;}
	.st1{fill:url(#path3174_1_);stroke:#729FCF;stroke-linecap:round;}
	.st2{fill:none;stroke:#FFFFFF;stroke-linecap:round;stroke-linejoin:round;}
	.st3{fill-rule:evenodd;clip-rule:evenodd;fill:url(#path5162_1_);}
	.st4{fill-rule:evenodd;clip-rule:evenodd;fill:url(#path1314_1_);stroke:#888A85;stroke-width:1.3402;stroke-linejoin:round;}
	.st5{opacity:0.3315;fill-rule:evenodd;clip-rule:evenodd;fill:url(#path5152_1_);enable-background:new    ;}
	.st6{opacity:0.809;fill:none;stroke:url(#path2044_1_);stroke-width:1.4272;stroke-linejoin:round;enable-background:new    ;}
	.st7{opacity:0.6461;fill-rule:evenodd;clip-rule:evenodd;fill:url(#path5150_1_);enable-background:new    ;}
	
		.st8{opacity:0.3315;fill-rule:evenodd;clip-rule:evenodd;fill:#555555;stroke:#888984;stroke-width:1.1547;stroke-linecap:round;stroke-linejoin:round;enable-background:new    ;}
	.st9{opacity:0.7191;fill-rule:evenodd;clip-rule:evenodd;fill:#383838;enable-background:new    ;}
	.st10{opacity:0.7191;fill-rule:evenodd;clip-rule:evenodd;fill:#555555;enable-background:new    ;}
	.st11{opacity:0.7191;fill-rule:evenodd;clip-rule:evenodd;fill:#787878;enable-background:new    ;}
	.st12{opacity:5.000000e-02;enable-background:new    ;}
	.st13{fill:url(#path3252_1_);stroke:#729FCF;stroke-linecap:round;}
	.st14{fill:none;stroke:#FFFFFF;stroke-linecap:round;}
	.st15{fill:url(#path3219_1_);stroke:#729FCF;stroke-linecap:round;}
</style>
<sodipodi:namedview  bordercolor="#666" borderopacity="0.19215686" id="base" inkscape:current-layer="layer1" inkscape:cx="39.860427" inkscape:cy="52.299698" inkscape:document-units="px" inkscape:grid-bbox="true" inkscape:pageopacity="0.0" inkscape:pageshadow="2" inkscape:showpageshadow="false" inkscape:window-height="815" inkscape:window-width="810" inkscape:window-x="719" inkscape:window-y="222" inkscape:zoom="2.8284271" pagecolor="#ffffff" showborder="true" showgrid="false">
	</sodipodi:namedview>
<g id="layer1" inkscape:groupmode="layer" inkscape:label="Layer 1">
	
		<path id="path3109" inkscape:original="M 39 18.46875 C 38.173595 18.46875 37.5 19.166962 37.5 20 C 37.5 20.197846 37.556235 20.358064 37.625 20.53125 C 36.026411 20.701636 34.741539 21.937334 34.53125 23.53125 C 33.308684 23.693337 32.298651 24.476006 31.8125 25.5625 C 31.576112 25.595658 31.349609 25.653704 31.125 25.71875 C 30.687793 24.990958 29.91027 24.5 29 24.5 C 27.738095 24.5 26.700779 25.440798 26.53125 26.65625 C 25.897448 25.958209 25.013286 25.5 24 25.5 C 23.912608 25.5 23.835785 25.524924 23.75 25.53125 C 22.946399 24.31727 21.563852 23.5 20 23.5 C 19.43911 23.5 18.901379 23.624303 18.40625 23.8125 C 18.11803 22.604658 17.09423 21.679072 15.84375 21.53125 C 14.887957 20.885353 13.739584 20.5 12.5 20.5 C 9.8486673 20.5 7.5995352 22.23612 6.8125 24.625 C 6.5463474 24.559933 6.2861078 24.5 6 24.5 C 4.5960395 24.5 3.3968547 25.36604 2.84375 26.5625 C 2.7326599 26.543076 2.6165753 26.5 2.5 26.5 C 1.4024473 26.5 0.50000001 27.394185 0.5 28.5 C 0.5 29.605816 1.4024472 30.531251 2.5 30.53125 C 2.8233237 30.53125 3.136302 30.45065 3.40625 30.3125 C 4.0451444 31.026455 4.9672496 31.500001 6 31.5 C 6.8535947 31.5 7.6122756 31.165925 8.21875 30.65625 C 9.3071867 31.777081 10.815437 32.5 12.5 32.5 C 12.913195 32.5 13.329041 32.454813 13.71875 32.375 C 14.042508 33.039477 14.716159 33.531251 15.5 33.53125 C 16.53411 33.53125 17.373877 32.704533 17.46875 31.6875 C 17.618708 31.790967 17.776046 31.882383 17.9375 31.96875 C 18.449624 32.868937 19.392758 33.5 20.5 33.5 C 21.177794 33.500001 21.810481 33.255144 22.3125 32.875 C 23.041696 33.855912 24.184715 34.5 25.5 34.5 C 26.620181 34.5 27.617384 34.024031 28.34375 33.28125 C 29.24258 34.61133 30.774997 35.5 32.5 35.5 C 33.990289 35.500001 35.302456 34.816645 36.21875 33.78125 C 36.67125 34.23375 37.31 34.5 38 34.5 C 39.011116 34.499999 39.88756 33.895497 40.28125 33.03125 C 40.787002 33.316797 41.378164 33.5 42 33.5 C 43.037532 33.5 43.954595 33.032217 44.59375 32.3125 C 44.865856 32.453479 45.173155 32.53125 45.5 32.53125 C 46.597553 32.531251 47.5 31.605816 47.5 30.5 C 47.500001 29.394185 46.597553 28.5 45.5 28.5 C 45.373115 28.5 45.245301 28.539575 45.125 28.5625 C 44.761543 27.77628 44.14348 27.150944 43.34375 26.8125 C 43.433344 26.554504 43.5 26.288584 43.5 26 C 43.5 24.770719 42.60081 23.772017 41.4375 23.5625 C 41.312758 22.54936 40.764951 21.680113 39.96875 21.125 C 40.287361 20.848182 40.5 20.456946 40.5 20 C 40.5 19.166962 39.826406 18.46875 39 18.46875 z " inkscape:radius="0.50097561" sodipodi:type="inkscape:offset" class="st0" d="
		M39,19c-1.1,0-2,0.9-2,2c0,0.1,0,0.1,0,0.2c-1.4,0.4-2.5,1.5-2.9,2.9c-1.2,0.3-2.1,1-2.7,2c-0.1,0-0.1,0-0.2,0.1
		C30.7,25.5,29.9,25,29,25c-1.2,0-2.3,0.8-2.7,1.8C25.6,26.4,24.9,26,24,26c0,0,0,0-0.1,0c-0.9-1.2-2.3-2-3.9-2
		c-0.5,0-0.9,0.1-1.3,0.3c-0.5-1.2-1.5-2-2.8-2.2c0,0,0,0-0.1,0c-1-0.6-2.1-1-3.4-1c-2.7,0-5,1.7-6,4.1C6.4,25,6.2,25,6,25
		c-1.5,0-2.7,0.8-3.4,2c0,0,0,0-0.1,0C1.1,27,0,28.1,0,29.5C0,30.9,1.1,32,2.5,32c0.3,0,0.5-0.1,0.8-0.2C4,32.5,4.9,33,6,33
		c0.8,0,1.6-0.3,2.2-0.8c1.1,1,2.6,1.8,4.3,1.8c0.4,0,0.7,0,1-0.1c0.4,0.6,1.1,1.1,2,1.1c1,0,1.9-0.7,2.3-1.6
		c0.6,0.9,1.6,1.5,2.8,1.5c0.7,0,1.2-0.2,1.8-0.5c0.8,0.9,1.9,1.5,3.3,1.5c1.1,0,2-0.4,2.8-1.1c1,1.2,2.5,2.1,4.3,2.1
		c1.5,0,2.8-0.7,3.8-1.6c0.5,0.4,1.1,0.6,1.8,0.6c1,0,1.9-0.6,2.4-1.4c0.5,0.2,1,0.4,1.6,0.4c1.1,0,2-0.5,2.7-1.2
		c0.3,0.1,0.5,0.2,0.8,0.2c1.4,0,2.5-1.2,2.5-2.5c0-1.4-1.1-2.5-2.5-2.5c-0.1,0-0.1,0-0.1,0c-0.4-0.6-0.9-1.1-1.5-1.4
		c0-0.2,0.1-0.4,0.1-0.6c0-1.4-0.9-2.5-2.2-2.8c-0.2-0.8-0.6-1.5-1.2-2.1c0.2-0.3,0.4-0.7,0.4-1.1C41,19.9,40.1,19,39,19z"/>
	<g id="g3333" transform="translate(0,2)">
		
			<radialGradient id="path3174_1_" cx="-48.021" cy="-394.4608" r="15" gradientTransform="matrix(1.0902 -1.249946e-02 -5.362702e-03 -0.4677 59.6148 -163.4978)" gradientUnits="userSpaceOnUse">
			<stop  offset="0" style="stop-color:#FFFFFF"/>
			<stop  offset="0.5" style="stop-color:#FFFFFF"/>
			<stop  offset="1" style="stop-color:#D3D7CF"/>
		</radialGradient>
		<path id="path3174" class="st1" d="M12.5,18.5c-2.7,0-4.9,1.7-5.7,4.1c-0.3-0.1-0.5-0.1-0.8-0.1c-1.4,0-2.6,0.9-3.2,2.1
			c-0.1,0-0.2-0.1-0.3-0.1c-1.1,0-2,0.9-2,2s0.9,2,2,2c0.3,0,0.6-0.1,0.9-0.2C4,29,5,29.5,6,29.5c0.9,0,1.6-0.3,2.2-0.8
			c1.1,1.1,2.6,1.8,4.3,1.8c0.4,0,0.8,0,1.2-0.1c0.3,0.7,1,1.2,1.8,1.2c1,0,1.9-0.8,2-1.8c0.7,0.5,1.6,0.8,2.5,0.8
			c0.8,0,1.5-0.2,2.1-0.6c0.5,0.4,1.2,0.6,1.9,0.6c0.8,0,1.5-0.2,2-0.7c0.4,0.4,0.9,0.7,1.5,0.7c1.1,0,2-0.9,2-2c0-1.1-0.9-2-2-2
			c0,0,0,0-0.1,0c-0.2-1.7-1.7-3-3.4-3c-0.1,0-0.2,0-0.3,0c-0.8-1.2-2.2-2-3.8-2c-0.6,0-1.1,0.1-1.6,0.3c-0.3-1.2-1.3-2.1-2.6-2.3
			C14.9,18.9,13.7,18.5,12.5,18.5z"/>
		
			<path id="path3313" inkscape:original="M 12.5 18.5 C 9.8486673 18.5 7.5995352 20.23612 6.8125 22.625 C 6.5463474 22.559933 6.2861078 22.5 6 22.5 C 4.5960395 22.5 3.3968547 23.36604 2.84375 24.5625 C 2.7326599 24.543076 2.6165753 24.5 2.5 24.5 C 1.4024473 24.5 0.50000001 25.394185 0.5 26.5 C 0.5 27.605816 1.4024472 28.531251 2.5 28.53125 C 2.8233237 28.53125 3.136302 28.45065 3.40625 28.3125 C 4.0451444 29.026455 4.9672496 29.500001 6 29.5 C 6.8535947 29.5 7.6122756 29.165925 8.21875 28.65625 C 9.3071867 29.777081 10.815437 30.5 12.5 30.5 C 12.913195 30.5 13.329041 30.454813 13.71875 30.375 C 14.042508 31.039477 14.716159 31.531251 15.5 31.53125 C 16.53411 31.53125 17.373877 30.704533 17.46875 29.6875 C 18.192123 30.186611 19.055293 30.5 20 30.5 C 20.761556 30.5 21.465242 30.272629 22.09375 29.9375 C 22.643509 30.299406 23.29306 30.5 24 30.5 C 24.761287 30.5 25.457534 30.258145 26.03125 29.84375 C 26.395332 30.252063 26.912742 30.53125 27.5 30.53125 C 28.597553 30.53125 29.500001 29.605816 29.5 28.5 C 29.5 27.394184 28.597553 26.499999 27.5 26.5 C 27.479381 26.5 27.457968 26.499371 27.4375 26.5 C 27.188535 24.818105 25.750767 23.5 24 23.5 C 23.912608 23.5 23.835785 23.524924 23.75 23.53125 C 22.946399 22.31727 21.563852 21.5 20 21.5 C 19.43911 21.5 18.901379 21.624303 18.40625 21.8125 C 18.11803 20.604658 17.09423 19.679072 15.84375 19.53125 C 14.887957 18.885353 13.739584 18.5 12.5 18.5 z " inkscape:radius="-1.0109413" sodipodi:type="inkscape:offset" class="st2" d="
			M12.5,19.5c-2.2,0-4.1,1.5-4.7,3.4c-0.2,0.5-0.7,0.8-1.2,0.7c-0.3-0.1-0.4-0.1-0.6-0.1c-1,0-1.9,0.6-2.3,1.5
			c-0.2,0.4-0.6,0.6-1.1,0.6c-0.2,0-0.3-0.1-0.2-0.1c-0.5,0-1,0.4-1,1s0.5,1,1,1c0.2,0,0.3-0.1,0.4-0.1c0.4-0.2,0.9-0.1,1.2,0.2
			c0.5,0.5,1.1,0.9,1.8,0.9c0.6,0,1.1-0.2,1.6-0.6c0.4-0.3,1-0.3,1.4,0.1c0.9,0.9,2.2,1.6,3.6,1.6c0.3,0,0.7-0.1,1-0.1
			c0.4-0.1,0.9,0.1,1.1,0.6c0.2,0.3,0.5,0.6,0.9,0.6c0.5,0,0.9-0.4,1-0.9c0-0.4,0.2-0.7,0.6-0.8c0.3-0.2,0.7-0.1,1,0.1
			c0.6,0.4,1.2,0.7,2,0.7c0.6,0,1.1-0.2,1.6-0.5c0.3-0.2,0.7-0.1,1,0.1c0.4,0.3,0.8,0.4,1.3,0.4c0.5,0,1-0.2,1.4-0.5
			c0.4-0.3,1-0.3,1.3,0.1c0.2,0.2,0.5,0.4,0.7,0.4c0.5,0,1-0.5,1-1c0-0.6-0.5-1-1-1c0,0-0.1,0,0,0c-0.5,0-0.9-0.3-1-0.8
			c-0.2-1.2-1.2-2.2-2.4-2.2c0.1,0,0,0-0.2,0c-0.4,0-0.7-0.1-0.9-0.4c-0.6-0.9-1.7-1.6-2.9-1.6c-0.4,0-0.8,0.1-1.3,0.3
			c-0.3,0.1-0.6,0.1-0.8-0.1c-0.2-0.1-0.4-0.4-0.5-0.6c-0.2-0.8-0.9-1.4-1.7-1.5c-0.2,0-0.3-0.1-0.4-0.2
			C14.5,19.8,13.5,19.5,12.5,19.5z"/>
	</g>
	<g id="g2073">
		
			<radialGradient id="path5162_1_" cx="23.6881" cy="26.572" r="22.4506" gradientTransform="matrix(1 0 0 -1 -0.1464 50.1036)" gradientUnits="userSpaceOnUse">
			<stop  offset="0" style="stop-color:#FFFFFF"/>
			<stop  offset="1" style="stop-color:#FFFFFF;stop-opacity:0"/>
		</radialGradient>
		
			<path id="path5162" sodipodi:cx="23.688078" sodipodi:cy="23.42804" sodipodi:rx="22.45064" sodipodi:ry="22.45064" sodipodi:type="arc" class="st3" d="
			M46,23.5C46,35.9,35.9,46,23.5,46S1.1,35.9,1.1,23.5S11.1,1.1,23.5,1.1S46,11.1,46,23.5z"/>
		
			<radialGradient id="path1314_1_" cx="-22.7946" cy="68.1253" r="22.813" gradientTransform="matrix(1.0749 0 0 -1.0749 48.5679 85.1251)" gradientUnits="userSpaceOnUse">
			<stop  offset="0" style="stop-color:#333333"/>
			<stop  offset="1" style="stop-color:#434343"/>
		</radialGradient>
		
			<path id="path1314" sodipodi:cx="23.071428" sodipodi:cy="23.142857" sodipodi:rx="22.142857" sodipodi:ry="22.142857" sodipodi:type="arc" class="st4" d="
			M40.6,24c0,9.1-7.4,16.5-16.5,16.5S7.5,33.1,7.5,24c0-9.1,7.4-16.5,16.5-16.5S40.6,14.9,40.6,24z"/>
		
			<radialGradient id="path5152_1_" cx="-235.5733" cy="69.3719" r="15.75" gradientTransform="matrix(1.652 0 0 -1.0882 413.2954 89.2426)" gradientUnits="userSpaceOnUse">
			<stop  offset="0" style="stop-color:#555555;stop-opacity:0.1"/>
			<stop  offset="1" style="stop-color:#555555"/>
		</radialGradient>
		<path id="path5152" sodipodi:nodetypes="cssssssszsscscsscccssssccc" class="st5" d="M10.9,25c0,0,2.6,1.2,2.6,2.1
			s-2.3,0.3-2.5,1.5s0.3,3.2,1.8,3.3s1.8-2.4,4.1-3.1s4,1.5,5,0.4s-1.2-2.6-1-4.8s0.5-1.7,1.6-2.4s1.5,1.7,2.8-0.4
			c1.2-2.1-2.5-1.3-2.4-2.8s1.1-3,3-2.9s4.6,3.3,4.6,3.3c1.2,1.2,0,3.4,0.6,5c0.7,1.8,2.6,1.7,3.9,1.8c0,0-1.9-2.2-1.6-3.5
			s1.4-2.7,2.8-1.9s2.8,5.1,2.8,5.1l1-4.4L37.8,16c0,0-3,1.1-6.4,0.4s-3.7-3.3-7-3.1s-3.6,3.5-6.3,3.8s-3.4-1.2-4.3-2.6
			s0.8-3.3,0.8-3.3l-6.3,8.5L10.9,25z"/>
		
			<radialGradient id="path2044_1_" cx="-356.5252" cy="246.0902" r="22.8564" gradientTransform="matrix(2.3635 0 0 -2.3634 866.7083 597.1426)" gradientUnits="userSpaceOnUse">
			<stop  offset="0" style="stop-color:#FFFFFF"/>
			<stop  offset="1" style="stop-color:#FFFFFF;stop-opacity:0"/>
		</radialGradient>
		
			<path id="path2044" sodipodi:cx="23.071428" sodipodi:cy="23.142857" sodipodi:rx="22.142857" sodipodi:ry="22.142857" sodipodi:type="arc" class="st6" d="
			M39.6,24c0,8.6-6.9,15.5-15.5,15.5S8.6,32.6,8.6,24S15.5,8.5,24.1,8.5S39.6,15.5,39.6,24z"/>
		
			<radialGradient id="path5150_1_" cx="-196.5023" cy="56.954" r="9.9375" gradientTransform="matrix(1.4981 0 0 -1.1307 316.6778 98.1581)" gradientUnits="userSpaceOnUse">
			<stop  offset="0" style="stop-color:#DADAD9"/>
			<stop  offset="1" style="stop-color:#DADAD9;stop-opacity:0"/>
		</radialGradient>
		<path id="path5150" sodipodi:nodetypes="ccccccccccccccccccc" class="st7" d="M22.6,27c0.4,1.6,0.9,2.6,1.4,3.6
			c1.6-0.1,2.8-0.9,4-1.8c-0.7,1.5-1.6,2.9-2.6,4.2c2.3,0.9,4.4,0.7,6.4,0c-1.4,1.2-2.8,2.1-5.7,2.4c2.1,0.6,4.4,1.4,7.3,0.5
			c-2.7,1.5-5.5,2.7-8.8,2.6l3.2,0l-6.5,0.3L18,38.3l0.1-1.5c-1.4,0.2-3-0.6-4.5-1.1c1.4-0.6,2.8-1.1,3.8-2.3
			c-1.8-0.3-2.6-1.6-3.9-2.5c1.7,0.3,3.2,1.2,5,0.8c-0.9-2.6-0.8-5.2-1.1-7.8c1,2.2,1.7,4.4,3.1,6.6C21.5,29.8,22.1,28.5,22.6,27z"
			/>
		
			<path id="path4263" sodipodi:cx="21.625" sodipodi:cy="34.5" sodipodi:rx="2.25" sodipodi:ry="2.25" sodipodi:type="arc" class="st8" d="
			M23.9,34.6c0,0.9-1,1.7-2.3,1.7s-2.3-0.8-2.3-1.7c0-0.9,1-1.7,2.3-1.7S23.9,33.7,23.9,34.6z"/>
		
			<path id="path5207" sodipodi:cx="22.375" sodipodi:cy="21.75" sodipodi:rx="2.625" sodipodi:ry="2.3125" sodipodi:type="arc" class="st9" d="
			M25,21.8c0,1.3-1.2,2.3-2.6,2.3s-2.6-1-2.6-2.3s1.2-2.3,2.6-2.3S25,20.5,25,21.8z"/>
		
			<path id="path5209" sodipodi:cx="22.375" sodipodi:cy="21.75" sodipodi:rx="2.625" sodipodi:ry="2.3125" sodipodi:type="arc" class="st9" d="
			M20.6,16.4c0,1.6-1.4,2.8-3.2,2.8s-3.2-1.3-3.2-2.8c0-1.6,1.4-2.8,3.2-2.8S20.6,14.8,20.6,16.4z"/>
		
			<path id="path5211" sodipodi:cx="22.375" sodipodi:cy="21.75" sodipodi:rx="2.625" sodipodi:ry="2.3125" sodipodi:type="arc" class="st10" d="
			M17.6,27.4c-0.8,1.4-2.7,1.7-4.2,0.8c-1.5-0.9-2.1-2.7-1.4-4.1c0.8-1.4,2.7-1.7,4.2-0.8C17.7,24.2,18.4,26.1,17.6,27.4z"/>
		
			<path id="path5213" sodipodi:cx="22.375" sodipodi:cy="21.75" sodipodi:rx="2.625" sodipodi:ry="2.3125" sodipodi:type="arc" class="st11" d="
			M36.7,24.2c-0.3,0.5-1,0.5-1.5-0.1c-0.6-0.5-0.8-1.4-0.5-1.9c0.3-0.5,1-0.5,1.5,0.1S37,23.7,36.7,24.2z"/>
		
			<path id="path5215" inkscape:transform-center-x="2.0330157" inkscape:transform-center-y="1.5541817" sodipodi:cx="22.375" sodipodi:cy="21.75" sodipodi:rx="2.625" sodipodi:ry="2.3125" sodipodi:type="arc" class="st11" d="
			M31.3,35.7c-0.3,0-0.4-0.4-0.3-0.8c0.1-0.4,0.5-0.7,0.8-0.6s0.4,0.4,0.3,0.8C32,35.4,31.6,35.7,31.3,35.7z"/>
		
			<path id="path5217" inkscape:transform-center-x="-0.61605544" inkscape:transform-center-y="2.5542712" sodipodi:cx="22.375" sodipodi:cy="21.75" sodipodi:rx="2.625" sodipodi:ry="2.3125" sodipodi:type="arc" class="st11" d="
			M37,21c-0.1,0.3-0.5,0.2-0.8,0s-0.4-0.7-0.3-1c0.1-0.3,0.5-0.2,0.8,0C37,20.2,37.1,20.7,37,21z"/>
		
			<path id="path5219" sodipodi:cx="22.375" sodipodi:cy="21.75" sodipodi:rx="2.625" sodipodi:ry="2.3125" sodipodi:type="arc" class="st11" d="
			M21.1,10.9c0.3,0.5,0,1.1-0.7,1.4c-0.7,0.3-1.6,0.2-1.9-0.2c-0.3-0.5,0-1.1,0.7-1.4C19.9,10.3,20.8,10.4,21.1,10.9z"/>
		
			<path id="path5221" inkscape:transform-center-x="2.2304367" sodipodi:cx="22.375" sodipodi:cy="21.75" sodipodi:rx="2.625" sodipodi:ry="2.3125" sodipodi:type="arc" class="st11" d="
			M23.3,10c0.2,0.3,0,0.6-0.4,0.8s-1,0.1-1.2-0.1s0-0.6,0.4-0.8S23.1,9.7,23.3,10z"/>
		
			<path id="path5223" inkscape:transform-center-x="1.5718105" sodipodi:cx="22.375" sodipodi:cy="21.75" sodipodi:rx="2.625" sodipodi:ry="2.3125" sodipodi:type="arc" class="st11" d="
			M22.7,11.9c0.1,0.2,0,0.5-0.3,0.6c-0.3,0.1-0.7,0.1-0.8-0.1s0-0.5,0.3-0.6S22.5,11.7,22.7,11.9z"/>
	</g>
	
		<path id="path2915" inkscape:original="M 20.5 7.5 C 19.402447 7.5 18.53125 8.3941846 18.53125 9.5 C 18.53125 9.627657 18.53981 9.753957 18.5625 9.875 C 18.095526 9.642848 17.556572 9.5 17 9.5 C 15.137671 9.5 13.6605 10.974462 13.5625 12.8125 C 13.256846 12.619442 12.887115 12.5 12.5 12.5 C 11.402447 12.5 10.53125 13.394185 10.53125 14.5 C 10.53125 15.605816 11.402447 16.5 12.5 16.5 C 13.323165 16.5 14.041774 16.00018 14.34375 15.28125 C 14.983645 16.025523 15.94222 16.46875 17 16.46875 C 17.738505 16.46875 18.435919 16.235802 19 15.84375 C 19.570218 16.250792 20.247148 16.5 21 16.5 C 21.971213 16.5 22.836098 16.080205 23.46875 15.4375 C 23.473276 15.432902 23.495499 15.442123 23.5 15.4375 C 23.654565 15.466937 23.805573 15.5 23.96875 15.5 C 25.359768 15.5 26.499999 14.379998 26.5 13 C 26.5 11.620002 25.359769 10.5 23.96875 10.5 C 23.805573 10.5 23.654565 10.533064 23.5 10.5625 C 23.495173 10.557538 23.473606 10.567434 23.46875 10.5625 C 23.17583 10.264886 22.851991 10.021342 22.46875 9.84375 C 22.487911 9.732153 22.5 9.617086 22.5 9.5 C 22.5 8.3941844 21.597553 7.4999999 20.5 7.5 z " inkscape:radius="0.48462695" sodipodi:type="inkscape:offset" class="st12" d="
		M20.5,8c-1.3,0-2.3,1-2.4,2.3C17.7,10.2,17.4,10,17,10c-1.9,0-3.4,1.4-3.8,3.2C13,13.1,12.8,13,12.5,13c-1.4,0-2.5,1.1-2.5,2.5
		s1.1,2.5,2.5,2.5c0.8,0,1.5-0.5,1.9-1.1C15.1,17.5,16,18,17,18c0.7,0,1.4-0.2,2-0.6c0.6,0.4,1.3,0.6,2,0.6c1,0,1.9-0.4,2.6-1.1
		c0.1,0,0.2,0.1,0.4,0.1c1.7,0,3-1.4,3-3c0-1.6-1.4-3-3-3c-0.2,0-0.3,0-0.4,0.1c-0.2-0.2-0.4-0.3-0.6-0.4c0,0,0-0.1,0-0.1
		C23,9.1,21.9,8,20.5,8z"/>
	<g id="g3341" transform="translate(-1,-1)">
		
			<radialGradient id="path3252_1_" cx="-88.8641" cy="-230.448" r="8.4844" gradientTransform="matrix(1.186 -2.209896e-02 -1.097582e-02 -0.5892 121.5514 -126.1225)" gradientUnits="userSpaceOnUse">
			<stop  offset="0" style="stop-color:#FFFFFF"/>
			<stop  offset="0.5" style="stop-color:#FFFFFF"/>
			<stop  offset="1" style="stop-color:#D3D7CF"/>
		</radialGradient>
		<path id="path3252" class="st13" d="M21.5,8.5c-1.1,0-2,0.9-2,2c0,0.1,0,0.3,0,0.4c-0.5-0.2-1-0.4-1.6-0.4c-1.9,0-3.3,1.5-3.4,3.3
			c-0.3-0.2-0.7-0.3-1.1-0.3c-1.1,0-2,0.9-2,2s0.9,2,2,2c0.8,0,1.5-0.5,1.8-1.2c0.6,0.7,1.6,1.2,2.7,1.2c0.7,0,1.4-0.2,2-0.6
			c0.6,0.4,1.2,0.7,2,0.7c1,0,1.8-0.4,2.5-1.1c0,0,0,0,0,0c0.2,0,0.3,0.1,0.5,0.1c1.4,0,2.5-1.1,2.5-2.5c0-1.4-1.1-2.5-2.5-2.5
			c-0.2,0-0.3,0-0.5,0.1c0,0,0,0,0,0c-0.3-0.3-0.6-0.5-1-0.7c0-0.1,0-0.2,0-0.3C23.5,9.4,22.6,8.5,21.5,8.5z"/>
		
			<path id="path3299" inkscape:original="M 19.5 6.5 C 18.402447 6.5 17.53125 7.3941846 17.53125 8.5 C 17.53125 8.6276566 17.53981 8.7539566 17.5625 8.875 C 17.095526 8.6428485 16.556572 8.4999999 16 8.5 C 14.137671 8.5 12.6605 9.974462 12.5625 11.8125 C 12.256846 11.619442 11.887115 11.5 11.5 11.5 C 10.402447 11.5 9.53125 12.394185 9.53125 13.5 C 9.53125 14.605816 10.402447 15.5 11.5 15.5 C 12.323165 15.5 13.041774 15.00018 13.34375 14.28125 C 13.983645 15.025523 14.94222 15.46875 16 15.46875 C 16.738505 15.46875 17.435919 15.235802 18 14.84375 C 18.570218 15.250792 19.247148 15.5 20 15.5 C 20.971213 15.5 21.836098 15.080205 22.46875 14.4375 C 22.473276 14.432902 22.495499 14.442123 22.5 14.4375 C 22.654565 14.466937 22.805573 14.5 22.96875 14.5 C 24.359768 14.5 25.499999 13.379998 25.5 12 C 25.5 10.620002 24.359769 9.5 22.96875 9.5 C 22.805573 9.5 22.654565 9.533064 22.5 9.5625 C 22.495173 9.557538 22.473606 9.567434 22.46875 9.5625 C 22.17583 9.264886 21.851991 9.021342 21.46875 8.84375 C 21.487911 8.7321531 21.5 8.6170864 21.5 8.5 C 21.5 7.3941844 20.597553 6.4999999 19.5 6.5 z " inkscape:radius="-0.98714447" sodipodi:type="inkscape:offset" class="st14" d="
			M21.5,9.5c-0.6,0-1,0.4-1,1c0,0.1,0,0.1,0,0.2c0.1,0.4-0.1,0.7-0.4,1c-0.3,0.2-0.7,0.3-1,0.1c-0.3-0.2-0.7-0.3-1.1-0.3
			c-1.3,0-2.4,1-2.4,2.4c0,0.4-0.2,0.7-0.5,0.8s-0.7,0.1-1-0.1c-0.2-0.1-0.3-0.2-0.5-0.2c-0.6,0-1,0.4-1,1c0,0.6,0.4,1,1,1
			c0.4,0,0.8-0.2,0.9-0.6c0.1-0.3,0.4-0.5,0.7-0.6c0.3-0.1,0.7,0.1,0.9,0.3c0.4,0.5,1.1,0.8,1.9,0.8c0.5,0,1-0.2,1.4-0.4
			c0.3-0.2,0.8-0.2,1.1,0c0.4,0.3,0.9,0.5,1.4,0.5c0.7,0,1.3-0.3,1.8-0.8c0,0,0.1,0,0.1-0.1c0,0,0,0,0.1-0.1c0,0,0.1-0.1,0.1-0.1
			c0,0,0,0,0,0c0,0,0.1,0,0.2,0c0,0,0,0,0.1,0c0,0,0.1,0,0.2,0c0,0,0.1,0,0.1,0c0,0,0.1,0,0.1,0c0,0,0,0,0,0c0.2,0,0.3,0,0.3,0
			c0.9,0,1.5-0.7,1.5-1.5c0-0.8-0.7-1.5-1.5-1.5c0,0-0.1,0-0.3,0c0,0,0,0,0,0c0,0,0,0-0.1,0c0,0,0,0-0.1,0c0,0-0.1,0-0.2,0
			c0,0-0.1,0-0.1,0c0,0,0,0-0.1,0c0,0-0.1,0-0.1,0c0,0,0,0,0,0c-0.1,0-0.2-0.1-0.3-0.2c0,0,0,0,0,0c-0.2-0.2-0.4-0.4-0.7-0.5
			c-0.4-0.2-0.6-0.6-0.6-1.1c0-0.1,0-0.1,0-0.2C22.5,9.9,22.1,9.5,21.5,9.5z"/>
	</g>
	<g id="g3098">
		
			<radialGradient id="path3219_1_" cx="-166.7012" cy="-267.375" r="16.5" gradientTransform="matrix(1.4303 5.356339e-03 2.040421e-03 -0.5464 269.6462 -119.9094)" gradientUnits="userSpaceOnUse">
			<stop  offset="0" style="stop-color:#DDDDDD"/>
			<stop  offset="0.5" style="stop-color:#AAAAAA"/>
			<stop  offset="1" style="stop-color:#D3D7CF"/>
		</radialGradient>
		<path id="path3219" sodipodi:nodetypes="csccccscscscssscscscscscscsssccsccsc" class="st15" d="M39,18.5c-0.8,0-1.5,0.7-1.5,1.5
			c0,0.2,0.1,0.4,0.1,0.5c-1.6,0.2-2.9,1.4-3.1,3c-1.2,0.2-2.2,0.9-2.7,2c-0.2,0-0.5,0.1-0.7,0.2c-0.4-0.7-1.2-1.2-2.1-1.2
			c-1.3,0-2.3,0.9-2.5,2.2c-0.3-0.1-0.7-0.2-1-0.2c-1.3,0-2.5,0.6-3.2,1.6c-0.5-0.4-1.1-0.6-1.8-0.6c-1.1,0-2,0.5-2.5,1.4
			c-0.3-0.2-0.6-0.4-1-0.4c-0.8,0-1.5,0.7-1.5,1.5c0,0.8,0.7,1.5,1.5,1.5c0.2,0,0.5-0.1,0.7-0.2c0.4,1.2,1.5,2.2,2.8,2.2
			c0.7,0,1.3-0.2,1.8-0.6c0.7,1,1.9,1.6,3.2,1.6c1.1,0,2.1-0.5,2.8-1.2c0.9,1.3,2.4,2.2,4.2,2.2c1.5,0,2.8-0.7,3.7-1.7
			c0.5,0.5,1.1,0.7,1.8,0.7c1,0,1.9-0.6,2.3-1.5c0.5,0.3,1.1,0.5,1.7,0.5c1,0,2-0.5,2.6-1.2c0.3,0.1,0.6,0.2,0.9,0.2
			c1.1,0,2-0.9,2-2s-0.9-2-2-2c-0.1,0-0.3,0-0.4,0.1c-0.4-0.8-1-1.4-1.8-1.8c0.1-0.3,0.2-0.5,0.2-0.8c0-1.2-0.9-2.2-2.1-2.4
			c-0.1-1-0.7-1.9-1.5-2.4c0.3-0.3,0.5-0.7,0.5-1.1C40.5,19.2,39.8,18.5,39,18.5z"/>
		
			<path id="path3094" inkscape:original="M 39 18.46875 C 38.173595 18.46875 37.5 19.166962 37.5 20 C 37.5 20.197846 37.556235 20.358064 37.625 20.53125 C 36.026411 20.701636 34.741539 21.937334 34.53125 23.53125 C 33.308684 23.693337 32.298651 24.476006 31.8125 25.5625 C 31.576112 25.595658 31.349609 25.653704 31.125 25.71875 C 30.687793 24.990958 29.91027 24.5 29 24.5 C 27.738095 24.5 26.700779 25.440798 26.53125 26.65625 C 26.202337 26.568672 25.856372 26.5 25.5 26.5 C 24.19328 26.5 23.042608 27.123703 22.3125 28.09375 C 21.811275 27.71574 21.175693 27.5 20.5 27.5 C 19.443006 27.5 18.532871 28.047171 18 28.875 C 17.735501 28.637795 17.381605 28.46875 17 28.46875 C 16.173595 28.46875 15.5 29.166962 15.5 30 C 15.5 30.833037 16.173594 31.5 17 31.5 C 17.232427 31.5 17.459913 31.43916 17.65625 31.34375 C 18.026664 32.576835 19.146791 33.5 20.5 33.5 C 21.177794 33.500001 21.810481 33.255144 22.3125 32.875 C 23.041696 33.855912 24.184715 34.5 25.5 34.5 C 26.620181 34.5 27.617384 34.024031 28.34375 33.28125 C 29.24258 34.61133 30.774997 35.5 32.5 35.5 C 33.990289 35.500001 35.302456 34.816645 36.21875 33.78125 C 36.67125 34.23375 37.31 34.5 38 34.5 C 39.011116 34.499999 39.88756 33.895497 40.28125 33.03125 C 40.787002 33.316797 41.378164 33.5 42 33.5 C 43.037532 33.5 43.954595 33.032217 44.59375 32.3125 C 44.865856 32.453479 45.173155 32.53125 45.5 32.53125 C 46.597553 32.531251 47.5 31.605816 47.5 30.5 C 47.500001 29.394185 46.597553 28.5 45.5 28.5 C 45.373115 28.5 45.245301 28.539575 45.125 28.5625 C 44.761543 27.77628 44.14348 27.150944 43.34375 26.8125 C 43.433344 26.554504 43.5 26.288584 43.5 26 C 43.5 24.770719 42.60081 23.772017 41.4375 23.5625 C 41.312758 22.54936 40.764951 21.680113 39.96875 21.125 C 40.287361 20.848182 40.5 20.456946 40.5 20 C 40.5 19.166962 39.826406 18.46875 39 18.46875 z " inkscape:radius="-0.99144125" sodipodi:type="inkscape:offset" class="st14" d="
			M39,19.5c-0.3,0-0.5,0.2-0.5,0.5c0,0,0,0,0,0.2c0.1,0.3,0.1,0.6-0.1,0.9c-0.2,0.3-0.4,0.5-0.8,0.5c-1.2,0.1-2.1,1-2.2,2.1
			c-0.1,0.4-0.4,0.8-0.8,0.8c-0.9,0.1-1.6,0.7-1.9,1.5c-0.1,0.3-0.4,0.5-0.8,0.6c-0.2,0-0.3,0.1-0.5,0.1c-0.4,0.1-0.9-0.1-1.1-0.4
			c-0.3-0.5-0.7-0.7-1.3-0.7c-0.8,0-1.4,0.5-1.5,1.3c0,0.3-0.2,0.5-0.4,0.7s-0.5,0.2-0.8,0.1c-0.3-0.1-0.6-0.1-0.8-0.1
			c-1,0-1.9,0.5-2.4,1.2c-0.3,0.4-0.9,0.5-1.4,0.2c-0.3-0.2-0.8-0.4-1.2-0.4c-0.7,0-1.3,0.3-1.7,0.9c-0.2,0.2-0.4,0.4-0.7,0.5
			c-0.3,0-0.6,0-0.8-0.2c-0.1-0.1-0.3-0.2-0.3-0.2c-0.3,0-0.5,0.2-0.5,0.5c0,0.3,0.2,0.5,0.5,0.5c0.1,0,0.1,0,0.2-0.1
			c0.3-0.1,0.6-0.1,0.8,0c0.3,0.1,0.5,0.4,0.5,0.6c0.3,0.8,1,1.4,1.9,1.4c0.4,0,0.9-0.1,1.2-0.4c0.4-0.3,1-0.2,1.4,0.2
			c0.6,0.7,1.4,1.2,2.4,1.2c0.8,0,1.6-0.3,2.1-0.9c0.2-0.2,0.5-0.3,0.8-0.3c0.3,0,0.6,0.2,0.7,0.4c0.7,1.1,2,1.8,3.3,1.8
			c1.2,0,2.2-0.5,3-1.4c0.2-0.2,0.4-0.3,0.7-0.3s0.5,0.1,0.7,0.3c0.3,0.3,0.7,0.4,1.1,0.4c0.6,0,1.1-0.4,1.4-0.9
			c0.1-0.3,0.3-0.5,0.6-0.6c0.3-0.1,0.6-0.1,0.8,0.1c0.4,0.2,0.8,0.3,1.2,0.3c0.7,0,1.4-0.3,1.8-0.8c0.3-0.3,0.8-0.4,1.2-0.2
			c0.1,0.1,0.3,0.1,0.4,0.1c0.5,0,1-0.5,1-1c0-0.6-0.4-1-1-1c0.1,0,0,0-0.2,0c-0.5,0.1-0.9-0.1-1.1-0.6c-0.3-0.6-0.7-1-1.3-1.3
			c-0.5-0.2-0.7-0.7-0.6-1.2c0.1-0.2,0.1-0.4,0.1-0.5c0-0.7-0.5-1.3-1.3-1.5c-0.4-0.1-0.7-0.4-0.8-0.8c-0.1-0.7-0.5-1.4-1.1-1.8
			c-0.3-0.2-0.4-0.5-0.4-0.8s0.1-0.6,0.3-0.8c0.1-0.1,0.2-0.2,0.2-0.4C39.5,19.7,39.3,19.5,39,19.5z"/>
	</g>
</g>
</svg>
