<?xml version="1.0" encoding="utf-8"?>
<!-- Generator: Adobe Illustrator 24.2.0, SVG Export Plug-In . SVG Version: 6.00 Build 0)  -->
<svg version="1.1" id="Ñëîé_1" xmlns="http://www.w3.org/2000/svg" xmlns:xlink="http://www.w3.org/1999/xlink" x="0px" y="0px"
	 viewBox="0 0 411 395" style="enable-background:new 0 0 411 395;" xml:space="preserve">
<style type="text/css">
	.st0{fill:#FDCA27;}
	.st1{fill:#FFFFFF;}
	.st2{fill:#01898C;}
	.st3{fill:#F4A086;}
	.st4{fill:#00666A;}
	.st5{fill:#043C5E;}
	.st6{fill:#F7A605;}
	.st7{fill:#63C1C5;}
	.st8{fill:#F2E1F0;}
	.st9{fill:url(#SVGID_1_);}
	.st10{fill:#FFD247;}
	.st11{fill:#212B53;}
	.st12{fill:#11375B;}
	.st13{fill:#F8B68F;}
</style>
<g>
	<path class="st0" d="M214.2,314.1c-0.3-0.8-3-2.4-6.3-3.6c0.2-3-0.1-6.1-0.8-8.9c2.8-1.3,5.6-2.9,5.9-4.4
		c0.5-3.1-4.2-10.1-5.4-10.7c-0.8-0.4-3.9,0.5-7.2,2.1c-1.9-2.2-4.2-4.2-6.7-5.8c1.1-2.9,1.9-6.1,1-7.3c-1.8-2.5-10.1-4.2-11.4-3.7
		c-0.8,0.3-2.4,3-3.5,6.3c-3.1-0.3-6.1-0.1-9.1,0.5c-1.3-2.7-2.8-5.3-4.3-5.6c-3.1-0.5-10.1,4.2-10.7,5.4c-0.3,0.7,0.4,3.5,1.7,6.5
		c-2.4,2-4.6,4.4-6.4,7.1c-2.6-0.9-5.3-1.5-6.4-0.7c-2.5,1.8-4.2,10.1-3.7,11.4c0.2,0.7,2.5,2.1,5.3,3.2c-0.3,3.4-0.1,6.7,0.6,9.9
		c-2.4,1.2-4.5,2.6-4.7,3.9c-0.5,3.1,4.2,10.1,5.4,10.7c0.7,0.3,3.1-0.3,5.8-1.4c2.1,2.5,4.7,4.7,7.6,6.5c-0.8,2.5-1.3,5-0.6,6
		c1.8,2.5,10.1,4.2,11.4,3.7c0.7-0.2,2.1-2.5,3.2-5.3c3.3,0.2,6.6-0.1,9.7-0.9c1.2,2.5,2.7,4.8,4,5c3.1,0.5,10.1-4.2,10.7-5.4
		c0.3-0.7-0.4-3.5-1.8-6.5c2.3-2.1,4.3-4.5,5.9-7.2c2.8,1,5.7,1.7,6.9,0.9C212.9,323.6,214.6,315.3,214.2,314.1z M172.6,321.9
		c-7.3-2.4-11.2-10.2-8.8-17.5c2.4-7.3,10.2-11.2,17.5-8.8c7.3,2.4,11.2,10.2,8.8,17.5C187.7,320.3,179.9,324.3,172.6,321.9z"/>
	<g>
		<path class="st1" d="M171,327.2c-10.3-3.4-15.9-14.5-12.6-24.8c3.4-10.3,14.5-15.9,24.8-12.6c10.3,3.4,15.9,14.5,12.6,24.8
			C192.4,324.9,181.3,330.6,171,327.2z M183.2,290.1c-10.2-3.3-21.1,2.2-24.5,12.4c-3.3,10.2,2.2,21.1,12.4,24.5
			c10.2,3.3,21.1-2.2,24.5-12.4C198.9,304.4,193.4,293.4,183.2,290.1z"/>
	</g>
	<g>
		<path class="st1" d="M205.4,311.8c-0.1-0.1-0.2-0.1-0.4-0.2c-0.2,2-0.6,4-1.3,6c-4.9,14.8-20.8,22.8-35.6,18
			c-9.7-3.2-16.5-11.1-18.7-20.4c0,0,0,0,0,0c-0.1,0-0.3,0-0.4-0.1c2.2,9.4,9.1,17.5,18.9,20.8c15,4.9,31.2-3.3,36.1-18.2
			C204.8,315.8,205.2,313.8,205.4,311.8z"/>
		<path class="st1" d="M167.6,282.3c5.7-2,12.1-2.3,18.2-0.2c0.1,0,0.2,0.1,0.4,0.1c0-0.1,0-0.3,0-0.4c-0.1,0-0.2-0.1-0.2-0.1
			c-6.2-2-12.7-1.8-18.4,0.2C167.6,282,167.6,282.1,167.6,282.3z"/>
	</g>
</g>
<g>
	<path class="st2" d="M268.6,266.6c-1,0.4-3,3.8-4.5,8.1c-3.9-0.2-7.7,0.2-11.4,1.1c-1.7-3.6-3.8-7.2-5.7-7.5
		c-3.9-0.6-12.8,5.4-13.6,6.9c-0.5,1,0.6,5,2.7,9.1c-2.8,2.5-5.3,5.3-7.4,8.6c-3.7-1.4-7.8-2.4-9.3-1.3c-3.2,2.3-5.3,12.9-4.7,14.5
		c0.4,1,3.8,3,8.1,4.5c-0.3,3.9-0.1,7.8,0.7,11.6c-3.4,1.6-6.8,3.7-7.1,5.5c-0.6,3.9,5.4,12.8,6.9,13.6c0.9,0.4,4.4-0.5,8.3-2.2
		c2.6,3.1,5.6,5.9,9.1,8.1c-1.2,3.4-1.9,6.8-0.9,8.2c2.3,3.2,12.9,5.3,14.5,4.7c0.9-0.3,2.6-3.1,4-6.8c4.3,0.4,8.5,0.1,12.6-0.8
		c1.5,3,3.3,5.7,5,5.9c3.9,0.6,12.8-5.4,13.6-6.9c0.4-0.8-0.3-3.9-1.9-7.4c3.2-2.7,6-6,8.2-9.7c3.2,1.1,6.3,1.7,7.7,0.7
		c3.2-2.3,5.3-12.9,4.7-14.5c-0.3-0.9-3.2-2.6-6.8-4c0.3-4.2-0.2-8.4-1.2-12.4c3.2-1.6,6.1-3.4,6.4-5.2c0.6-3.9-5.4-12.8-6.9-13.6
		c-0.9-0.4-4.5,0.5-8.3,2.3c-2.6-2.9-5.7-5.5-9.2-7.5c1.3-3.6,2.2-7.3,1.1-8.8C280.7,268.1,270.2,266,268.6,266.6z M278.8,319.4
		c-3,9.3-12.9,14.3-22.2,11.3c-9.3-3-14.3-12.9-11.3-22.2c3-9.3,12.9-14.3,22.2-11.3C276.7,300.3,281.8,310.2,278.8,319.4z"/>
	<g>
		<path class="st1" d="M285.5,321.5c-4.3,13.1-18.4,20.4-31.6,16.1c-13.1-4.3-20.4-18.4-16.1-31.6c4.3-13.1,18.4-20.4,31.6-16.1
			C282.6,294.2,289.8,308.3,285.5,321.5z M238.2,306.1c-4.2,13,2.9,26.9,15.9,31.1c13,4.2,26.9-2.9,31.1-15.9
			c4.2-13-2.9-26.9-15.9-31.1C256.3,286.1,242.4,293.2,238.2,306.1z"/>
	</g>
	<g>
		<path class="st1" d="M265.8,277.7c-0.1,0.2-0.1,0.3-0.2,0.4c2.6,0.2,5.1,0.8,7.7,1.6c18.8,6.1,29.2,26.4,23.1,45.3
			c-4,12.3-14.1,21-25.9,23.9c0,0,0,0,0,0c0,0.2,0,0.3-0.1,0.5c12-2.8,22.3-11.7,26.4-24.2c6.2-19.1-4.3-39.7-23.4-45.9
			C270.8,278.5,268.3,277.9,265.8,277.7z"/>
		<path class="st1" d="M228.3,326c-2.6-7.2-2.9-15.4-0.4-23.2c0-0.2,0.1-0.3,0.2-0.5c-0.2,0-0.3,0-0.5,0c0,0.1-0.1,0.2-0.1,0.3
			c-2.6,7.9-2.3,16.1,0.4,23.4C228,326.1,228.2,326.1,228.3,326z"/>
	</g>
</g>
<polygon class="st3" points="206.4,52.2 204.8,70.3 210.6,93.4 191.6,99.5 183.2,59.3 193.1,34.1 "/>
<polygon class="st4" points="204.8,21.6 206.4,51.2 183.2,59.3 "/>
<g>
	<g>
		<path class="st0" d="M126.5,182.6c0,0-68.5-43.5-118.4-15.7c-0.1,68.7,76.5,80.4,76.5,80.4l68.9-17L126.5,182.6z"/>
		<path class="st1" d="M71.1,160.3l6,35.5L9.3,166.2c-0.4,0.2-0.8,0.4-1.2,0.6c0,0.3,0,0.5,0,0.8l36.3,15.9l-30.3,14.2
			c0.1,0.3,0.3,0.6,0.4,0.9l0.4,0.8l31.7-14.8l60.6,26.4l-52.4,26.6c0.7,0.3,1.4,0.7,2,1l52.4-26.6l43,18.8l1.2-0.3l-0.9-1.5
			l-73.5-32.1L73,160.8C72.4,160.6,71.8,160.5,71.1,160.3z"/>
	</g>
	<g>
		<path class="st5" d="M131,221.2c0,0-67.7,3.5-81.9,46.7c59.6,71.2,154.5,0.4,154.5,0.4L131,221.2z"/>
		<g>
			<path class="st4" d="M49.1,267.8c0.2,0.3,0.5,0.5,0.7,0.8l91-11.7l-25.9,42.7c0.7,0,1.4,0,2.1,0l26.1-43l35.5-4.6l-2.3-1.5
				l-69.2,8.9l-30.2-23c-0.6,0.3-1.1,0.6-1.7,1l29.3,22.4l-55.1,7.1C49.3,267.2,49.2,267.5,49.1,267.8L49.1,267.8z"/>
		</g>
	</g>
</g>
<g>
	<g>
		<path class="st5" d="M270.6,154.5c0,0-17.7-79.2,31.2-113c84.6,57.6,27.7,140.6,27.7,140.6L270.6,154.5z"/>
		<path class="st4" d="M301.9,41.5c0.3,0.2,0.6,0.4,0.9,0.6l-3.1,95.6l46.2-37.7c0.2,0.6,0.3,1.3,0.4,1.9l-46.7,38.1l-0.9,27.6
			l-1.8-0.8l1.8-55l0,0l-28.1-20.1c0.1-0.6,0.3-1.3,0.4-1.9l27.8,19.9l2.2-67.5C301.3,42,301.5,41.7,301.9,41.5L301.9,41.5z"/>
	</g>
	<g>
		<path class="st2" d="M313.3,108.1c16-20.2,41-43,72.5-44.3c35.9,58.4-23.2,108.3-23.2,108.3l-67.5,21.4l-0.9-27
			C293.5,145.4,300.1,124.6,313.3,108.1z"/>
		<path class="st4" d="M328.8,91l13.3,33.3l42.3-60.5c0.4,0,0.9-0.1,1.3-0.1c0.1,0.2,0.3,0.5,0.4,0.7l-22.7,32.4l33.1-3.7
			c0,0.3,0.1,0.6,0.1,0.9l0.1,0.8l-34.7,3.9l-37.8,54l58.4-4.7c-0.4,0.6-0.8,1.3-1.2,1.9l-58.5,4.7l-26.8,38.4l-1.1,0.4l-0.1-1.8
			l45.8-65.6l-13.5-33.7C327.8,91.9,328.3,91.5,328.8,91z"/>
	</g>
	<g>
		<path class="st0" d="M367.5,158.7c12.7,0.2,25.5,3.4,36,12.3c-13.6,91.7-131.2,80.8-131.2,80.8l22.6-47.3
			C308.3,176.5,336.5,158.3,367.5,158.7z"/>
		<g>
			<path class="st1" d="M403.5,171c-0.1,0.4-0.1,0.7-0.2,1.1l-83.5,37.4l44.3,22.8c-0.6,0.4-1.2,0.7-1.8,1.1l-44.6-23L285.1,225
				l1.2-2.5l63.5-28.5l13.7-35.3c0.6,0,1.3,0,1.9,0L352.2,193l50.6-22.7C403,170.6,403.3,170.8,403.5,171L403.5,171z"/>
		</g>
	</g>
</g>
<g>
	<polygon class="st4" points="295.2,132 308.2,127.9 315.6,142 300.8,150.4 294.1,137.2 	"/>
	<polygon class="st6" points="304.7,122 317.5,146.9 335.5,135.5 324,114.9 	"/>
	<path class="st2" d="M230.2,118.4l-4.8-1.1c-4.7-1-7.7-5.7-6.6-10.4l8-36.1c1-4.7,5.7-7.7,10.4-6.6l4.8,1.1c4.7,1,7.7,5.7,6.6,10.4
		l-8,36.1C239.6,116.4,234.9,119.4,230.2,118.4z"/>
	
		<ellipse transform="matrix(0.7071 -0.7071 0.7071 0.7071 -75.9905 205.0119)" class="st7" cx="209.5" cy="194.2" rx="107.2" ry="107.2"/>
	<g>
		<path class="st8" d="M308.7,203.5c-0.1-0.2-0.1-0.3-0.2-0.5c-0.4-0.8-0.7-1.6-1.1-2.5c-0.3,4.9-1,9.9-2.1,14.9
			c-11.6,52.4-63.7,85.7-116.2,74.1c-30.2-6.7-54-26.8-66.6-52.7c-0.3,0.4-0.7,0.9-1.1,1.3c12.8,26,36.9,46.2,67.3,52.9
			c53.3,11.8,106.2-22,118-75.2C307.7,211.7,308.4,207.6,308.7,203.5z"/>
		<path class="st8" d="M159.6,111.2c20.7-12.6,46.1-17.6,71.6-11.9c3.3,0.7,6.6,1.6,9.8,2.7c0.2-0.5,0.3-1,0.5-1.4
			c-3.2-1.1-6.6-2-10-2.8c-25.5-5.6-51-0.8-71.9,11.6C159.7,110,159.7,110.6,159.6,111.2z"/>
	</g>
	
		<linearGradient id="SVGID_1_" gradientUnits="userSpaceOnUse" x1="140.1235" y1="154.1192" x2="318.3481" y2="154.1192" gradientTransform="matrix(0.9764 0.2161 -0.2161 0.9764 19.6928 -5.6221)">
		<stop  offset="0.2157" style="stop-color:#E0F0EB"/>
		<stop  offset="0.7647" style="stop-color:#C0E4EF"/>
	</linearGradient>
	<circle class="st9" cx="210.2" cy="194.4" r="89.1"/>
	<polygon class="st10" points="222,57.1 217.1,69.7 258.7,78.1 259.8,65.7 	"/>
	<g>
		<path class="st11" d="M203.8,186.2c1.6,2.2,3,4.4,4.3,6.6c1.3,2.3,2.3,4.6,3.2,7l58.9-40.9L203.8,186.2z"/>
		<path class="st12" d="M212.2,199.2l45.6-31.6c-2,0.9-4.1,1.7-6,2.6c-5.5,2.5-10.8,5.3-16.3,7.7c-9.7,4.2-19.5,8.3-29.2,12.6
			C208.5,193.3,210.5,196.2,212.2,199.2z"/>
		
			<ellipse transform="matrix(0.2407 -0.9706 0.9706 0.2407 -29.488 348.7906)" class="st1" cx="208.2" cy="193.2" rx="7.7" ry="7.7"/>
		<path class="st11" d="M204.9,192.5c-0.4,1.8,0.7,3.6,2.6,4c1.8,0.4,3.6-0.7,4-2.6c0.4-1.8-0.7-3.6-2.6-4
			C207.1,189.5,205.3,190.7,204.9,192.5z"/>
	</g>
	<g>
		<g>
			
				<rect x="217.1" y="118" transform="matrix(0.2161 -0.9764 0.9764 0.2161 61.507 314.918)" class="st2" width="19.6" height="2.3"/>
		</g>
	</g>
	<g>
		
			<rect x="284.2" y="201.1" transform="matrix(0.2161 -0.9764 0.9764 0.2161 17.8056 443.9007)" class="st2" width="2.3" height="19.6"/>
	</g>
	<g>
		
			<rect x="134" y="167.8" transform="matrix(0.2161 -0.9764 0.9764 0.2161 -67.4757 271.2168)" class="st2" width="2.3" height="19.6"/>
	</g>
	<g>
		
			<rect x="252.1" y="254.6" transform="matrix(0.8432 -0.5376 0.5376 0.8432 -100.6903 176.8673)" class="st2" width="1.5" height="12.9"/>
	</g>
	<g>
		
			<rect x="166.4" y="120.1" transform="matrix(0.8432 -0.5376 0.5376 0.8432 -41.8469 109.6842)" class="st2" width="1.5" height="12.9"/>
	</g>
	<g>
		
			<rect x="270.8" y="150.2" transform="matrix(0.8432 -0.5376 0.5376 0.8432 -37.681 172.7009)" class="st2" width="12.9" height="1.5"/>
	</g>
	<g>
		
			<rect x="136.3" y="235.9" transform="matrix(0.8432 -0.5376 0.5376 0.8432 -104.8565 113.8576)" class="st2" width="12.9" height="1.5"/>
	</g>
	<g>
		
			<rect x="281.5" y="176.3" transform="matrix(0.9776 -0.2103 0.2103 0.9776 -30.7934 64.5095)" class="st2" width="12.9" height="1.5"/>
	</g>
	<g>
		
			<rect x="125.6" y="209.8" transform="matrix(0.9776 -0.2103 0.2103 0.9776 -41.332 32.4743)" class="st2" width="12.9" height="1.5"/>
	</g>
	<g>
		
			<rect x="249.6" y="128" transform="matrix(0.5779 -0.8161 0.8161 0.5779 3.0047 263.2859)" class="st2" width="12.9" height="1.5"/>
	</g>
	<g>
		
			<rect x="157.4" y="258.1" transform="matrix(0.5779 -0.8161 0.8161 0.5779 -142.0876 243.006)" class="st2" width="12.9" height="1.5"/>
	</g>
	<g>
		
			<rect x="194.3" y="109" transform="matrix(0.9824 -0.1867 0.1867 0.9824 -18.1293 38.4495)" class="st2" width="1.5" height="12.9"/>
	</g>
	<g>
		
			<rect x="224.1" y="265.7" transform="matrix(0.9824 -0.1867 0.1867 0.9824 -46.8542 46.7673)" class="st2" width="1.5" height="12.9"/>
	</g>
	<g>
		
			<rect x="144.1" y="141.3" transform="matrix(0.5777 -0.8163 0.8163 0.5777 -59.4124 180.6653)" class="st2" width="1.5" height="12.9"/>
	</g>
	<g>
		
			<rect x="274.3" y="233.4" transform="matrix(0.5777 -0.8163 0.8163 0.5777 -79.6308 325.8141)" class="st2" width="1.5" height="12.9"/>
	</g>
	<g>
		<path class="st1" d="M248.9,199.7c-3.1,4.9-1.6,11.4,3.3,14.5c4.9,3.1,11.4,1.6,14.5-3.3c3.1-4.9,1.6-11.4-3.3-14.5
			C258.4,193.4,251.9,194.8,248.9,199.7z"/>
		<path class="st1" d="M244.9,187.1c-1.5,2.5-0.8,5.7,1.6,7.2c2.5,1.5,5.7,0.8,7.2-1.6s0.8-5.7-1.6-7.2
			C249.7,183.9,246.5,184.6,244.9,187.1z"/>
	</g>
</g>
<g>
	<g>
		<g>
			<path class="st13" d="M30.3,51.9l-5.4-4.3l0,0c0-2.6,1.4-5,3.8-6.1l0.4-0.2l5.7,3.8L30.3,51.9z"/>
		</g>
		<path class="st11" d="M115,30.5c2.6,3,5.6,5.7,8.9,7.9c1.5,9.9,6.9,18.3,14.5,24.5C123,76.3,100.7,95,91.5,99
			c-14.6,6.3-63.7-47-63.7-47s0.8-1.6,6.6-8.3C67.6,51,86.9,71.9,86.9,71.9S105.6,45.3,115,30.5z"/>
		<path class="st11" d="M25.6,48c0,0-5.2-0.9-13.2,12c-1.6,2.7-2.2,1.5-3.6,1.7c1.2-4.6,3.4-14.4,3.4-14.4l8-7.2L19,37.7l5.7-3.4
			c0,0,5.9,3.9,5.1,7.4C28.1,44.4,25.6,48,25.6,48z"/>
	</g>
	<g>
		<polygon class="st3" points="213.4,29.2 201.5,32.8 198.5,19.8 217.9,18.8 		"/>
		<g>
			<path class="st13" d="M212,33.7c0.3,1.5,0.8,2.9,1.6,3.5c7.2,3.2,23.4-5.1,23.4-5.1l1.6-7.6l-7.2-7.9l-11.6,1.7
				c-3.1,0.4-5.8,2.5-7.2,5.5l0,0C211.5,26.9,211.2,30.4,212,33.7z"/>
		</g>
		<path class="st11" d="M225.1,19.3c2,0.1,6.4-1,6.5,1.1c0,1.5,0.8,6.4,1.1,8.1c0.7,3.9,3.6,10.7,9.6,9.6c3-0.6,5-4,5.5-6
			c0.4-2,0-4-1-5.7c-2.3-4.1-6.8-9.2-6.8-11.6c0-4-3-7.4-6.2-6.8c-3.5,0.7-8.4,3.6-11.5,5.9c-1.8,1.4-3.2,3-4.4,4.9l0,0L225.1,19.3z
			"/>
		<path class="st13" d="M223.9,15.4c0.9,0.7,1.1,2.4,0.4,3.7c-0.7,1.3-2.1,1.8-3,1.1c-0.9-0.7-1.1-2.4-0.4-3.7
			C221.6,15.1,222.9,14.7,223.9,15.4z"/>
	</g>
	<g>
		<path class="st13" d="M31.9,116.9l-6.7-1.4l0,0c-1.2-2.3-1-5.1,0.6-7.1l0.3-0.4l6.8,0.8L31.9,116.9z"/>
	</g>
	<path class="st2" d="M205.4,18.9c0,0-30.1-31.5-90.3,8c8.9,10.7,25.6,30.8,25.6,30.8L172,47.2l23.7,6.6L205.4,18.9z"/>
	<g>
		<path class="st13" d="M172,47.2c0,0,1.4,26.2,6.4,38.9c5,12.6,29.4,35.9,29.4,35.9l3.4-7.6l-16.7-29.8l1.1-30.8L172,47.2z"/>
		<g>
			<path class="st13" d="M211.2,114.8c0.1,0.7,0.8,3.1,4.3,6.7c3.2,3.2,11.7,8,7.4,10.2c-4.8-1.1-10.5-1.7-10.5-1.7
				c-2.8-0.9-5.7-5-7.1-7.9l-3-9.4c0,0,2.5-4,2.6-4.3l2,0.7C208,111.2,209.5,113.2,211.2,114.8z"/>
			<path class="st13" d="M211.1,117.3c0,0,0,0.3,0,0.7c-0.6-0.2-1.2-0.4-1.8-0.5c-1.8-1.5-3.7-2.9-5.5-4.4c1-0.9,2.4-2.2,2.5-2.4
				l14,7.2c0,0-0.1,2-3.4,1.5C213.5,119,211.1,117.3,211.1,117.3z"/>
		</g>
	</g>
	<path class="st5" d="M115.1,26.9c0,0-16.2,12.3-17.2,28.1c-1.1,15.8-6.4,53.8-6.4,53.8s-26.8-9.7-59.6-1.2
		c-2.1,8.7-2.1,10.4-2.1,10.4s68,25,78.1,12.8c10.1-12.2,32.9-73.2,32.9-73.2L115.1,26.9z"/>
	<path class="st11" d="M26,115.5c0,0-5.1,1.6-6.3,16.8c-0.2,3.1-1.3,2.3-2.4,3.2c-1-4.7-3.5-14.4-3.5-14.4l3.9-10l-2.1-1.6l3.6-5.6
		c0,0,7.1,0.8,7.9,4.3C26.5,111.2,26,115.5,26,115.5z"/>
</g>
<g>
	<g>
		<path class="st2" d="M391.4,328.3l2.6,13c0.6,1.7,1.6,3.5,3.7,3.4c0,0,1.4,0,2.7-0.3c0.6-0.6-3.6-17.7-3.6-17.7l-0.1-0.1
			C393.4,325.4,391.4,328.3,391.4,328.3z"/>
		<polygon class="st11" points="400.3,344.4 396.7,326.7 397.7,326.7 401.2,344.3 		"/>
		<g>
			<polygon class="st1" points="392.4,333.5 392.7,334.7 394.7,333.9 394.5,332.7 			"/>
		</g>
		<g>
			<polygon class="st1" points="392.9,336 393.2,337.2 395.2,336.4 395,335.2 			"/>
		</g>
		<path class="st13" d="M385.5,328.6l6-0.2l0,0c0.9,0.9,1.2,2.3,0.8,3.5l-0.1,0.2l-5.7,1.8L385.5,328.6z"/>
	</g>
	<path class="st11" d="M308.9,283.8c0,0,7.3,2,13.6,9.6c4.2,5.1,7.5,15.1,11.6,22.1c3.7,6.4,9.6,9.7,17,10.4l34.4,2.5l1,5.2
		c0,0-35.5,15.3-53,6c-17.5-9.3-40-41-40-41L308.9,283.8z"/>
	<g>
		<path class="st2" d="M357.6,370.6l-3.2,12.9c-0.2,1.8,0,3.8,1.9,4.6c0,0,1.3,0.5,2.6,0.8c0.8-0.3,4.2-17.6,4.2-17.6l-0.1-0.1
			C360.6,368.7,357.6,370.6,357.6,370.6z"/>
		<polygon class="st11" points="359,388.9 363.1,371.4 364,371.7 359.8,389.2 		"/>
		<g>
			<polygon class="st1" points="356.4,375.7 356.1,376.8 358.3,377 358.6,375.9 			"/>
		</g>
		<g>
			<polygon class="st1" points="355.8,378.2 355.5,379.3 357.7,379.5 358,378.4 			"/>
		</g>
		<path class="st13" d="M352.1,368.3l5.5,2.3l0,0c0.4,1.2,0.2,2.6-0.7,3.5l-0.2,0.2l-5.9-0.8L352.1,368.3z"/>
	</g>
	<path class="st5" d="M301.4,295.5c0,0,6.5,2.4,9,12c1.7,6.4-0.2,19.4,0.5,27.4c0.7,7.4,4.7,12.8,11,16.6l30.2,16.8l-1.3,5.2
		c0,0-38.6-1.1-50.7-16.9c-12-15.8-20.6-53.1-20.6-53.1L301.4,295.5z"/>
	<path class="st13" d="M316.6,254.2l29.1,19.7c0,0,5.4-2.5,8.7-1.9c1.8,0.3,3,2.3,3.7,4.2c0.6,1.4-0.6,2.9-2.2,2.7
		c-2.1-0.3-4.6-0.6-5.9-0.1c-3.3,1.4-5.5-0.2-5.5-0.2L310.1,262L316.6,254.2z"/>
	<path class="st13" d="M221.1,237.5l-9.6-1.5L200,206.6l5.1-8.5c0,0-1.7-0.9-3.2,0.8c-1.5,1.8-3.3,2.4-3.3,2.4s-2.5-0.9-0.5-3.7
		c0.9-1.9,2.5-1.6,6.7-4.4c-0.4-0.7-7.1,1.3-7.1,1.3c-2.1,0.5-4.5,6.9-4.5,6.9c0,0.6,0.1,1.2,0.3,1.8l2.3,5.4c0,0,6.8,32.6,8.5,35.4
		c1.8,2.8,9.6,3.4,9.6,3.4L221.1,237.5z"/>
	<path class="st4" d="M279.5,231.8c11.7,0.9,38.9,23.5,38.9,23.5l-4.6,8.4l-21.3-8.7c0,0,10.2,19,21.7,31.3c2,6-4.3,9.2-15.2,13.3
		c-10.8,4.2-19.8,3.9-19.8,3.9s-16.2-25.2-25.8-37.8c-9.6-12.7-8-15.7-11.1-13.1c-10.2,0.4-31.2-5.8-31.2-5.8l10.1-9.4l33.8-0.8
		C255,236.7,269.1,232.4,279.5,231.8z"/>
	<path class="st13" d="M244.5,206.8l-2.3,9.6c-1,4.1,0.2,8.4,3.1,11.4l2.7,2.7L244.5,206.8z"/>
	<path class="st11" d="M250.4,200.1c14.5-9,25.7,22.8,25.7,22.8s8.6,19.7,7.4,30.6c-1.1,9.4-12.1,13.6-18.7,13.5
		c-3.2-0.1-6.4,0.5-9.3,1.9c-4.3,2-10.1,3.1-14.5-4c-4.2-6.7,0.6-16.9,3.6-23.9c1.9-4.6,2.1-9.7,0.6-14.4
		C242.6,218.6,240.6,206.2,250.4,200.1z"/>
</g>
</svg>
