<?xml version="1.0" encoding="utf-8"?>
<!-- Generator: Adobe Illustrator 24.0.1, SVG Export Plug-In . SVG Version: 6.00 Build 0)  -->
<svg version="1.1" id="Layer_1" xmlns="http://www.w3.org/2000/svg" xmlns:xlink="http://www.w3.org/1999/xlink" x="0px" y="0px"
	 viewBox="0 0 512 512" style="enable-background:new 0 0 512 512;" xml:space="preserve">
<style type="text/css">
	.st0{fill:#11FFD9;}
	.st1{fill:#DB0074;}
	.st2{fill:#7FB2FF;}
	.st3{fill:#22BBFF;}
	.st4{fill:#FFFFFF;}
	.st5{fill:#FF0167;}
	.st6{opacity:0.68;fill:#79E900;}
	.st7{opacity:0.68;fill:#D6F300;}
	.st8{fill:#9F0085;}
	.st9{opacity:0.62;fill:#FFFFFF;}
</style>
<g>
	<g>
		<g>
			<image style="overflow:visible;" width="162" height="337" xlink:href="5F8E9C99.png"  transform="matrix(1 0 0 1 277 8)">
			</image>
			<polygon class="st0" points="239.7,283.4 466.1,351.9 239.7,456.2 15.6,351.9 			"/>
			<polygon class="st1" points="142.3,354.4 391,459.1 295.3,503.2 47.6,387.3 			"/>
			<path class="st2" d="M439,362.6V56.7L333.8,93.3V411C333.8,411,439,362.8,439,362.6z"/>
			<polygon class="st3" points="15.2,352.2 15.2,126 130.7,169.2 130.7,405.8 			"/>
			<polygon class="st4" points="26.7,379 26.7,253.4 102.9,288.8 102.9,414.3 			"/>
			<path class="st5" d="M237.7,456.7V196.6l228.6-85v239.2C466.3,350.9,240.1,457.2,237.7,456.7z"/>
			<path class="st6" d="M295.1,503.6V325.7l96.7-41.1v174C391.9,458.6,295.7,503.8,295.1,503.6z"/>
			
				<image style="overflow:visible;opacity:0.68;" width="162" height="221" xlink:href="5F8E9C9B.png"  transform="matrix(1 0 0 1 39 124)">
			</image>
			<path class="st7" d="M111.9,288.1v-83l290.2-101.3v87.9C402.2,191.7,111.9,288.3,111.9,288.1z"/>
			<polygon class="st8" points="222,245 222,448.9 70.8,378.3 70.8,184.8 			"/>
			<polygon class="st9" points="466.2,225.5 264.3,309.8 264.3,280.4 466.2,196.1 			"/>
			<polygon class="st8" points="496.8,370.2 418.3,408.7 418.3,438.1 496.8,399.6 			"/>
		</g>
	</g>
</g>
</svg>
