<?xml version="1.0" encoding="utf-8"?>
<!-- Generator: Adobe Illustrator 22.1.0, SVG Export Plug-In . SVG Version: 6.00 Build 0)  -->
<svg version="1.1" id="Layer_1" xmlns="http://www.w3.org/2000/svg" xmlns:xlink="http://www.w3.org/1999/xlink" x="0px" y="0px"
	 viewBox="0 0 512 512" style="enable-background:new 0 0 512 512;" xml:space="preserve">
<style type="text/css">
	.st0{fill:#4C6E77;}
</style>
<path class="st0" d="M464,0H144c-26.5,0-48,21.5-48,48v48H48c-26.5,0-48,21.5-48,48v320c0,26.5,21.5,48,48,48h320
	c26.5,0,48-21.5,48-48v-48h48c26.5,0,48-21.5,48-48V48C512,21.5,490.5,0,464,0z M368,464H48V256h320V464z M464,368h-48V144
	c0-26.5-21.5-48-48-48H144V48h320V368z"/>
</svg>
