<?xml version="1.0" encoding="utf-8"?>
<!-- Generator: Adobe Illustrator 22.1.0, SVG Export Plug-In . SVG Version: 6.00 Build 0)  -->
<svg version="1.1" id="Layer_1" xmlns="http://www.w3.org/2000/svg" xmlns:xlink="http://www.w3.org/1999/xlink" x="0px" y="0px"
	 viewBox="0 0 448 512" style="enable-background:new 0 0 448 512;" xml:space="preserve">
<style type="text/css">
	.st0{fill:#4C6E77;}
</style>
<g>
	<path class="st0" d="M116.2,333.5H53.7l-16,68.5H13.5l72.8-300.5L155.7,402h-24.1L116.2,333.5z M107.2,292.6l-21.7-96.2l-22.6,96.2
		H107.2z"/>
	<path class="st0" d="M232.9,181.1c-1.3-6.4-3.3-12.3-6.6-17.9c-4.6-7.2-9.4-10.2-15.8-10.2c-13.6,0-20.6,15.7-20.6,34
		c0,8.5,1.5,23.4,15.8,34.5l14.7,11.5c27,21.3,34.4,51.1,34.4,83.4c0,54.1-19.7,91.1-47.2,91.1c-16.9,0-27-12.3-34.4-28.5
		c-7.9-17-11.4-35.8-12.3-55.3l22.2-9.4c0,14,2.6,27.2,6.1,36.2c4.2,10.2,10.3,17,19.1,17c13.6,0,24.1-19.2,24.1-47.7
		c0-28.9-11.4-40.9-21.1-48.5l-14-11.5c-12.1-9.8-29.8-29.4-29.8-71.9c0-38.3,15.4-74.9,42.8-74.9c15.8,0,24.8,11.5,29.4,19.2
		c3.9,6.8,8.1,16.6,11.2,28.5L232.9,181.1z"/>
	<path class="st0" d="M273.9,402l30.7-305.2l50.9,220.5l51.3-220.5L434.5,402h-22.8l-14.9-171.1l-42.6,184.3l-42.1-184.7L296.7,402
		H273.9z"/>
</g>
</svg>
