<?xml version="1.0" encoding="utf-8"?>
<!-- Generator: Adobe Illustrator 22.1.0, SVG Export Plug-In . SVG Version: 6.00 Build 0)  -->
<svg version="1.1" id="Layer_1" xmlns="http://www.w3.org/2000/svg" xmlns:xlink="http://www.w3.org/1999/xlink" x="0px" y="0px"
	 viewBox="0 0 306 344.4" style="enable-background:new 0 0 306 344.4;" xml:space="preserve">
<style type="text/css">
	.st0{fill:#4C6E77;}
	.st1{fill:#FFFFFF;}
</style>
<path class="st0" d="M302.1,258.3c2.4-4.2,3.9-8.8,3.9-13.1V99.1c0-4.2-1.5-8.9-3.9-13.1L153,172.2L302.1,258.3z"/>
<path class="st0" d="M166.3,341.2l126.5-73c3.6-2.1,7-5.7,9.4-9.9L153,172.2L3.9,258.3c2.4,4.2,5.7,7.8,9.4,9.9l126.5,73
	C147,345.4,159,345.4,166.3,341.2z"/>
<path class="st0" d="M302.1,86.1c-2.4-4.2-5.7-7.8-9.4-9.9l-126.5-73c-7.3-4.2-19.2-4.2-26.5,0l-126.5,73C6,80.4,0,90.7,0,99.1
	v146.1c0,4.2,1.5,8.9,3.9,13.1L153,172.2L302.1,86.1z"/>
<g>
	<path class="st1" d="M129.2,260.4c-48.7,0-88.2-39.6-88.2-88.2s39.6-88.2,88.2-88.2c31.4,0,60.7,16.9,76.4,44.1l-38.2,22.1
		c-7.9-13.6-22.5-22.1-38.2-22.1c-24.3,0-44.1,19.8-44.1,44.1c0,24.3,19.8,44.1,44.1,44.1c15.7,0,30.4-8.5,38.2-22.1l38.2,22.1
		C189.9,243.5,160.6,260.4,129.2,260.4z"/>
</g>
<g>
	<g>
		<polygon class="st1" points="253,147.1 240.1,147.1 240.1,134.3 227.2,134.3 227.2,147.1 214.4,147.1 214.4,160 227.2,160 
			227.2,172.8 240.1,172.8 240.1,160 253,160 		"/>
	</g>
	<g>
		<polygon class="st1" points="289.8,147.1 277,147.1 277,134.3 264.1,134.3 264.1,147.1 251.3,147.1 251.3,160 264.1,160 
			264.1,172.8 277,172.8 277,160 289.8,160 		"/>
	</g>
	<g>
		<polygon class="st1" points="253,184.4 240.1,184.4 240.1,171.5 227.2,171.5 227.2,184.4 214.4,184.4 214.4,197.2 227.2,197.2 
			227.2,210.1 240.1,210.1 240.1,197.2 253,197.2 		"/>
	</g>
	<g>
		<polygon class="st1" points="289.8,184.4 277,184.4 277,171.5 264.1,171.5 264.1,184.4 251.3,184.4 251.3,197.2 264.1,197.2 
			264.1,210.1 277,210.1 277,197.2 289.8,197.2 		"/>
	</g>
</g>
</svg>
