<?xml version="1.0" encoding="utf-8"?>
<!-- Generator: Adobe Illustrator 22.1.0, SVG Export Plug-In . SVG Version: 6.00 Build 0)  -->
<svg version="1.1" id="Layer_1" xmlns="http://www.w3.org/2000/svg" xmlns:xlink="http://www.w3.org/1999/xlink" x="0px" y="0px"
	 viewBox="0 0 306 344.4" style="enable-background:new 0 0 306 344.4;" xml:space="preserve">
<style type="text/css">
	.st0{fill:#4C6E77;}
	.st1{fill:#FFFFFF;}
</style>
<path class="st0" d="M302.1,258.3c2.4-4.2,3.9-8.8,3.9-13.1V99.1c0-4.2-1.5-8.9-3.9-13.1L153,172.2L302.1,258.3z"/>
<path class="st0" d="M166.3,341.2l126.5-73c3.6-2.1,7-5.7,9.4-9.9L153,172.2L3.9,258.3c2.4,4.2,5.7,7.8,9.4,9.9l126.5,73
	C147,345.4,159,345.4,166.3,341.2z"/>
<path class="st0" d="M302.1,86.1c-2.4-4.2-5.7-7.8-9.4-9.9l-126.5-73c-7.3-4.2-19.2-4.2-26.5,0l-126.5,73C6,80.4,0,90.7,0,99.1
	v146.1c0,4.2,1.5,8.9,3.9,13.1L153,172.2L302.1,86.1z"/>
<g>
	<path class="st1" d="M73.2,242.3c10.9,0,19.8,8.9,19.8,19.8c0,10.9-8.9,19.8-19.8,19.8c-10.9,0-19.8-8.9-19.8-19.8
		C53.4,251.2,62.3,242.3,73.2,242.3z"/>
	<path class="st1" d="M133.2,37.5h32.3V151c13.9-14.2,29-15.5,37.3-15.5c25.4,0,36.9,13.2,40.9,18.8c8.6,12.5,8.9,28.7,8.9,38.6
		v85.1h-32.3v-82.1c0-8.2,0-17.2-6.3-24.1c-3.6-4-9.9-7.3-18.1-7.3c-10.9,0-19.5,5.3-23.7,11.5c-4.6,6.6-6.6,17.2-6.6,35v67h-32.3
		V37.5z"/>
</g>
</svg>
