<?xml version="1.0" encoding="utf-8"?>
<!-- Generator: Adobe Illustrator 22.1.0, SVG Export Plug-In . SVG Version: 6.00 Build 0)  -->
<svg version="1.1" id="Layer_1" xmlns="http://www.w3.org/2000/svg" xmlns:xlink="http://www.w3.org/1999/xlink" x="0px" y="0px"
	 viewBox="0 0 256 256" style="enable-background:new 0 0 256 256;" xml:space="preserve">
<style type="text/css">
	.st0{fill:#FF7C00;}
	.st1{fill:#FFFFFF;}
</style>
<rect class="st0" width="256" height="256"/>
<path class="st1" d="M85.1,162.1l-10.6,40.1c-0.3,1.1-0.6,1.3-2,1.3H52.8c-1.3,0-1.6-0.4-1.3-2l38-133c0.6-2.4,1.1-4.6,1.3-11.1
	c0-0.9,0.4-1.3,1.1-1.3H120c0.9,0,1.3,0.3,1.6,1.3l42.5,144.3c0.3,1.1,0,1.7-1.1,1.7h-22.2c-1.1,0-1.7-0.3-2-1.2L127.7,162
	L85.1,162.1L85.1,162.1z M122.2,140.4c-3.8-14.9-12.6-47.2-15.9-62.8h-0.3c-2.8,15.6-9.9,42.1-15.5,62.8H122.2z M171.4,66
	c0-8.5,6-13.6,13.6-13.6c8.2,0,13.6,5.5,13.6,13.6c0,8.8-5.7,13.6-13.9,13.6C177,79.7,171.4,74.9,171.4,66L171.4,66z M173,96.4
	c0-1.1,0.4-1.6,1.6-1.6h21c1.1,0,1.6,0.4,1.6,1.6V202c0,1.1-0.3,1.6-1.6,1.6h-20.7c-1.3,0-1.7-0.6-1.7-1.7V96.4H173z"/>
</svg>
