<?xml version="1.0" encoding="utf-8"?>
<!-- Generator: Adobe Illustrator 22.1.0, SVG Export Plug-In . SVG Version: 6.00 Build 0)  -->
<svg version="1.1" id="Layer_1" xmlns="http://www.w3.org/2000/svg" xmlns:xlink="http://www.w3.org/1999/xlink" x="0px" y="0px"
	 viewBox="0 0 377.6 512" style="enable-background:new 0 0 377.6 512;" xml:space="preserve">
<style type="text/css">
	.st0{fill:#4C6E77;}
</style>
<path class="st0" d="M121.6,396c0,0-19.6,11.4,13.9,15.2c40.6,4.6,61.3,4,106-4.5c0,0,11.8,7.4,28.2,13.8
	C169.5,463.4,42.9,418,121.6,396 M109.4,339.9c0,0-21.9,16.2,11.6,19.7c43.3,4.5,77.6,4.8,136.8-6.6c0,0,8.2,8.3,21.1,12.8
	C157.6,401.3,22.6,368.7,109.4,339.9 M212.6,244.8c24.7,28.4-6.5,54-6.5,54s62.7-32.4,33.9-72.9c-26.9-37.8-47.5-56.6,64.1-121.3
	C304.2,104.6,128.9,148.4,212.6,244.8 M345.2,437.4c0,0,14.5,11.9-15.9,21.2c-57.9,17.5-240.8,22.8-291.6,0.7
	c-18.3-7.9,16-19,26.8-21.3c11.2-2.4,17.7-2,17.7-2c-20.3-14.3-131.3,28.1-56.4,40.2C230,509.4,398.2,461.3,345.2,437.4 M131,281.8
	c0,0-93.1,22.1-33,30.1c25.4,3.4,76,2.6,123.1-1.3c38.5-3.2,77.2-10.2,77.2-10.2s-13.6,5.8-23.4,12.5
	c-94.5,24.9-277,13.3-224.5-12.1C94.9,279.4,131,281.8,131,281.8 M298,375.1c96.1-49.9,51.6-97.9,20.6-91.4c-7.6,1.6-11,3-11,3
	s2.8-4.4,8.2-6.3c61.3-21.6,108.5,63.6-19.8,97.3C296,377.6,297.5,376.3,298,375.1 M240,0c0,0,53.2,53.2-50.5,135
	c-83.1,65.6-19,103.1,0,145.8c-48.5-43.8-84.1-82.3-60.2-118.2C164.4,110.1,261.5,84.5,240,0 M140.5,510.4
	c92.2,5.9,233.8-3.3,237.1-46.9c0,0-6.4,16.5-76.2,29.7c-78.7,14.8-175.8,13.1-233.3,3.6C68.1,496.7,79.9,506.5,140.5,510.4"/>
</svg>
