<?xml version="1.0" encoding="utf-8"?>
<!-- Generator: Adobe Illustrator 22.1.0, SVG Export Plug-In . SVG Version: 6.00 Build 0)  -->
<svg version="1.1" id="Layer_1" xmlns="http://www.w3.org/2000/svg" xmlns:xlink="http://www.w3.org/1999/xlink" x="0px" y="0px"
	 viewBox="0 0 384 512" style="enable-background:new 0 0 384 512;" xml:space="preserve">
<style type="text/css">
	.st0{fill:#2F7929;}
	.st1{fill:#FFFFFF;}
</style>
<g>
	<path class="st0" d="M224,136V0H24C10.7,0,0,10.7,0,24v464c0,13.3,10.7,24,24,24h336c13.3,0,24-10.7,24-24V160H248
		C234.8,160,224,149.2,224,136z"/>
	<path class="st0" d="M377,105L279.1,7c-4.5-4.5-10.6-7-17-7H256v128h128v-6.1C384,115.6,381.5,109.5,377,105z"/>
</g>
<g>
	<path class="st1" d="M193.5,367.6h-40.9v73.5c0,10.5-2.1,18.5-6.3,23.9c-4.2,5.4-9.5,8.2-15.9,8.2c-6.7,0-12.1-2.7-16.2-8.1
		c-4.1-5.4-6.2-13.3-6.2-23.7V241.2c0-11.6,2.3-19.8,6.8-24.8c4.5-5,11.7-7.4,21.5-7.4h57.3c16.9,0,30,1.5,39.1,4.6
		c9,3,16.8,7.9,23.4,14.7c6.6,6.9,11.5,15.2,15,25.2c3.4,9.9,5.1,21.1,5.1,33.5c0,26.5-6.9,46.5-20.7,60.2
		C241.4,360.8,220.9,367.6,193.5,367.6z M182.7,248.5h-30.1v79.4h30.1c10.5,0,19.3-1.3,26.4-3.9c7.1-2.6,12.4-6.9,16.2-12.8
		c3.7-5.9,5.6-13.6,5.6-23.2c0-11.5-2.9-20.8-8.6-28C215.8,252.3,202.6,248.5,182.7,248.5z"/>
</g>
</svg>
