<?xml version="1.0" encoding="utf-8"?>
<!-- Generator: Adobe Illustrator 22.1.0, SVG Export Plug-In . SVG Version: 6.00 Build 0)  -->
<svg version="1.1" id="Layer_1" xmlns="http://www.w3.org/2000/svg" xmlns:xlink="http://www.w3.org/1999/xlink" x="0px" y="0px"
	 viewBox="0 0 512 512" style="enable-background:new 0 0 512 512;" xml:space="preserve">
<style type="text/css">
	.st0{fill:#4C6E77;}
</style>
<path class="st0" d="M446.9,356.7c0.7,3.2,0.9,7.6,0.9,16.9c-1.3,22.2,5.5,23.8,4,56.6c-1.5,14.5-9.1,22.7-12,41.5
	c-1,6.8-2.2,9.7-5.8,16.5l36.4,5.8c-0.1-10.9,1.6-16.6-5.1-34.5c-9.2-20.3-2-23.4-1.6-40.3c0.6-25.5,15-25,4.7-52.4
	c-7-14.2,2.2-13.1-2-44.6c-5.5-37.4,0.3-101.9,12.6-101.3c10.7,2.3,9.8,27.4,11.5,39.8c3.6,22.1-10.8,33.9-12.8,44.2
	c-0.2,7.1,6,10.9,10.2,8.3c4.7-3.3,12.7-14.3,19.1-24.2c5.9-22.7,6.1-39.4,2.9-61.7c0-14.5-2.3-19.9-13.7-30.8
	c-21.5-23.4-33.8-43.9-46.1-71.4c-4.2-6.2-10.4-13.7-15.1-18.2c-15.5-13.2-20.1-44.7-34.6-63.4c-14.8-17.7-33.5-27.5-58.3-25.2
	C324,17.2,279.9,32.8,263.5,47c-15.8,13.7-14.5,36.2-54.6,57.2c-15.4,8.2-47.4,30.2-55.4,75.3c-9.7,9-17.3-3.4-14.9-12
	c5.9-20.9,16.6-39.7,15.1-61.9c-3.4-31.2-16.7-56.2-39.2-66.4c-18-8.1-30.2-4-39.1,5.1C43.5,67.3,15.1,40.4,0,78.2
	c-1.2,25.7,40.1,8.3,44.3,30.3c-6.6,28.1-21.1,12.6-12,92.5c1.8,21.1,19.2,32.2,31.3,49.9C81.8,271.1,114,292.3,145,284
	c20.3-6.7,23.1,7.3,20.6,16.7c-4.6,26.9,1.9,38.3,2.4,61.3c0.5,12.5,5,16,5.3,52.4c2.6,26.6-8.2,50.8-19.1,66.7l26.8-1.4
	c3.9-14.8,3.4-26,7.3-50.1c2.6-15.6,14.2-19.7,12.6-45.2c0-44.6,16.5-43.8,16.2-65.4c0.7-15.8,5.8-26.5,21.1-25.2
	c19.4-0.4,15.3,8.2,12.7,23.3c-1.3,24.8-8.4,22.2-12.2,36c-1.9,12.6-1.2,29.8,5.2,34.8c6.3,5,13,10.4,25.8,19
	c6.6,7.4,25.4,21.3,27.4,33.8c-4.2,29-33.8,23.6-33,35.9l44.1,0.4c4.6-2.9,5.9-11.3,10.6-11.4c4.2,0.3,8.9,9.2,13.1,12.6
	c6,0.3,11.9,0.7,17.7,1.2c3.7-3.5,6-14.7,4.2-19.8c-3.4-20.8-22.8-16.8-19.5-33.6c8.5-19.1,14.5-20.1,19.7-29.5
	c8.7-15.6,15.3-16.1,20.8-26.5c-0.7-19.8-0.2-38.5,2.7-54.9c1.6-14.9,7.6-26.7,16-39.6c10.9-13.4,11.8-14.7,19-4.6
	C420.2,304.9,438.7,332.4,446.9,356.7z M281.1,367c2.5-2.1,7.8-6.7,11.7-10.3c8.2-7.4,8.4-7.7,10.4-18.2
	c2.7-19.3,10.1-10.8,16.8-36.9c0.7-2.4,3.6-14.8,9.1-14.1c4.7,0.6,7.1,2.1,8.2,19.2c1.6,22.3,6.8,40.5,4.9,49.9
	c-0.4,3.1-0.8,9.4-1.1,14c-0.8,20.7-11.6,30.4-17.5,41.3c-6.3,10.1-10.3,15.7-33.2-3.3C275.6,390.7,265.6,379.7,281.1,367z"/>
</svg>
