<?xml version="1.0" encoding="utf-8"?>
<!-- Generator: Adobe Illustrator 22.1.0, SVG Export Plug-In . SVG Version: 6.00 Build 0)  -->
<svg version="1.1" id="Layer_1" xmlns="http://www.w3.org/2000/svg" xmlns:xlink="http://www.w3.org/1999/xlink" x="0px" y="0px"
	 viewBox="0 0 256 256" style="enable-background:new 0 0 256 256;" xml:space="preserve">
<style type="text/css">
	.st0{fill:#00C8FF;}
	.st1{fill:#FFFFFF;}
</style>
<rect class="st0" width="256" height="256"/>
<g>
	<path class="st1" d="M83.4,62c-12.6,0-24.7,0.3-32.9,0.6c-1,0-2.8,0.6-2.8,1.5V201c0,1.1,0.5,1.5,1.5,1.5h19.5
		c1.1,0,1.5-0.5,1.5-1.5v-48.8c3.4,0,5.1,0.3,9.9,0.3c28.8,0,52.1-13.9,52.1-46.2C132.4,81.3,118.6,62,83.4,62z M80.6,132
		c-5.1,0-7.3,0-10.3-0.3V82.6c2.3-0.1,7.1-0.3,12.2-0.3c16.9,0,27,8.1,27,24.3C109.6,126.8,95.6,132,80.6,132z"/>
	<path class="st1" d="M179.8,116.6c-10.1,0-13.5,5.1-13.5,9.3c0,4.6,2.3,7.8,15.8,14.8c20,9.6,26.2,18.9,26.2,32.6
		c0,20.4-15.5,31.3-36.5,31.3c-11.1,0-20.7-2.3-26.1-5.5c-0.9-0.3-1-1-1-2v-18.7c0-1.3,0.6-1.6,1.5-1c8,5.2,17.2,7.5,25.6,7.5
		c10.1,0,14.3-4.2,14.3-9.9c0-4.6-2.9-8.6-15.8-15.3c-18.1-8.6-25.6-17.4-25.6-32.1c0-16.4,12.9-30,35.1-30
		c10.9,0,18.6,1.6,22.8,3.6c1,0.6,1.3,1.6,1.3,2.6v17.4c0,1-0.6,1.6-1.9,1.3C196.4,118.8,188.1,116.6,179.8,116.6L179.8,116.6z"/>
</g>
</svg>
