<?xml version="1.0" encoding="utf-8"?>
<!-- Generator: Adobe Illustrator 22.1.0, SVG Export Plug-In . SVG Version: 6.00 Build 0)  -->
<svg version="1.1" id="Layer_1" xmlns="http://www.w3.org/2000/svg" xmlns:xlink="http://www.w3.org/1999/xlink" x="0px" y="0px"
	 viewBox="0 0 472 512" style="enable-background:new 0 0 472 512;" xml:space="preserve">
<style type="text/css">
	.st0{fill:#4C6E77;}
</style>
<path class="st0" d="M0.4,40.7l40.1,359.8c2.1,13.5,9.3,23.6,21.8,30.1L221,508.5c10.5,4.5,20.5,4.9,31.9,0l158.1-77.9
	c13-6.5,20.6-20.1,20-34.2l38.9-356.9c3-17-10.7-39.1-36-39.5H36.4C20.7,0.1-3.3,11.8,0.4,40.7z M61.8,299.2L88,166.9h60.4
	c26.1,1.6,39.2,14.7,39.2,37.6c0,39.2-31,62.1-58.8,60.4H99.4l-6.5,34.3L61.8,299.2z M114.1,191.4h21.2c11.4,0,19.6,4.9,19.6,14.7
	c-1.6,27.8-14.7,32.7-29.4,34.3h-19.6L114.1,191.4z M185.8,264.9L212,132.6h31l-6.5,34.3h29.4c26.1,1.6,35.9,14.7,32.7,31l-11.4,67
	h-32.7l11.4-60.4c1.6-8.2,1.6-13.1-9.8-13.1h-24.5l-14.7,73.5L185.8,264.9z M289.7,297.4l26-131.5h60.1c26,1.6,39,14.6,39,37.3
	c0,39-30.8,61.7-58.4,60.1h-29.2l-6.5,34.1L289.7,297.4z M333.6,238.9l8.1-48.7h21.1c11.4,0,19.5,4.9,19.5,14.6
	c-1.6,27.6-14.6,32.5-29.2,34.1L333.6,238.9z"/>
</svg>
