<?xml version="1.0" encoding="utf-8"?>
<!-- Generator: Adobe Illustrator 22.1.0, SVG Export Plug-In . SVG Version: 6.00 Build 0)  -->
<svg version="1.1" id="Layer_1" xmlns="http://www.w3.org/2000/svg" xmlns:xlink="http://www.w3.org/1999/xlink" x="0px" y="0px"
	 viewBox="0 0 384 512" style="enable-background:new 0 0 384 512;" xml:space="preserve">
<style type="text/css">
	.st0{fill:#D24625;}
</style>
<path class="st0" d="M193.7,271.2c8.8,0,15.5,2.7,20.3,8.1c9.6,10.9,9.8,32.7-0.2,44.1c-4.9,5.6-11.9,8.5-21.1,8.5h-26.9v-60.7
	H193.7z M377,105L279,7c-4.5-4.5-10.6-7-17-7h-6v128h128v-6.1C384,115.6,381.5,109.5,377,105z M224,136V0H24C10.7,0,0,10.7,0,24v464
	c0,13.3,10.7,24,24,24h336c13.3,0,24-10.7,24-24V160H248C234.8,160,224,149.2,224,136z M277,301.2c0,90.3-88.8,77.6-111.1,77.6V436
	c0,6.6-5.4,12-12,12h-30.8c-6.6,0-12-5.4-12-12V236.2c0-6.6,5.4-12,12-12h81C248.6,224.2,277,257,277,301.2z"/>
</svg>
