<?xml version="1.0" encoding="utf-8"?>
<!-- Generator: Adobe Illustrator 22.1.0, SVG Export Plug-In . SVG Version: 6.00 Build 0)  -->
<svg version="1.1" id="Layer_1" xmlns="http://www.w3.org/2000/svg" xmlns:xlink="http://www.w3.org/1999/xlink" x="0px" y="0px"
	 viewBox="0 0 448 512" style="enable-background:new 0 0 448 512;" xml:space="preserve">
<style type="text/css">
	.st0{fill:#4C6E77;}
</style>
<path class="st0" d="M167.8,36.4c-45.2,8-53.4,24.7-53.4,55.6v40.7h106.9v13.6h-147c-31.1,0-58.3,18.7-66.8,54.2
	c-9.8,40.7-10.2,66.1,0,108.6c7.6,31.6,25.7,54.2,56.8,54.2H101v-48.8c0-35.3,30.5-66.4,66.8-66.4h106.8c29.7,0,53.4-24.5,53.4-54.3
	V91.9c0-29-24.4-50.7-53.4-55.6C238.8,30.4,199.9,30.7,167.8,36.4z M161.1,64.8c11,0,20.1,9.2,20.1,20.4s-9,20.3-20.1,20.3
	S141,96.4,141,85.2C141.1,73.9,150,64.8,161.1,64.8z M346.3,146.2v47.5c0,36.8-31.2,67.8-66.8,67.8H172.7c-29.2,0-53.4,25-53.4,54.3
	v101.8c0,29,25.2,46,53.4,54.3c33.8,9.9,66.3,11.7,106.8,0c26.9-7.8,53.4-23.5,53.4-54.3v-40.7H226.2v-13.6h160.2
	c31.1,0,42.6-21.7,53.4-54.2c11.2-33.5,10.7-65.7,0-108.6c-7.7-30.9-22.3-54.2-53.4-54.2L346.3,146.2L346.3,146.2z M286.2,404
	c11.1,0,20.1,9.1,20.1,20.3c0,11.3-9,20.4-20.1,20.4c-11,0-20.1-9.2-20.1-20.4C266.2,413,275.2,404,286.2,404z"/>
</svg>
