<?xml version="1.0" encoding="utf-8"?>
<!-- Generator: Adobe Illustrator 22.1.0, SVG Export Plug-In . SVG Version: 6.00 Build 0)  -->
<svg version="1.1" id="Layer_1" xmlns="http://www.w3.org/2000/svg" xmlns:xlink="http://www.w3.org/1999/xlink" x="0px" y="0px"
	 viewBox="0 0 512 512" style="enable-background:new 0 0 512 512;" xml:space="preserve">
<style type="text/css">
	.st0{fill:#4C6E77;}
</style>
<path class="st0" d="M131.7,495.8l332,13.2l-450.4,1.7L131.7,495.8z M362.7,314.6L498.4,498l-350.2-13.9L362.7,314.6z M512,495.6
	L372.2,306.5l120.7-226L512,495.6z M0.4,451.7l16-153.7l27.8,23.8L0,460L0.4,451.7z M52.7,341.4l69.9,138.9L5.1,495.1L52.7,341.4z
	 M121.7,447.8L57.5,320l90.3-57.4L121.7,447.8z M350.7,303.1L133.6,474.5l28.9-210.9L350.7,303.1z M265.4,137.1L346.1,290
	l-182.2-40.4L265.4,137.1z M280.2,136.9l191.5-51.2l-110,205.5L280.2,136.9z M273.6,123.2l26.5-68.7L450,78.8L273.6,123.2z
	 M491,71.9L330.9,43.8L458.8,2.3L491,71.9z M408.4,1.3L287.6,40.6l-21.9-5.9L408.4,1.3z M255.8,123.3L147.1,244.5l-97,60.6
	l-27.5-23.5l38.9-72.5l91.9-102.6l87.8-61.3l40.6,10.9L255.8,123.3z"/>
</svg>
