<?xml version="1.0" encoding="utf-8"?>
<!-- Generator: Adobe Illustrator 22.1.0, SVG Export Plug-In . SVG Version: 6.00 Build 0)  -->
<svg version="1.1" id="Layer_1" xmlns="http://www.w3.org/2000/svg" xmlns:xlink="http://www.w3.org/1999/xlink" x="0px" y="0px"
	 viewBox="0 0 384 512" style="enable-background:new 0 0 384 512;" xml:space="preserve">
<style type="text/css">
	.st0{fill:#2B569A;}
</style>
<g>
	<path class="st0" d="M224,136V0H24C10.7,0,0,10.7,0,24v464c0,13.3,10.7,24,24,24h336c13.3,0,24-10.7,24-24V160H248
		C234.8,160,224,149.2,224,136z M275.3,233.6l-45.6,202.9c-1.4,6.6-7.4,11.4-14.1,11.4h-47.1c-6.8,0-12.7-4.7-14.1-11.4l-45.6-202.9
		c-2.1-9.1,4.8-17.6,14.1-17.6h29.6c6.9,0,12.9,4.8,14.2,11.7c18.8,94.2,24.3,132.2,25.4,147.6c0,0,0,0,0,0
		c1.1-15.4,6.5-53.4,25.4-147.5c1.3-6.9,7.4-11.7,14.2-11.7h29.6C270.5,216,277.4,224.6,275.3,233.6z"/>
	<path class="st0" d="M377,105L279.1,7c-4.5-4.5-10.6-7-17-7H256v128h128v-6.1C384,115.6,381.5,109.5,377,105z"/>
</g>
</svg>
