<?xml version="1.0" encoding="utf-8"?>
<!-- Generator: Adobe Illustrator 22.1.0, SVG Export Plug-In . SVG Version: 6.00 Build 0)  -->
<svg version="1.1" id="Layer_1" xmlns="http://www.w3.org/2000/svg" xmlns:xlink="http://www.w3.org/1999/xlink" x="0px" y="0px"
	 viewBox="0 0 384 512" style="enable-background:new 0 0 384 512;" xml:space="preserve">
<style type="text/css">
	.st0{fill:#FB5568;}
</style>
<path class="st0" d="M384,121.9v6.1H256V0h6.1c6.4,0,12.5,2.5,17,7L377,105C381.5,109.5,384,115.6,384,121.9z M224,136V0H24
	C10.7,0,0,10.7,0,24v464c0,13.3,10.7,24,24,24h336c13.3,0,24-10.7,24-24V160H248C234.8,160,224,149.2,224,136z M320,280v112
	c0,21.4-25.9,32-41,17l-55-55V392c0,13.3-10.7,24-24,24H88c-13.3,0-24-10.7-24-24V280c0-13.3,10.7-24,24-24h112
	c13.3,0,24,10.7,24,24v38.1l55-55C294,248,320,258.6,320,280z"/>
</svg>
