<?xml version="1.0" encoding="utf-8"?>
<!-- Generator: Adobe Illustrator 22.1.0, SVG Export Plug-In . SVG Version: 6.00 Build 0)  -->
<svg version="1.1" id="Layer_1" xmlns="http://www.w3.org/2000/svg" xmlns:xlink="http://www.w3.org/1999/xlink" x="0px" y="0px"
	 viewBox="0 0 384 512" style="enable-background:new 0 0 384 512;" xml:space="preserve">
<style type="text/css">
	.st0{fill:#4C6E77;}
</style>
<path class="st0" d="M224,136V0h-63.6v32h-32V0H24C10.7,0,0,10.7,0,24v464c0,13.3,10.7,24,24,24h336c13.3,0,24-10.7,24-24V160H248
	C234.8,160,224,149.2,224,136z M95.9,32h32v32h-32V32z M128.2,416c-33.2,0-58-30.4-51.4-62.9L96.4,256v-32h32v-32h-32v-32h32v-32
	h-32V96h32V64h32v32h-32v32h32v32h-32v32h32v32h-32v32h22.1c5.7,0,10.7,4.1,11.8,9.7l17.3,87.7C186,385.8,161.2,416,128.2,416
	L128.2,416z M160.9,363c0,14.9-14.5,27-32.4,27S96,378,96,363c0-14.9,14.5-27,32.4-27S160.9,348.1,160.9,363z M384,121.9v6.1H256V0
	h6.1c6.4,0,12.5,2.5,17,7l97.9,98C381.5,109.5,384,115.6,384,121.9z"/>
</svg>
